<?xml version="1.0" encoding="utf-8"?>
<!-- Generator: Adobe Illustrator 21.0.2, SVG Export Plug-In . SVG Version: 6.00 Build 0)  -->
<svg version="1.1" id="图层_1" xmlns="http://www.w3.org/2000/svg" xmlns:xlink="http://www.w3.org/1999/xlink" x="0px" y="0px"
	 viewBox="0 0 12 12" style="enable-background:new 0 0 12 12;" xml:space="preserve">
<style type="text/css">
	.st0{fill-rule:evenodd;clip-rule:evenodd;}
</style>
<path class="st0" d="M10,7H7v3c0,0.6-0.4,1-1,1c-0.6,0-1-0.4-1-1V7H2C1.4,7,1,6.6,1,6c0-0.6,0.4-1,1-1h3V2c0-0.6,0.4-1,1-1
	c0.6,0,1,0.4,1,1v3h3c0.6,0,1,0.4,1,1C11,6.6,10.6,7,10,7L10,7z"/>
</svg>
