<?xml version="1.0" standalone="no"?><!DOCTYPE svg PUBLIC "-//W3C//DTD SVG 1.1//EN" "http://www.w3.org/Graphics/SVG/1.1/DTD/svg11.dtd"><svg t="1515572749206" class="icon" style="" viewBox="0 0 1024 1024" version="1.1" xmlns="http://www.w3.org/2000/svg" p-id="6091" xmlns:xlink="http://www.w3.org/1999/xlink"><defs><style type="text/css"></style></defs><path d="M853.333333 597.333333H597.333333v256c0 93.866667-85.333333 93.866667-85.333333 0V597.333333H256c-110.933333 0-170.666667-59.733333-170.666667-162.133333V170.666667c0-102.4 59.733333-170.666667 170.666667-170.666667h597.333333s170.666667 8.533333 170.666667 170.666667v256c0 102.4-59.733333 170.666667-170.666667 170.666666zM298.666667 426.666667h170.666666c25.6 0 42.666667-17.066667 42.666667-42.666667S494.933333 341.333333 469.333333 341.333333h-170.666666c-25.6 0-42.666667 17.066667-42.666667 42.666667s17.066667 42.666667 42.666667 42.666667z m426.666666-256h-426.666666c-25.6 0-42.666667 17.066667-42.666667 42.666666s17.066667 42.666667 42.666667 42.666667h426.666666c25.6 0 42.666667-17.066667 42.666667-42.666667S750.933333 170.666667 725.333333 170.666667zM392.533333 682.666667c8.533333-8.533333 25.6 0 34.133334 8.533333 0 17.066667 0 42.666667-8.533334 51.2l-204.8 187.733333c-17.066667 8.533333-34.133333 8.533333-42.666666-8.533333 0-17.066667 0-34.133333 8.533333-42.666667L392.533333 682.666667z m324.266667 8.533333l204.8 187.733333c8.533333 8.533333 17.066667 34.133333 8.533333 42.666667-8.533333 17.066667-25.6 17.066667-34.133333 8.533333L691.2 742.4c-8.533333-8.533333-8.533333-25.6 0-42.666667 0-17.066667 17.066667-17.066667 25.6-8.533333z" p-id="6092"></path></svg>