<?xml version="1.0" standalone="no"?><!DOCTYPE svg PUBLIC "-//W3C//DTD SVG 1.1//EN" "http://www.w3.org/Graphics/SVG/1.1/DTD/svg11.dtd"><svg t="1515572735385" class="icon" style="" viewBox="0 0 1026 1024" version="1.1" xmlns="http://www.w3.org/2000/svg" p-id="5833" xmlns:xlink="http://www.w3.org/1999/xlink"><defs><style type="text/css"></style></defs><path d="M1018.01984 878.933333v59.733334H941.21984V768c85.333333 0 76.8 76.8 76.8 110.933333zM514.553173 512c93.866667 0 341.333333 85.333333 341.333334 426.666667H173.21984c0-332.8 221.866667-426.666667 341.333333-426.666667z m170.666667 341.333333c51.2 0 85.333333-42.666667 85.333333-85.333333 0-51.2-34.133333-85.333333-85.333333-85.333333s-85.333333 34.133333-85.333333 85.333333 34.133333 85.333333 85.333333 85.333333z m-341.333333 0c51.2 0 85.333333-42.666667 85.333333-85.333333 0-51.2-34.133333-85.333333-85.333333-85.333333s-85.333333 34.133333-85.333334 85.333333 34.133333 85.333333 85.333334 85.333333z m170.666666-520.533333V426.666667H429.21984V332.8c-51.2-17.066667-85.333333-59.733333-85.333333-119.466667C343.886507 145.066667 403.61984 85.333333 471.886507 85.333333S599.886507 145.066667 599.886507 213.333333c0 59.733333-34.133333 102.4-85.333334 119.466667zM2.553173 938.666667v-59.733334C2.553173 844.8-23.046827 768 87.886507 768v170.666667H2.553173z" p-id="5834"></path></svg>