<?xml version="1.0" encoding="utf-8"?>
<!-- Generated by IcoMoon.io -->
<!DOCTYPE svg PUBLIC "-//W3C//DTD SVG 1.1//EN" "http://www.w3.org/Graphics/SVG/1.1/DTD/svg11.dtd">
<svg version="1.1" xmlns="http://www.w3.org/2000/svg" xmlns:xlink="http://www.w3.org/1999/xlink" width="32" height="32" viewBox="0 0 32 32">
<path d="M27.188 27.188c0 0-0.438 1.625-1.563 1.625h-17.625c0 0-1.625-0.188-1.625-1.625h17.625c1.125 0 1.625-0.125 1.625-1.563v-22.438c-0.188-0.938-0.188-1.563-1.625-1.563h-17.75c-0.5 0-1.438 0.938-1.438 1.563v1.625h1.563c0 0 1.813-0.625 1.625 2.375 0 0 0.188 2.438-1.625 2.438h-1.563v3.188h1.563c0 0 1.438 0 1.625 2.375 0 0 0.188 2.438-1.625 2.438h-1.563v3.188h1.563c0 0 1.625-0.5 1.625 2.375 0 0 0.188 2.438-1.625 2.438h-1.563v3.188c0 0 0 1.563 1.563 1.563h20.813c0 0 1.625-0.125 1.625-1.563v-12.813h-1.625zM4 16h1.625c0.438 0 0.75-0.313 0.75-0.813 0-0.438-0.313-0.813-0.75-0.813h-1.625c-0.5 0-0.813 0.375-0.813 0.813 0 0.5 0.313 0.813 0.813 0.813zM6.375 23.188c0-0.438-0.313-0.813-0.75-0.813h-1.625c-0.5 0-0.813 0.375-0.813 0.813 0 0.5 0.313 0.813 0.813 0.813h1.625c0.438 0 0.75-0.313 0.75-0.813zM4 8h1.625c0.438 0 0.75-0.313 0.75-0.813 0-0.438-0.313-0.813-0.75-0.813h-1.625c-0.5 0-0.813 0.375-0.813 0.813 0 0.5 0.313 0.813 0.813 0.813zM27.188 1.625v3.188c1.438 0 1.625-1.625 1.625-1.625v-1.563zM27.188 9.625c1.438-0.188 1.625-1.625 1.625-1.625v-1.625h-1.625zM27.188 14.375c1.625 0 1.625-1.563 1.625-1.563v-1.625h-1.625z"></path>
</svg>
