<?xml version="1.0" encoding="utf-8"?>
<!-- Generator: Adobe Illustrator 21.0.0, SVG Export Plug-In . SVG Version: 6.00 Build 0)  -->
<svg version="1.1" id="图层_1" xmlns="http://www.w3.org/2000/svg" xmlns:xlink="http://www.w3.org/1999/xlink" x="0px" y="0px"
	 viewBox="0 0 18 18" style="enable-background:new 0 0 18 18;" xml:space="preserve">
<style type="text/css">
	.st0{fill-rule:evenodd;clip-rule:evenodd;}
</style>
<path class="st0" d="M18,5.7c0,0-1-0.4-1.4,0c-1.3,1.3-4,4-5.7,5.7c-0.9,0.9,0,2.8,0,2.8c0,0-1.3-1.3-2.8-2.8C8,11.2,1.2,17.2,1,17
	c-0.3-0.3,6-6.8,5.7-7.1C5.2,8.4,3.8,7.1,3.8,7.1s2.1,0.8,2.8,0c1.6-1.6,4.3-4.3,5.7-5.7c0.5-0.5,0-1.4,0-1.4L18,5.7L18,5.7z
	 M9.9,9.6c-0.2,0.2-0.2,0.5,0,0.7c0.2,0.2,0.5,0.2,0.7,0L14.8,6c0.2-0.2,0.2-0.5,0-0.7c-0.2-0.2-0.5-0.2-0.7,0L9.9,9.6L9.9,9.6z"/>
</svg>
