<?xml version="1.0" encoding="utf-8"?>
<!-- Generated by IcoMoon.io -->
<!DOCTYPE svg PUBLIC "-//W3C//DTD SVG 1.1//EN" "http://www.w3.org/Graphics/SVG/1.1/DTD/svg11.dtd">
<svg version="1.1" xmlns="http://www.w3.org/2000/svg" xmlns:xlink="http://www.w3.org/1999/xlink" width="32" height="32" viewBox="0 0 32 32">
<path d="M27.5 19.188c-0.188 1.063-0.625 1.938-1.25 2.813 0 0 2.563 3.188 0.813 4.875l-0.813 0.875c-1.313 1.25-4.063-0.688-4.688-1.063-0.875 0.375-1.938 0.813-3 1.25l0.625-0.188c0 0-0.625 4.25-2.75 4.25h-0.875c-1.688 0-2.75-4.063-2.75-4.25-1.063-0.25-2.125-0.875-3-1.313l0.188 0.25c0 0-3.188 2.75-4.875 1.063l-0.625-0.688c-1.313-1.25 0.813-4.875 1.063-5.063-0.438-0.875-0.875-1.75-1.063-2.813-0.438 0-4.5-1.063-4.5-2.75v-0.875c0-2.125 3.625-2.75 4.25-2.75 0.25-0.875 0.688-1.938 1.063-2.563 0-0.438-2.313-3.875-1.063-5.125l0.688-0.625c1.438-1.5 4.688 0.625 5.063 1.063 0.875-0.438 1.75-0.875 2.813-1.063 0-0.875 1.063-4.5 2.75-4.5h0.875c1.938 0 2.563 3.438 2.75 4.5 1.063 0.188 1.938 0.625 2.813 1.063 0.625-0.438 3.813-2.375 5.063-1.063l0.688 0.625c1.5 1.5-0.438 3.813-0.875 4.5 0.438 0.813 0.625 2.125 0.875 3.188 0 0 4.25 0.625 4.25 2.75v0.875c0 1.688-3.625 2.563-4.5 2.75zM16 10.688c-3 0-5.563 2.313-5.563 5.313s2.375 5.563 5.375 5.563c2.938 0 5.5-2.563 5.5-5.563s-2.313-5.313-5.313-5.313z"></path>
</svg>
