<?xml version="1.0" encoding="utf-8"?>
<!-- Generated by IcoMoon.io -->
<!DOCTYPE svg PUBLIC "-//W3C//DTD SVG 1.1//EN" "http://www.w3.org/Graphics/SVG/1.1/DTD/svg11.dtd">
<svg version="1.1" xmlns="http://www.w3.org/2000/svg" xmlns:xlink="http://www.w3.org/1999/xlink" width="32" height="32" viewBox="0 0 32 32">
<path d="M24.188 21.313h-8.375l-6.375 6.438-1.438-6.438h-1.938c-2.688 0-4.313-1.75-4.313-4.25v-9.438c0-2.5 1.813-4.25 4.313-4.25h18.125c2.5 0 4.25 1.75 4.25 4.25v9.438c0 2.313-1.75 4.25-4.25 4.25zM8.875 10.688c-1.063 0-1.75 0.688-1.75 1.75s0.688 1.813 1.75 1.813c1.063 0 1.813-0.75 1.813-1.813s-0.75-1.75-1.813-1.75zM16 10.688c-1.063 0-1.75 0.688-1.75 1.75s0.688 1.813 1.75 1.813c1.063 0 1.75-0.75 1.75-1.813s-0.688-1.75-1.75-1.75zM23.125 10.688c-1.063 0-1.813 0.688-1.813 1.75s0.75 1.813 1.813 1.813c1.063 0 1.75-0.75 1.75-1.813s-0.688-1.75-1.75-1.75z"></path>
</svg>
