<?xml version="1.0" encoding="utf-8"?>
<!-- Generated by IcoMoon.io -->
<!DOCTYPE svg PUBLIC "-//W3C//DTD SVG 1.1//EN" "http://www.w3.org/Graphics/SVG/1.1/DTD/svg11.dtd">
<svg version="1.1" xmlns="http://www.w3.org/2000/svg" xmlns:xlink="http://www.w3.org/1999/xlink" width="32" height="32" viewBox="0 0 32 32">
<path d="M22 16l8.813-8.813c1.563-1.563 1.563-4.375 0-6-1.625-1.563-4.438-1.563-6 0l-8.813 8.813-8.813-8.813c-1.563-1.563-4.375-1.563-6 0-1.563 1.625-1.563 4.438 0 6l8.813 8.813-8.813 8.813c-1.563 1.563-1.563 4.375 0 6 1.625 1.563 4.438 1.563 6 0l8.813-8.813 8.813 8.813c1.563 1.563 4.375 1.563 6 0 1.563-1.625 1.563-4.438 0-6z"></path>
</svg>
