<?xml version="1.0" encoding="utf-8"?>
<!-- Generated by IcoMoon.io -->
<!DOCTYPE svg PUBLIC "-//W3C//DTD SVG 1.1//EN" "http://www.w3.org/Graphics/SVG/1.1/DTD/svg11.dtd">
<svg version="1.1" xmlns="http://www.w3.org/2000/svg" xmlns:xlink="http://www.w3.org/1999/xlink" width="32" height="32" viewBox="0 0 32 32">
<path d="M28.96 30.4h-12.96c0 0-1.6-0.64-1.6-1.6v-22.4c0-0.96 0.64-1.6 1.6-1.6h12.64c0.96 0 1.76 0.64 1.76 1.6v22.4c0 0-0.64 1.6-1.44 1.6v0zM19.2 6.4h-3.2v3.2h3.2v-3.2zM19.2 11.2h-3.2v3.2h3.2v-3.2zM19.2 16h-3.2v3.2h3.2v-3.2zM19.2 20.8h-3.2v3.2h3.2v-3.2zM19.2 25.6h-3.2v3.2h3.2v-3.2zM24 6.4h-3.2v3.2h3.2v-3.2zM24 11.2h-3.2v3.2h3.2v-3.2zM24 16h-3.2v3.2h3.2v-3.2zM24 20.8h-3.2v3.2h3.2v-3.2zM28.8 6.4h-3.2v3.2h3.2v-3.2zM28.8 11.2h-3.2v3.2h3.2v-3.2zM28.8 16h-3.2v3.2h3.2v-3.2zM28.8 20.8h-3.2v3.2h3.2v-3.2zM28.8 25.6h-3.2v3.2h3.2v-3.2zM11.2 30.4h-8c-0.96 0-1.6-0.64-1.6-1.6v-12.8c0-0.96 0.64-1.6 1.6-1.6h8c0.96 0 1.6 0.64 1.6 1.6v12.8c0 0.96-0.64 1.6-1.6 1.6v0zM4.8 16h-1.6v3.2h1.6v-3.2zM4.8 20.8h-1.6v3.2h1.6v-3.2zM4.8 25.6h-1.6v3.2h1.6v-3.2zM8 16h-1.6v3.2h1.6v-3.2zM8 20.8h-1.6v3.2h1.6v-3.2zM11.2 16h-1.6v3.2h1.6v-3.2zM11.2 20.8h-1.6v3.2h1.6v-3.2zM11.2 25.6h-1.6v3.2h1.6v-3.2z"></path>
</svg>
