<?xml version="1.0" standalone="no"?><!DOCTYPE svg PUBLIC "-//W3C//DTD SVG 1.1//EN" "http://www.w3.org/Graphics/SVG/1.1/DTD/svg11.dtd"><svg t="1515638656455" class="icon" style="" viewBox="0 0 1024 1024" version="1.1" xmlns="http://www.w3.org/2000/svg" p-id="6086" xmlns:xlink="http://www.w3.org/1999/xlink"><defs><style type="text/css"></style></defs><path d="M864 704h-768C44.8 704 0 659.2 0 608v-512C0 44.8 44.8 0 96 0h768c51.2 0 96 44.8 96 96v512c0 51.2-44.8 96-96 96z m-396.8-57.6h12.8c6.4 0 6.4 6.4 12.8 6.4s12.8-6.4 12.8-6.4l6.4-12.8s-19.2 6.4-19.2-12.8c0-12.8 12.8-12.8 19.2-12.8 0 0-6.4-6.4-6.4-12.8 0 0-6.4 0-12.8-6.4-6.4 0-12.8 6.4-12.8 6.4l-6.4-12.8c-25.6 0-25.6 12.8-25.6 32 0 12.8 6.4 25.6 19.2 32z m25.6-89.6s-12.8 19.2-12.8 25.6c0 0 25.6-6.4 12.8-25.6zM896 128c0-38.4-25.6-64-64-64H128c-38.4 0-64 25.6-64 64v320c0 38.4 25.6 64 64 64h704c38.4 0 64-25.6 64-64V128zM320 876.8V768h320v108.8s121.6 83.2 32 83.2H281.6c-64 0 38.4-83.2 38.4-83.2z" p-id="6087"></path></svg>