<?xml version="1.0" encoding="utf-8"?>
<!-- Generated by IcoMoon.io -->
<!DOCTYPE svg PUBLIC "-//W3C//DTD SVG 1.1//EN" "http://www.w3.org/Graphics/SVG/1.1/DTD/svg11.dtd">
<svg version="1.1" xmlns="http://www.w3.org/2000/svg" xmlns:xlink="http://www.w3.org/1999/xlink" width="32" height="32" viewBox="0 0 32 32">
<path fill="#8e8e8e" d="M26 4v-2c0-1.2 0.4-2 1-2s1 0.8 1 2v2h-2zM27 30c-0.6 0-1-0.8-1-2v-10h2v10c0 1.2-0.4 2-1 2v0zM26 2c0-1.2 0.4-2 1-2s1 0.8 1 2v2h-2v-2zM28 16h-2c-1.2 0-2-0.8-2-2v-6c0-1.2 0.8-2 2-2h2c1.2 0 2 0.8 2 2v6c0 1.2-0.8 2-2 2v0zM14 12v-10c0-1.2 0.4-2 1-2s1 0.8 1 2v10h-2zM15 30c-0.6 0-1-0.8-1-2v-2h2v2c0 1.2-0.4 2-1 2v0zM14 2c0-1.2 0.4-2 1-2s1 0.8 1 2v10h-2v-10zM16 24h-2c-1.2 0-2-0.8-2-2v-6c0-1.2 0.8-2 2-2h2c1.2 0 2 0.8 2 2v6c0 1.2-0.8 2-2 2v0zM2 8v-6c0-1.2 0.4-2 1-2s1 0.8 1 2v6h-2zM3 30c-0.6 0-1-0.8-1-2v-6h2v6c0 1.2-0.4 2-1 2v0zM2 2c0-1.2 0.4-2 1-2s1 0.8 1 2v6h-2v-6zM4 20h-2c-1.2 0-2-0.8-2-2v-6c0-1.2 0.8-2 2-2h2c1.2 0 2 0.8 2 2v6c0 1.2-0.8 2-2 2v0z"></path>
</svg>
