<?xml version="1.0" standalone="no"?><!DOCTYPE svg PUBLIC "-//W3C//DTD SVG 1.1//EN" "http://www.w3.org/Graphics/SVG/1.1/DTD/svg11.dtd"><svg t="1515569721714" class="icon" style="" viewBox="0 0 1024 1024" version="1.1" xmlns="http://www.w3.org/2000/svg" p-id="6433" xmlns:xlink="http://www.w3.org/1999/xlink" ><defs><style type="text/css"></style></defs><path d="M348.8 928c-35.2 0-64-28.8-64-64s25.6-64 64-64c35.2 0 64 25.6 64 64 3.2 35.2-25.6 64-64 64zM704 928c-35.2 0-64-28.8-64-64s28.8-64 64-64 64 28.8 64 64-28.8 64-64 64z m163.2-323.2L288 608l16 64H864c19.2 0 32 28.8 32 48s-12.8 48-32 48H259.2c-19.2 0-32-44.8-32-64 0-12.8-83.2-483.2-83.2-483.2H76.8c0-96 80-96 80-96 67.2 0 80 96 80 96l12.8 32H864c57.6 0 60.8 67.2 60.8 67.2v220.8c3.2 64-57.6 64-57.6 64z" p-id="6434"></path></svg>