<?xml version="1.0" standalone="no"?><!DOCTYPE svg PUBLIC "-//W3C//DTD SVG 1.1//EN" "http://www.w3.org/Graphics/SVG/1.1/DTD/svg11.dtd"><svg t="1515569714485" class="icon" style="" viewBox="0 0 1024 1024" version="1.1" xmlns="http://www.w3.org/2000/svg" p-id="6265" xmlns:xlink="http://www.w3.org/1999/xlink" ><defs><style type="text/css"></style></defs><path d="M793.6 480c-16 0-35.2 0-51.2-3.2-64 83.2-172.8 67.2-172.8 67.2 73.6-35.2 73.6-96 60.8-102.4-57.6-32-89.6-80-89.6-134.4 0-102.4 108.8-179.2 249.6-179.2s227.2 76.8 227.2 179.2c3.2 99.2-83.2 172.8-224 172.8zM416 566.4V640h-64v-73.6c-19.2-9.6-32-32-32-54.4 0-35.2 28.8-64 64-64s64 28.8 64 64c0 22.4-12.8 44.8-32 54.4zM672 992H96c0-217.6 108.8-320 288-320s288 96 288 320z m-128-64c19.2 0 32-12.8 32-32s-12.8-32-32-32-32 12.8-32 32 16 32 32 32zM224 864c-19.2 0-32 12.8-32 32s12.8 32 32 32 32-12.8 32-32-16-32-32-32z m-224 64c0-28.8 6.4-64 64-64v128H0v-64z m768 0v64h-64v-128c64 0 64 35.2 64 64z" p-id="6266"></path></svg>