<?xml version="1.0" encoding="utf-8"?>
<!-- Generator: Adobe Illustrator 21.1.0, SVG Export Plug-In . SVG Version: 6.00 Build 0)  -->
<svg version="1.1" id="图层_1" xmlns="http://www.w3.org/2000/svg" xmlns:xlink="http://www.w3.org/1999/xlink" x="0px" y="0px"
	 viewBox="0 0 16 16" style="enable-background:new 0 0 16 16;" xml:space="preserve">
<style type="text/css">
	.st0{fill-rule:evenodd;clip-rule:evenodd;fill:#AAAAAA;}
</style>
<path class="st0" d="M13.9,16H1.1C0.5,16,0,15.5,0,14.9V3.7c0-0.6,0.5-1.1,1.1-1.1h1.1v0.6c0,1.6,1.6,1.6,1.6,1.6
	c1.6,0,1.6-1.6,1.6-1.6V2.6h4.3l0,0.6c0,1.6,1.6,1.6,1.6,1.6c1.6,0,1.6-1.6,1.6-1.6V2.6h1.1c0.6,0,1.1,0.5,1.1,1.1v11.3
	C15,15.5,14.5,16,13.9,16L13.9,16z M13.9,6.4H1.1v8.6h12.9V6.4L13.9,6.4z M5.5,8.5h1v4.3H5.3V9.9c-0.2,0.1-0.6,0.4-0.6,0.4
	s-0.1,0.1-0.4,0.3v-1C4.7,9.3,4.7,9.3,5,9.1C5.2,8.9,5.4,8.8,5.5,8.5L5.5,8.5z M10.7,9.5C10.4,9.8,10,10,9.8,10.3
	c-0.2,0.4-0.3,0.6-0.4,1.1c-0.1,0.4-0.2,0.9-0.2,1.4H8c0.1-0.7,0.2-1.4,0.4-1.8c0.2-0.5,0.5-0.9,0.9-1.4H7.5V8.5h3.3V9.5L10.7,9.5z
	 M11.3,4.2c-0.6,0-1.1-0.5-1.1-1.1V2.1c0-0.6,0.5-1.1,1.1-1.1c0.6,0,1.1,0.5,1.1,1.1v1.1C12.3,3.7,11.8,4.2,11.3,4.2L11.3,4.2z
	 M3.8,4.2c-0.6,0-1.1-0.5-1.1-1.1V2.1C2.7,1.5,3.2,1,3.8,1s1.1,0.5,1.1,1.1v1.1C4.8,3.7,4.3,4.2,3.8,4.2L3.8,4.2z"/>
</svg>
