<?xml version="1.0" encoding="utf-8"?>
<!-- Generator: Adobe Illustrator 21.0.2, SVG Export Plug-In . SVG Version: 6.00 Build 0)  -->
<svg version="1.1" id="图层_1" xmlns="http://www.w3.org/2000/svg" xmlns:xlink="http://www.w3.org/1999/xlink" x="0px" y="0px"
	 viewBox="0 0 12 12" style="enable-background:new 0 0 12 12;" xml:space="preserve">
<style type="text/css">
	.st0{fill:#666666;}
</style>
<path class="st0" d="M7.3,6l3.4-3.4c0.4-0.4,0.4-1,0-1.4c-0.4-0.4-1-0.4-1.4,0L6,4.6L2.6,1.3c-0.4-0.4-1-0.4-1.4,0
	c-0.4,0.4-0.4,1,0,1.4L4.6,6L1.3,9.4c-0.4,0.4-0.4,1,0,1.4c0.4,0.4,1,0.4,1.4,0L6,7.3l3.4,3.4c0.4,0.4,1,0.4,1.4,0
	c0.4-0.4,0.4-1,0-1.4L7.3,6z"/>
</svg>
