<?xml version="1.0" standalone="no"?><!DOCTYPE svg PUBLIC "-//W3C//DTD SVG 1.1//EN" "http://www.w3.org/Graphics/SVG/1.1/DTD/svg11.dtd"><svg t="1516610144693" class="icon" style="" viewBox="0 0 1024 1024" version="1.1" xmlns="http://www.w3.org/2000/svg" p-id="9871" xmlns:xlink="http://www.w3.org/1999/xlink" ><defs><style type="text/css"></style></defs><path d="M763.416143 768.008q0-14.847536-10.847661-25.727196t-25.727196-10.847661-25.727196 10.847661-10.847661 25.727196 10.847661 25.727196 25.727196 10.847661 25.727196-10.847661 10.847661-25.727196zM909.715571 768.008q0-14.847536-10.847661-25.727196t-25.727196-10.847661-25.727196 10.847661-10.847661 25.727196 10.847661 25.727196 25.727196 10.847661 25.727196-10.847661 10.847661-25.727196zM982.833286 640.012l0 182.842286q0 22.847286-15.9995 38.846786t-38.846786 15.9995l-841.125715 0q-22.847286 0-38.846786-15.9995t-15.9995-38.846786l0-182.842286q0-22.847286 15.9995-38.846786t38.846786-15.9995l265.719696 0 77.149589 77.725571q33.150964 31.999 77.725571 31.999t77.725571-31.999l77.725571-77.725571 265.143714 0q22.847286 0 38.846786 15.9995t15.9995 38.846786zM797.143089 314.87016q9.727696 23.423268-7.99975 39.99875l-255.992 255.992q-10.271679 10.847661-25.727196 10.847661t-25.727196-10.847661l-255.992-255.992q-17.727446-16.575482-7.99975-39.99875 9.727696-22.271304 33.726946-22.271304l146.267429 0 0-255.992q0-14.847536 10.847661-25.727196t25.727196-10.847661l146.267429 0q14.847536 0 25.727196 10.847661t10.847661 25.727196l0 255.992 146.267429 0q23.99925 0 33.726946 22.271304z" p-id="9872"></path></svg>