<?xml version="1.0" standalone="no"?><!DOCTYPE svg PUBLIC "-//W3C//DTD SVG 1.1//EN" "http://www.w3.org/Graphics/SVG/1.1/DTD/svg11.dtd"><svg t="1515748499350" class="icon" style="" viewBox="0 0 1024 1024" version="1.1" xmlns="http://www.w3.org/2000/svg" p-id="6628" xmlns:xlink="http://www.w3.org/1999/xlink"><defs><style type="text/css"></style></defs><path d="M128.703849 245.000452l383.137709 383.137709L900.000667 239.979052l0.024376 0.024376c13.162894-12.699755 31.030303-20.499988 50.750268-20.499988 40.390583 0 73.127187 32.736604 73.127187 73.127187 0 19.719965-7.824609 37.587374-20.499988 50.750268l0.024376 0.024376-438.763122 438.763122-0.024376-0.024376c-13.309148 13.796663-31.956581 22.376919-52.627199 22.376919-0.048751 0-0.097503 0-0.17063 0-0.048751 0-0.097503 0-0.17063 0-20.670618 0-39.318051-8.580257-52.627199-22.376919l-0.024376 0.024376-438.763122-438.763122 0.195006-0.195006c-12.602252-13.138518-20.353734-30.957176-20.353734-50.579638 0-40.390583 32.736604-73.127187 73.127187-73.127187C95.430979 219.50344 115.297198 229.399986 128.703849 245.000452z" p-id="6629" fill="#9b9b9b"></path></svg>