<?xml version="1.0" encoding="utf-8"?>
<!-- Generated by IcoMoon.io -->
<!DOCTYPE svg PUBLIC "-//W3C//DTD SVG 1.1//EN" "http://www.w3.org/Graphics/SVG/1.1/DTD/svg11.dtd">
<svg version="1.1" xmlns="http://www.w3.org/2000/svg" xmlns:xlink="http://www.w3.org/1999/xlink" width="32" height="32" viewBox="0 0 32 32">
<path d="M20.5 16.563l8.375-8.313c1.125-1.125 1.125-3 0-4.188-1.188-1.125-3.063-1.125-4.188 0l-8.313 8.313-8.313-8.313c-1.188-1.125-3-1.125-4.188 0-1.125 1.188-1.125 3.063 0 4.188l8.313 8.313-8.313 8.313c-1.125 1.125-1.125 3 0 4.188 1.188 1.125 3 1.125 4.188 0l8.313-8.313 8.313 8.313c1.125 1.125 3 1.125 4.188 0 1.125-1.188 1.125-3.063 0-4.188z"></path>
</svg>
