<?xml version="1.0" encoding="utf-8"?>
<!-- Generator: Adobe Illustrator 21.1.0, SVG Export Plug-In . SVG Version: 6.00 Build 0)  -->
<svg version="1.1" id="图层_1" xmlns="http://www.w3.org/2000/svg" xmlns:xlink="http://www.w3.org/1999/xlink" x="0px" y="0px"
	 viewBox="0 0 33 34" style="enable-background:new 0 0 33 34;" xml:space="preserve">
<style type="text/css">
	.st0{fill-rule:evenodd;clip-rule:evenodd;fill:#DC5F5F;}
	.st1{fill:#FFFFFF;}
</style>
<path class="st0" d="M28.2,4.9c6.4,6.6,6.4,17.4-0.1,24c-6.5,6.7-16.9,6.7-23.4,0.1c-6.4-6.6-6.4-17.4,0.1-24
	C11.4-1.6,21.8-1.7,28.2,4.9L28.2,4.9z"/>
<path class="st1" d="M18.3,17l6.3-6.4c0.5-0.6,0.5-1.5,0-2c-0.5-0.6-1.4-0.6-2,0L16.3,15l-5.9-6.1c-0.5-0.6-1.4-0.6-2,0
	c-0.5,0.6-0.5,1.5,0,2l5.9,6.1l-5.9,6.1c-0.5,0.6-0.5,1.5,0,2c0.5,0.6,1.4,0.6,2,0l5.9-6.1l6.3,6.4c0.5,0.6,1.4,0.6,2,0
	c0.5-0.6,0.5-1.5,0-2L18.3,17z"/>
</svg>
