<?xml version="1.0" encoding="utf-8"?>
<!-- Generated by IcoMoon.io -->
<!DOCTYPE svg PUBLIC "-//W3C//DTD SVG 1.1//EN" "http://www.w3.org/Graphics/SVG/1.1/DTD/svg11.dtd">
<svg version="1.1" xmlns="http://www.w3.org/2000/svg" xmlns:xlink="http://www.w3.org/1999/xlink" width="32" height="32" viewBox="0 0 32 32">
<path d="M21.6 10.4c-0.8-0.8-2-0.8-2.8 0l-2.8 2.8-2.8-2.8c-0.8-0.8-2-0.8-2.8 0s-0.8 2 0 2.8l2.8 2.8-2.8 2.8c-0.8 0.8-0.8 2 0 2.8s2 0.8 2.8 0l2.8-2.8 2.8 2.8c0.8 0.8 2 0.8 2.8 0s0.8-2 0-2.8l-2.8-2.8 2.8-2.8c0.8-0.8 0.8-2 0-2.8z"></path>
<path d="M16 0c-8.8 0-16 7.2-16 16s7.2 16 16 16 16-7.2 16-16-7.2-16-16-16zM16 28.2c-6.8 0-12.2-5.4-12.2-12.2s5.6-12.2 12.2-12.2c6.8 0 12.2 5.4 12.2 12.2s-5.4 12.2-12.2 12.2z"></path>
</svg>
