<?xml version="1.0" encoding="utf-8"?>
<!-- Generator: Adobe Illustrator 21.1.0, SVG Export Plug-In . SVG Version: 6.00 Build 0)  -->
<svg version="1.1" id="图层_1" xmlns="http://www.w3.org/2000/svg" xmlns:xlink="http://www.w3.org/1999/xlink" x="0px" y="0px"
	 viewBox="0 0 166 166" style="enable-background:new 0 0 166 166;" xml:space="preserve">
<path d="M144,0H21C10,0,0,9,0,21v124c0,11,9,21,21,21h54V99H62V77h13v-4c0-8,1-13,3-17c3-4,6-8,12-11s11-4,20-4s15,3,24,5l-6,19
	c-5-2-9-5-14-5s-8,1-10,3c-4,3-2,12-2,12h27l-5,22h-20v68h41c11,0,21-9,21-21V21C165,9,156,0,144,0z M75,165h29H75z"/>
</svg>
