<?xml version="1.0" encoding="utf-8"?>
<!-- Generator: Adobe Illustrator 21.0.2, SVG Export Plug-In . SVG Version: 6.00 Build 0)  -->
<svg version="1.1" id="图层_1" xmlns="http://www.w3.org/2000/svg" xmlns:xlink="http://www.w3.org/1999/xlink" x="0px" y="0px"
	 viewBox="0 0 16.9 16" style="enable-background:new 0 0 16.9 16;" xml:space="preserve">
<style type="text/css">
	.st0{fill-rule:evenodd;clip-rule:evenodd;}
</style>
<path class="st0" d="M4,15l10,0c0,0,0.7,0,0.9-0.7l2.1-6.1c0,0,0.3-1.1-0.9-1.1c0,0-9.7,0-12.2,0C3.5,7,3,8,3,8l0,6.1
	C3,14.1,3.6,15,4,15L4,15z M2,14.9c0,0-0.6-0.1-0.6-0.7L0,3.8c0,0,0,0.5,0-0.2C0,3,0.5,3.1,0.5,3.1h4.9c0.7,0,0.6,0.8,0.6,0.8
	C5.9,4.9,7,5,7,5l7.4,0c0.6,0,0.5,0.5,0.5,0.5c0,0.5-0.5,0.5-0.5,0.5H3.1C1.8,6,2,7.2,2,7.2L2,14.9L2,14.9z"/>
</svg>
