<?xml version="1.0" encoding="utf-8"?>
<!-- Generated by IcoMoon.io -->
<!DOCTYPE svg PUBLIC "-//W3C//DTD SVG 1.1//EN" "http://www.w3.org/Graphics/SVG/1.1/DTD/svg11.dtd">
<svg version="1.1" xmlns="http://www.w3.org/2000/svg" xmlns:xlink="http://www.w3.org/1999/xlink" width="32" height="32" viewBox="0 0 32 32">
<path d="M16 2c0.813 0 1.625 0.375 2.188 0.813 0.625 0.563 1 1.375 1 2.188s-0.375 1.625-1 2.188c-0.188 0.188-0.375 0.188-0.375 0.438 0 0 0 0-0.188 0.188-1 0.813-1.438 2-1 3.188 0.375 0.813 1.375 1.375 2.375 1.375 0 0 0.188 0 0.188 0 1.438-0.188 2.188-1.188 2.438-2.375 0.188-1 0.563-1.813 1.188-2.375 0.563-0.438 1.188-0.625 1.813-0.625 0.75 0 1.563 0.188 2.188 0.813 1 1 1.188 2.375 0.563 3.813-0.563 1-1.563 1.375-2.563 1.375-0.438 0-0.813 0-1-0.188-0.188 0-0.188 0-0.438-0.188-0.188 0-0.375-0.25-0.563-0.25s-0.438 0-0.813 0c-0.813 0-1.625 0.438-2.188 1.25-0.625 0.75-0.625 2 0 2.75 0.563 0.813 1.375 1.25 2.188 1.25 0.188 0 0.375 0 0.625 0 0.188 0 0.375-0.25 0.563-0.25 0 0 0.188 0 0.188 0 0.438-0.188 0.813-0.188 1.25-0.188 1.375 0 2.563 0.813 3 2.188 0.188 0.813 0.188 1.625-0.438 2.438-0.375 0.813-1.188 1.188-2 1.375-0.188 0-0.375 0-0.563 0-1.625 0-3-1.188-3.25-2.813-0.188-1.563-1.188-2.563-2.563-2.563-0.188 0-0.438 0-0.625 0-0.563 0.188-1.375 0.813-1.563 1.563-0.25 0.813 0 1.813 0.563 2.625 0.188 0.188 0.438 0.375 0.625 0.625h0.188c1 0.75 1.375 2.188 1 3.375s-1.625 2-3 2c-1.375 0-2.625-0.813-3-2s0-2.625 1.188-3.375c0.625-0.625 1.438-1.438 1.438-2.625-0.25-1.375-1.25-2.375-2.438-2.375 0 0-0.188 0-0.188 0-1.188 0-2.375 0.75-2.625 2.188 0 0.188 0 0.375 0 0.375 0 0.188 0 0.188 0 0.438-0.375 1.375-1.75 2.375-3.188 2.375-0.188 0-0.375 0-0.813 0-0.75-0.188-1.563-0.813-2-1.375-0.375-0.813-0.375-1.625-0.188-2.438 0.438-1.188 1.625-2.188 3-2.188 0.438 0 0.813 0 1 0.188 0.625 0.188 1.188 0.438 1.813 0.438 0 0 0.188 0 0.188 0 0.625 0 1.188-0.438 1.813-1 0.375-0.625 0.625-1.25 0.625-2-0.438-1.25-1.438-2.25-2.813-2.25-0.188 0-0.438 0-0.625 0-0.375 0-0.563 0.25-1 0.25-0.188 0.375-0.563 0.375-1 0.375-1.375 0-2.563-0.813-3-2.188-0.188-0.625-0.188-1.625 0.188-2.188 0.438-0.813 1.25-1.25 2-1.438 0.25 0 0.625 0 0.813 0 1.625-0.188 2.813 0.813 3 2.438 0.188 1 0.625 2.375 2.188 2.75 0.25 0 0.438 0 0.625 0 1 0 1.813-0.375 2.188-1.188 0.625-1 0.625-2.188-0.188-3-0.188-0.375-0.625-0.563-0.813-0.813-0.813-0.563-1.188-1.188-1.188-2.188 0-0.813 0.188-1.563 0.813-2.188 0.375-0.625 1.375-1 2.188-1"></path>
</svg>
