<?xml version="1.0" encoding="utf-8"?>
<!-- Generator: Adobe Illustrator 21.0.0, SVG Export Plug-In . SVG Version: 6.00 Build 0)  -->
<svg version="1.1" id="图层_1" xmlns="http://www.w3.org/2000/svg" xmlns:xlink="http://www.w3.org/1999/xlink" x="0px" y="0px"
	 viewBox="0 0 500 500" style="enable-background:new 0 0 500 500;" xml:space="preserve">
<style type="text/css">
	.st0{fill:#B4B4B4;}
</style>
<g>
	<path class="st0" d="M250,0C111.1,0,0,111.1,0,250s111.1,250,250,250s250-111.1,250-250S388.9,0,250,0z M250,450
		c-111.1,0-200-88.9-200-200S138.9,50,250,50s200,88.9,200,200S361.1,450,250,450z"/>
	<path class="st0" d="M369.4,225H275V94.4c0-13.9-11.1-25-25-25s-25,11.1-25,25v119.4V250c0,13.9,11.1,25,25,25h119.4
		c13.9,0,25-11.1,25-25S383.3,225,369.4,225z"/>
</g>
</svg>
