<?xml version="1.0" encoding="utf-8"?>
<!-- Generated by IcoMoon.io -->
<!DOCTYPE svg PUBLIC "-//W3C//DTD SVG 1.1//EN" "http://www.w3.org/Graphics/SVG/1.1/DTD/svg11.dtd">
<svg version="1.1" xmlns="http://www.w3.org/2000/svg" xmlns:xlink="http://www.w3.org/1999/xlink" width="32" height="32" viewBox="0 0 32 32">
<path d="M13.938 14.25h8.75v-11.063c0-1.063-0.75-1.75-1.813-1.75h-13.188l-7.688 7.625v19.563c0 1.063 0.875 1.938 1.938 1.938h18.938c1.063 0 1.813-0.688 1.813-1.75v-6.438h-8.75zM2.188 9.313l6.375-5.813c0.938-0.938 0.75 0.688 0.75 0.688v3.688c0 2.25-2.625 2.25-2.625 2.25h-4.063c-1.688 0.063-0.438-0.813-0.438-0.813zM32 18.25l-7.563-5.188v2.375h-9.313v5.813h9.313v2.313z"></path>
</svg>
