<?xml version="1.0" encoding="utf-8"?>
<!-- Generated by IcoMoon.io -->
<!DOCTYPE svg PUBLIC "-//W3C//DTD SVG 1.1//EN" "http://www.w3.org/Graphics/SVG/1.1/DTD/svg11.dtd">
<svg version="1.1" xmlns="http://www.w3.org/2000/svg" xmlns:xlink="http://www.w3.org/1999/xlink" width="32" height="32" viewBox="0 0 32 32">
<path d="M16 1.625c-8 0-14.375 6.375-14.375 14.375s6.375 14.375 14.375 14.375c8 0 14.375-6.375 14.375-14.375s-6.375-14.375-14.375-14.375zM18.375 24c-0.75 0.313-1.125 0.188-1.563 0.313-0.5 0.188-1 0.313-1.625 0.313-0.938 0-1.75-0.125-2.25-0.625-0.438-0.5-0.938-1.125-0.938-1.75 0-0.313 0-0.625 0-0.813 0-0.313 0.188-1.125 0.188-1.438l1.438-3.188c0.125-0.313 0.125-0.625 0.125-1 0-0.313 0.188-0.313 0.188-0.625 0-0.438-0.313-0.813-0.5-0.938-0.313-0.313-1.125-0.5-1.75-0.5-0.313 0-0.5 0-0.813 0.188-0.125 0.125-0.5 0.125-0.625 0.313v-1.313c0.813-0.313 2.063-0.75 2.563-0.938 0.625-0.188 1.125-0.313 1.75-0.313 0.938 0 1.75 0.125 2.25 0.625 0.438 0.5 1.125 1.313 1.125 1.938 0 0.125 0 0.5 0 0.813s-0.188 0.75-0.188 1.125l-1.438 3.188c-0.125 0.313-0.125 0.625-0.125 0.938s-0.188 1.125-0.188 1.313c0 0.438 0.188 0.75 0.313 0.938 0.188 0.188 0.5 0.5 0.938 0.5 0.688 0 0.688 0.125 1.313-0.188zM18.875 9.438c-0.5 0.5-0.938 0.813-1.625 0.813-0.625 0-1.25-0.313-1.75-0.813-0.438-0.5-0.625-0.938-0.625-1.625 0-0.625 0.188-1.063 0.625-1.563 0.5-0.5 1-0.625 1.75-0.625 0.688 0 1.313 0.125 1.625 0.625 0.5 0.5 0.625 1.125 0.625 1.563 0.188 0.688-0.125 1.125-0.625 1.625z"></path>
</svg>
