<?xml version="1.0" encoding="utf-8"?>
<!-- Generated by IcoMoon.io -->
<!DOCTYPE svg PUBLIC "-//W3C//DTD SVG 1.1//EN" "http://www.w3.org/Graphics/SVG/1.1/DTD/svg11.dtd">
<svg version="1.1" xmlns="http://www.w3.org/2000/svg" xmlns:xlink="http://www.w3.org/1999/xlink" width="32" height="32" viewBox="0 0 32 32">
<path d="M14.063 3.938c-0.938 0-0.188 0.313-0.563 0.313-0.5 0 0.75 0-0.875 0.188-1.625 0.375-1.938 2.125-1.938 2.875 0 0.688 0 0.875 0 1.938 0 0.688-0.75 0.688-0.75 0.688-0.875 0-1.063 2.688-1.063 2.688 0.188 0.688 0 1.063 1.438 1.625 0.563 1.75 2.125 2.625 2.125 2.625s0 1.063 0.188 2c-0.188 0-0.188 2.125-4.438 2.625-4.125 0.563-5 1.938-5.688 2.688-0.75 0.875-0.75 4.25-0.75 4.25h26.688c0 0-0.188-3.375-0.875-4.063-0.688-0.75-1.625-2.125-5.688-2.688-4.125-0.563-3.938-2.688-3.938-2.813 0-0.375 0.188-1.625 0.188-1.625s1.25-1.25 1.813-3c1.063-0.75 1.375-0.75 1.563-1.438 0 0 0.563-2.688-0.688-2.688 0 0-1.25 0-1.063-0.5 0.188-0.75 0.188-0.938 0-1.625 0-0.688 0.313-2.688-1.063-3-1.063-0.188-0.75 0.125-1.25 0-0.563-0.188-1.063-1.438-2-1.438z"></path>
</svg>
