<?xml version="1.0" encoding="utf-8"?>
<!-- Generated by IcoMoon.io -->
<!DOCTYPE svg PUBLIC "-//W3C//DTD SVG 1.1//EN" "http://www.w3.org/Graphics/SVG/1.1/DTD/svg11.dtd">
<svg version="1.1" xmlns="http://www.w3.org/2000/svg" xmlns:xlink="http://www.w3.org/1999/xlink" width="32" height="32" viewBox="0 0 32 32">
<path d="M30.25 24.875h-5.375v5.375h-3.563v-5.375h-5.313v-3.563h5.313v-5.313h3.563v5.313h5.375zM19.938 14.25c-0.75 1.75-2 2.813-2 2.813s-0.188 1.438-0.188 1.813c0 0 0 0.313 0.188 0.688h-3.688v7.125h5.313v1.75h-17.813c0 0 0-3.375 0.75-4.063 0.688-0.75 1.563-2.125 5.688-2.688 4.25-0.688 4.25-2.813 4.438-2.813 0-0.75-0.188-2-0.188-2s-1.563-0.875-2.125-2.625c-1.438-0.563-1.25-0.938-1.438-1.625 0 0 0.188-2.875 1.063-2.688 0 0 0.75 0 0.563-0.688 0-1.063 0-1.25 0-1.938 0.188-0.75 0.5-2.5 1.938-2.875s0.375-0.188 0.875-0.188c0.563 0-0.313-0.313 0.563-0.313l1.563-0.375c0.938 0 1.625 1.25 2 1.438 0.5 0 0.188-0.188 1.25 0 1.375 0.313 1.063 2.313 1.063 3s0.188 0.875 0 1.625c-0.188 0.688 1.063 0.5 1.063 0.5 1.063 0 0.688 2.688 0.688 2.688-0.188 0.688-0.5 0.688-1.563 1.438z"></path>
</svg>
