<?xml version="1.0" encoding="utf-8"?>
<!-- Generated by IcoMoon.io -->
<!DOCTYPE svg PUBLIC "-//W3C//DTD SVG 1.1//EN" "http://www.w3.org/Graphics/SVG/1.1/DTD/svg11.dtd">
<svg version="1.1" xmlns="http://www.w3.org/2000/svg" xmlns:xlink="http://www.w3.org/1999/xlink" width="32" height="32" viewBox="0 0 32 32">
<path d="M15.188 21.375c-3.188 0.813-10.563 1.25-10.563 1.25-2.813 0-4.625-2.438-4.625-5.25v-6c0-3 1.813-5.375 4.813-5.375 0 0 8 0.625 10.375 1.188 3.188 0.813 5.188 2.625 5.188 5.625v3c0 3-2.188 5-5.188 5.563zM28 26c0 0-6.625-0.188-9.375-1-2.625-0.625-3.813-2.375-3.813-3.625v-4.563c0-2 1.563-3.438 4.375-4.188 1.813-0.438 8.813-0.625 8.813-0.625 2.375 0 4 2 4 4.625v5.188c0 2-1.625 4.188-4 4.188z"></path>
</svg>
