<?xml version="1.0" standalone="no"?><!DOCTYPE svg PUBLIC "-//W3C//DTD SVG 1.1//EN" "http://www.w3.org/Graphics/SVG/1.1/DTD/svg11.dtd"><svg t="1512613343298" class="icon" style="" viewBox="0 0 1024 1024" version="1.1" xmlns="http://www.w3.org/2000/svg" p-id="5250" xmlns:xlink="http://www.w3.org/1999/xlink"><defs><style type="text/css"></style></defs><path d="M512 1024c-281.6 0-512-230.4-512-512s230.4-512 512-512 512 230.4 512 512-230.4 512-512 512z m384-512c0-70.4-19.2-134.4-51.2-185.6l-582.4 473.6c64 57.6 153.6 96 249.6 96 211.2 0 384-172.8 384-384zM128 512c0 70.4 19.2 134.4 51.2 185.6l582.4-473.6C697.6 166.4 608 128 512 128 300.8 128 128 300.8 128 512z" p-id="5251"></path></svg>