<?xml version="1.0" encoding="utf-8"?>
<!-- Generator: Adobe Illustrator 21.1.0, SVG Export Plug-In . SVG Version: 6.00 Build 0)  -->
<svg version="1.1" id="图层_1" xmlns="http://www.w3.org/2000/svg" xmlns:xlink="http://www.w3.org/1999/xlink" x="0px" y="0px"
	 viewBox="0 0 16 16" style="enable-background:new 0 0 16 16;" xml:space="preserve">
<style type="text/css">
	.st0{fill-rule:evenodd;clip-rule:evenodd;fill:#AAAAAA;}
</style>
<path class="st0" d="M14.4,6.6l-2.3,2.3c-0.8,0.8-2.2,0.8-3.1,0l1.2-1.2c0.4,0.1,0.8-0.1,1.1-0.3l1.5-1.5c0.4-0.4,0.4-1.1,0-1.5
	l-1.1-1.1c-0.4-0.4-1.1-0.4-1.5,0L8.6,4.7C8.3,5,8.2,5.4,8.3,5.8L7.1,7c-0.8-0.8-0.8-2.2,0-3.1l2.3-2.3c0.8-0.8,2.2-0.8,3.1,0
	l1.9,1.9C15.2,4.4,15.2,5.7,14.4,6.6L14.4,6.6z M5,11c-0.3-0.3-0.3-0.8,0-1.1L8.8,6C9.1,5.7,9.7,5.7,10,6c0.3,0.3,0.3,0.8,0,1.1
	L6.2,11C5.8,11.3,5.3,11.3,5,11L5,11z M3.7,9.6l-1.5,1.5c-0.4,0.4-0.4,1.1,0,1.5l1.1,1.1c0.4,0.4,1.1,0.4,1.5,0l1.5-1.5
	c0.3-0.3,0.4-0.7,0.3-1.1L7.9,10c0.8,0.8,0.8,2.2,0,3.1l-2.3,2.3c-0.8,0.8-2.2,0.8-3.1,0l-1.9-1.9c-0.8-0.8-0.8-2.2,0-3.1l2.3-2.3
	c0.8-0.8,2.2-0.8,3.1,0L4.8,9.3C4.4,9.2,4,9.3,3.7,9.6L3.7,9.6z"/>
</svg>
