<?xml version="1.0" encoding="utf-8"?>
<!-- Generated by IcoMoon.io -->
<!DOCTYPE svg PUBLIC "-//W3C//DTD SVG 1.1//EN" "http://www.w3.org/Graphics/SVG/1.1/DTD/svg11.dtd">
<svg version="1.1" xmlns="http://www.w3.org/2000/svg" xmlns:xlink="http://www.w3.org/1999/xlink" width="32" height="32" viewBox="0 0 32 32">
<path d="M16 0c-8.813 0-16 7.188-16 16s7.188 16 16 16c8.813 0 16-7.188 16-16s-7.188-16-16-16zM18.188 24.375h-4.375v-2h4.375zM18.188 19.813v0.375h-4.375v-3.188c0-0.625 0.563-1 1.188-1s1 0 1 0c1.188 0 2.188-1 2.188-2.188s-1-2.188-2.188-2.188c-1.188 0-2.188 1.188-2.188 2.188h-4c0-3.438 2.813-6.188 6.188-6.188s6.188 2.75 6.188 6.188c0 2.813-1.563 5.188-4 6z"></path>
</svg>
