<?xml version="1.0" encoding="utf-8"?>
<!-- Generated by IcoMoon.io -->
<!DOCTYPE svg PUBLIC "-//W3C//DTD SVG 1.1//EN" "http://www.w3.org/Graphics/SVG/1.1/DTD/svg11.dtd">
<svg version="1.1" xmlns="http://www.w3.org/2000/svg" xmlns:xlink="http://www.w3.org/1999/xlink" width="32" height="32" viewBox="0 0 32 32">
<path d="M24 11.063h-15.75c-1.875 0-3.438 1.625-3.438 3.5v11.063c0 1.813 1.563 3.438 3.438 3.438h15.75c1.875 0 3.438-1.625 3.438-3.438v-11.063c0-2-1.438-3.5-3.438-3.5zM17.625 20.25v2.563c0 0.813-0.688 1.563-1.625 1.563-0.813 0-1.625-0.625-1.625-1.563v-2.563c-0.375-0.375-0.625-0.938-0.625-1.563 0-1.25 0.938-2.125 2.125-2.125s2.125 0.875 2.125 2.125c0.25 0.625 0 1.188-0.375 1.563zM16.375 4.563c2.688 0 4.813 2 5.063 4.5h3.125c-0.313-4.25-3.875-7.75-8.188-7.75-4.375 0-7.813 3.5-8.25 7.75h3.188c0.438-2.5 2.563-4.5 5.063-4.5z"></path>
</svg>
