<?xml version="1.0" encoding="utf-8"?>
<!-- Generated by IcoMoon.io -->
<!DOCTYPE svg PUBLIC "-//W3C//DTD SVG 1.1//EN" "http://www.w3.org/Graphics/SVG/1.1/DTD/svg11.dtd">
<svg version="1.1" xmlns="http://www.w3.org/2000/svg" xmlns:xlink="http://www.w3.org/1999/xlink" width="32" height="32" viewBox="0 0 32 32">
<path d="M22 1.2v4.2c3.8 2 6.2 6 6.2 10.6 0 6.8-5.4 12.2-12.2 12.2s-12.2-5.4-12.2-12.2c0-4.6 2.6-8.4 6.2-10.6v-4.2c-5.8 2.4-10 8.2-10 14.8 0 8.8 7.2 16 16 16s16-7.2 16-16c0-6.6-4.2-12.4-10-14.8z"></path>
<path d="M16 16c1.2 0 2-0.8 2-2v-12c0-1.2-0.8-2-2-2s-2 0.8-2 2v12c0 1.2 0.8 2 2 2z"></path>
</svg>
