<?xml version="1.0" encoding="utf-8"?>
<!-- Generator: Adobe Illustrator 21.0.2, SVG Export Plug-In . SVG Version: 6.00 Build 0)  -->
<svg version="1.1" id="图层_1" xmlns="http://www.w3.org/2000/svg" xmlns:xlink="http://www.w3.org/1999/xlink" x="0px" y="0px"
	 viewBox="0 0 12 12" style="enable-background:new 0 0 12 12;" xml:space="preserve">
<style type="text/css">
	.st0{fill:#231815;}
</style>
<path class="st0" d="M11.4,9.5v-1c0.8,0,0.5-1,0-1h-0.9c0.8,0,1-1,0-1v-1c0.5,0,0.9-0.4,0.9-1l-1.9-2c-0.4-0.4-0.8-1-1.9-1H4.8
	c-1.1,0-1.5,0.6-1.9,1c0,0-2.5,2.5-2.8,3c0,0.4,0,0.8,0,1c0,0.6,0.4,1,0.9,1c0,0,0.8,0,1.9,0C2.9,7.5,1,7.6,1,9s1.9,1.5,1.9,1.5
	s5.3,0,7.6,0h0.9C12.2,10.5,12.2,9.5,11.4,9.5z M1.9,6.5c-1.2,0-1.2-1,0-1h7.6v1C7.5,6.5,2.9,6.5,1.9,6.5z M2.9,9.5
	c-1.2,0-1.3-1,0-1h7.6v1C8.4,9.5,3.8,9.5,2.9,9.5z"/>
</svg>
