<?xml version="1.0" encoding="utf-8"?>
<!-- Generator: Adobe Illustrator 21.0.2, SVG Export Plug-In . SVG Version: 6.00 Build 0)  -->
<svg version="1.1" id="图层_1" xmlns="http://www.w3.org/2000/svg" xmlns:xlink="http://www.w3.org/1999/xlink" x="0px" y="0px"
	 viewBox="0 0 12 12" style="enable-background:new 0 0 12 12;" xml:space="preserve">
<style type="text/css">
	.st0{fill-rule:evenodd;clip-rule:evenodd;fill:#231815;}
</style>
<path class="st0" d="M10,11.5H2c-0.6,0-1-0.4-1-1v-9c0-0.6,0.4-1,1-1h5.9l3.1,3v7C11,11.1,10.6,11.5,10,11.5L10,11.5z M3.5,8.5h5
	C8.8,8.5,9,8.3,9,8c0-0.3-0.2-0.5-0.5-0.5h-5C3.2,7.5,3,7.7,3,8C3,8.3,3.2,8.5,3.5,8.5L3.5,8.5z M3.5,6.5h5C8.8,6.5,9,6.3,9,6
	c0-0.3-0.2-0.5-0.5-0.5h-5C3.2,5.5,3,5.7,3,6C3,6.3,3.2,6.5,3.5,6.5L3.5,6.5z M4.5,3.5h-1C3.2,3.5,3,3.7,3,4c0,0.3,0.2,0.5,0.5,0.5
	h1C4.8,4.5,5,4.3,5,4C5,3.7,4.8,3.5,4.5,3.5L4.5,3.5z M10.1,4.2L7.3,1.5C6.9,1,6.9,1.8,6.9,1.8v1.7c0,1,1.2,1,1.2,1h1.8
	C10.6,4.6,10.1,4.2,10.1,4.2L10.1,4.2z"/>
</svg>
