<?xml version="1.0" encoding="utf-8"?>
<!-- Generator: Adobe Illustrator 21.0.2, SVG Export Plug-In . SVG Version: 6.00 Build 0)  -->
<svg version="1.1" id="图层_1" xmlns="http://www.w3.org/2000/svg" xmlns:xlink="http://www.w3.org/1999/xlink" x="0px" y="0px"
	 viewBox="0 0 12 12" style="enable-background:new 0 0 12 12;" xml:space="preserve">
<style type="text/css">
	.st0{fill-rule:evenodd;clip-rule:evenodd;fill:#231815;}
</style>
<path class="st0" d="M10.4,7.2C10.3,7.6,10.1,8,9.9,8.3l0,0c0,0,1,1.2,0.4,1.8L10,10.4c-0.5,0.5-1.6-0.3-1.8-0.4
	c-0.3,0.2-0.7,0.3-1.1,0.4l0.1,0c0,0-0.2,1.6-1.1,1.6H5.8c-0.7,0-1-1.5-1.1-1.6C4.4,10.3,4,10.1,3.6,9.9L3.7,10c0,0-1.2,1-1.8,0.4
	l-0.3-0.2C1.2,9.7,2,8.3,2.1,8.2c-0.2-0.3-0.3-0.6-0.4-1C1.5,7.2,0,6.8,0,6.2V5.9c0-0.8,1.4-1,1.6-1.1c0.1-0.4,0.2-0.7,0.4-1
	C2,3.8,1.1,2.4,1.6,1.9l0.3-0.2C2.4,1.1,3.6,2,3.8,2.1c0.3-0.2,0.6-0.3,1-0.4C4.8,1.4,5.2,0,5.8,0h0.3c0.7,0,1,1.3,1.1,1.7
	c0.4,0.1,0.7,0.3,1,0.4C8.4,2,9.7,1.2,10.1,1.7L10.4,2c0.5,0.5-0.3,1.6-0.4,1.8c0.2,0.3,0.3,0.7,0.4,1v0c0,0,1.6,0.2,1.6,1.1v0.3
	C12,6.8,10.7,7.2,10.4,7.2L10.4,7.2z M6,4c-1.1,0-2,0.9-2,2c0,1.1,0.9,2.1,2,2.1c1.1,0,2.1-0.9,2.1-2.1C8.1,4.9,7.1,4,6,4L6,4z"/>
</svg>
