<?xml version="1.0" encoding="utf-8"?>
<!-- Generator: Adobe Illustrator 21.0.2, SVG Export Plug-In . SVG Version: 6.00 Build 0)  -->
<svg version="1.1" id="图层_1" xmlns="http://www.w3.org/2000/svg" xmlns:xlink="http://www.w3.org/1999/xlink" x="0px" y="0px"
	 viewBox="0 0 12 12" style="enable-background:new 0 0 12 12;" xml:space="preserve">
<style type="text/css">
	.st0{fill-rule:evenodd;clip-rule:evenodd;fill:#231815;}
</style>
<path class="st0" d="M11,11H1c-0.3,0-1-0.7-1-1V2c0-0.3,0.7-1,1-1h10c0.3,0,1,0.7,1,1v8C12,10.3,11.3,11,11,11L11,11z M11,2H1v8h10
	V2L11,2z M7,6.8l1-3.9L10,9H2l3-3L7,6.8L7,6.8z M4,5C3.5,5,3,4.6,3,4c0-0.6,0.5-1,1-1c0.6,0,1,0.5,1,1C5.1,4.6,4.6,5,4,5L4,5z"/>
</svg>
