<?xml version="1.0" encoding="utf-8"?>
<!-- Generator: Adobe Illustrator 21.0.2, SVG Export Plug-In . SVG Version: 6.00 Build 0)  -->
<svg version="1.1" id="图层_1" xmlns="http://www.w3.org/2000/svg" xmlns:xlink="http://www.w3.org/1999/xlink" x="0px" y="0px"
	 viewBox="0 0 12 12" style="enable-background:new 0 0 12 12;" xml:space="preserve">
<style type="text/css">
	.st0{fill:#231815;}
</style>
<path class="st0" d="M5,10.9H1c-0.6,0-1-0.4-1-1V2.1c0-0.6,0.4-1,1-1H5c0.6,0,1,0.4,1,1v7.8C6,10.5,5.5,10.9,5,10.9L5,10.9z M11,5H8
	C7.5,5,7,4.6,7,4V2.1c0-0.6,0.4-1,1-1H11c0.6,0,1,0.4,1,1V4C12,4.6,11.5,5,11,5L11,5z M11,10.9H8c-0.6,0-1-0.4-1-1V6.5
	c0-0.6,0.4-0.6,1-0.6H11c0.6,0,1,0.4,1,1v3C12,10.5,11.5,10.9,11,10.9L11,10.9z"/>
</svg>
