<?xml version="1.0" encoding="utf-8"?>
<!-- Generated by IcoMoon.io -->
<!DOCTYPE svg PUBLIC "-//W3C//DTD SVG 1.1//EN" "http://www.w3.org/Graphics/SVG/1.1/DTD/svg11.dtd">
<svg version="1.1" xmlns="http://www.w3.org/2000/svg" xmlns:xlink="http://www.w3.org/1999/xlink" width="32" height="32" viewBox="0 0 32 32">
<path d="M24.875 16l-2.125-3.188c-0.188-0.188-0.375-0.375-0.688-0.375-0.375 0-0.563 0.188-0.75 0.375l-1.938 4.063-2.125-7.438c-0.188-0.188-0.375-0.563-0.688-0.563-0.375 0-0.75 0.188-0.938 0.563l-3 8.875-2.125-5.313c-0.188-0.375-0.375-0.563-0.75-0.563-0.313 0-0.5 0.188-0.688 0.375l-1.75 3.188h-5.563v-8.875c0-2 1.625-3.563 3.563-3.563h21.375c1.938 0 3.563 1.563 3.563 3.563v8.875zM7.313 17.75c0.313 0 0.875 0 1.063-0.313l1.375-2.5 2.313 5.875c0 0.313 0.375 0.5 0.75 0.5 0.313 0 0.688-0.188 0.688-0.5l2.875-8.375 1.938 6.75c0 0.375 0.375 0.563 0.688 0.563 0.375 0 0.75-0.188 0.75-0.375l2.125-4.438 1.25 2.5c0.188 0.313 1.438 0.313 1.75 0.313h5.375v5.375c0 1.938-1.625 3.563-3.563 3.563h-21.375c-1.938 0-3.563-1.625-3.563-3.563v-5.375z"></path>
</svg>
