<?xml version="1.0" encoding="utf-8"?>
<!-- Generator: Adobe Illustrator 21.1.0, SVG Export Plug-In . SVG Version: 6.00 Build 0)  -->
<svg version="1.1" id="图层_1" xmlns="http://www.w3.org/2000/svg" xmlns:xlink="http://www.w3.org/1999/xlink" x="0px" y="0px"
	 viewBox="0 0 20 20" style="enable-background:new 0 0 20 20;" xml:space="preserve">
<style type="text/css">
	.st0{fill:#8A8A8A;}
</style>
<path class="st0" d="M2.5,13C1.1,13,0,11.9,0,10.5C0,9.1,1.1,8,2.5,8C3.9,8,5,9.1,5,10.5C5,11.9,3.9,13,2.5,13L2.5,13z M9.5,13
	C8.1,13,7,11.9,7,10.5C7,9.1,8.1,8,9.5,8c1.4,0,2.5,1.1,2.5,2.5C12,11.9,10.9,13,9.5,13L9.5,13z M16.5,13c-1.4,0-2.5-1.1-2.5-2.5
	C14,9.1,15.1,8,16.5,8S19,9.1,19,10.5C19,11.9,17.9,13,16.5,13L16.5,13z"/>
</svg>
