<?xml version="1.0" encoding="utf-8"?>
<!-- Generated by IcoMoon.io -->
<!DOCTYPE svg PUBLIC "-//W3C//DTD SVG 1.1//EN" "http://www.w3.org/Graphics/SVG/1.1/DTD/svg11.dtd">
<svg version="1.1" xmlns="http://www.w3.org/2000/svg" xmlns:xlink="http://www.w3.org/1999/xlink" width="32" height="32" viewBox="0 0 32 32">
<path d="M7.188 8c-1.125 0.188-6.875 2.25-2.063 13.438 0.313 0.625 0.5 0 1.625-0.188 1.438-0.313 2.875-0.438 4.125-0.438 0.5 0 1.125 0 1.313-0.313-0.188-2.75 0.438-3.688 0.625-5 0.313-3.188-1-5.125-2.563-6.563-1.125-1.125-1.938-0.938-3.063-0.938zM6.375 24.625c0.5 2.563 1.125 4.625 1.625 5 1.75 1.563 4.313 0.313 4.813-1 0.313-1.125-0.188-2.875-0.313-4.625-1.125 0.5-4.5 0.938-6.125 0.625zM23.188 1.625c-1.125-0.188-1.938-0.188-3 0.75-1.625 1.438-2.938 3.375-2.563 6.563 0.125 1.313 0.75 2.25 0.625 5.125 0.125 0.313 0.813 0.313 1.25 0.313 1.313 0 2.75 0 4.188 0.5 0.938 0.188 1.25 0.813 1.563 0.188 5-11.25-0.938-13.313-2.063-13.438zM18.063 17.625c-0.125 1.75-0.625 3.5-0.313 4.625 0.5 1.25 2.875 2.563 4.813 0.938 0.313-0.313 1.125-2.25 1.625-4.938-1.813 0.313-5.125-0.188-6.125-0.625z"></path>
</svg>
