<?xml version="1.0" encoding="utf-8"?>
<!-- Generator: Adobe Illustrator 21.0.2, SVG Export Plug-In . SVG Version: 6.00 Build 0)  -->
<svg version="1.1" id="图层_1" xmlns="http://www.w3.org/2000/svg" xmlns:xlink="http://www.w3.org/1999/xlink" x="0px" y="0px"
	 viewBox="0 0 6 14" style="enable-background:new 0 0 6 14;" xml:space="preserve">
<style type="text/css">
	.st0{fill:#BBBBBB;}
</style>
<path class="st0" d="M0,2V0h2v2H0L0,2z M4,2V0h2v2H4L4,2z M0,6V4h2v2H0L0,6z M4,6V4h2v2H4L4,6z M0,10V8h2v2H0L0,10z M4,10V8h2v2H4
	L4,10z M0,14v-2h2v2H0L0,14z M4,14v-2h2v2H4L4,14z"/>
</svg>
