<?xml version="1.0" standalone="no"?><!DOCTYPE svg PUBLIC "-//W3C//DTD SVG 1.1//EN" "http://www.w3.org/Graphics/SVG/1.1/DTD/svg11.dtd"><svg t="1515638650999" class="icon" style="" viewBox="0 0 1024 1024" version="1.1" xmlns="http://www.w3.org/2000/svg" p-id="5978" xmlns:xlink="http://www.w3.org/1999/xlink"><defs><style type="text/css"></style></defs><path d="M633.594756 960.00276H326.408004S192.013799 985.601656 192.013799 825.608556V134.438362S192.013799 0.044158 320.00828 0.044158h307.186752S767.98896-6.355566 767.98896 134.438362V832.00828c0-6.399724 0 127.99448-134.394204 127.99448z m-153.593376-57.597516c19.199172 0 31.99862-12.799448 31.99862-31.99862 0-25.598896-12.799448-38.398344-31.99862-38.398344s-31.99862 12.799448-31.99862 31.99862c-6.399724 19.199172 12.799448 38.398344 31.99862 38.398344zM575.99724 64.041398H384.00552v63.99724h191.99172V64.041398z m127.99448 127.99448H256.01104v575.975162h447.98068V192.035878z" p-id="5979"></path></svg>