<?xml version="1.0" encoding="utf-8"?>
<!-- Generated by IcoMoon.io -->
<!DOCTYPE svg PUBLIC "-//W3C//DTD SVG 1.1//EN" "http://www.w3.org/Graphics/SVG/1.1/DTD/svg11.dtd">
<svg version="1.1" xmlns="http://www.w3.org/2000/svg" xmlns:xlink="http://www.w3.org/1999/xlink" width="32" height="32" viewBox="0 0 32 32">
<path d="M24.813 13.625c-1.063-1.063-2.688-1.375-4.25-0.813l-5.625-5.625c1.063-1.063 1.063-2.625 0-3.75-1.063-1.063-2.688-1.063-3.5 0l-5.313 5.625c-1.063 1.063-1.063 2.688 0 3.75s2.688 1.063 3.5 0l5.563 5.875c-0.5 1.313-0.5 2.938 0.813 4.25 1.625 1.625 4 1.625 5.313 0l3.5-3.75c1.563-1.563 1.563-4 0-5.563zM24 20l-1.875 1.875 7.188 7.438v-3.688z"></path>
</svg>
