<?xml version="1.0" encoding="utf-8"?>
<!-- Generator: Adobe Illustrator 21.0.2, SVG Export Plug-In . SVG Version: 6.00 Build 0)  -->
<svg version="1.1" id="图层_1" xmlns="http://www.w3.org/2000/svg" xmlns:xlink="http://www.w3.org/1999/xlink" x="0px" y="0px"
	 viewBox="0 0 12 12" style="enable-background:new 0 0 12 12;" xml:space="preserve">
<style type="text/css">
	.st0{fill-rule:evenodd;clip-rule:evenodd;fill:#AAAAAA;}
</style>
<path class="st0" d="M10,6V3L6,7L5,6l4-4H6V1h5v5H10L10,6z M1,4v5c0,0.6,0.4,1,1,1h6c0.6,0,1-0.4,1-1V7h1v2c0,1.1-0.9,2-2,2H2
	c-1.1,0-2-0.9-2-2V4c0-1.1,0.9-2,2-2h3v1H2C1.4,3,1,3.4,1,4L1,4z"/>
</svg>
