<?xml version="1.0" encoding="utf-8"?>
<!-- Generated by IcoMoon.io -->
<!DOCTYPE svg PUBLIC "-//W3C//DTD SVG 1.1//EN" "http://www.w3.org/Graphics/SVG/1.1/DTD/svg11.dtd">
<svg version="1.1" xmlns="http://www.w3.org/2000/svg" xmlns:xlink="http://www.w3.org/1999/xlink" width="32" height="32" viewBox="0 0 32 32">
<path d="M18.313 18.688l-6.25 1.25 1.25-6.25 11.375-11.375 5 5zM14.063 14.563l-0.938 4.125 4.313-0.75zM3.563 7.125v16c0 1.063 0.688 1.75 1.75 1.75h17.813c1.063 0 1.75-0.688 1.75-1.75v-7.125h1.813v8.875c0 1.063-0.75 1.813-1.813 1.813h-21.313c-1.063 0-1.813-0.75-1.813-1.813v-19.563c0-1.063 0.75-1.75 1.813-1.75h14.188v1.75h-12.438c-1.063 0-1.75 0.75-1.75 1.813z"></path>
</svg>
