<?xml version="1.0" encoding="utf-8"?>
<!-- Generator: Adobe Illustrator 21.0.2, SVG Export Plug-In . SVG Version: 6.00 Build 0)  -->
<svg version="1.1" id="图层_1" xmlns="http://www.w3.org/2000/svg" xmlns:xlink="http://www.w3.org/1999/xlink" x="0px" y="0px"
	 viewBox="0 0 12 12" style="enable-background:new 0 0 12 12;" xml:space="preserve">
<style type="text/css">
	.st0{fill-rule:evenodd;clip-rule:evenodd;fill:#666666;}
</style>
<g>
	<path class="st0" d="M10,1H1C0.4,1,0,1.4,0,2v9c0,0.6,0.4,1,1,1h6v-1H2c-0.6,0-1-0.4-1-1V3c0-0.6,0.4-1,1-1h7c0.6,0,1,0.4,1,1v4h1
		V2C11,1.4,10.6,1,10,1z"/>
	<path class="st0" d="M8.7,8.3c0,0-0.1-0.1-0.1-0.1C8.8,7.7,9,7.1,9,6.5C9,4.6,7.4,3,5.5,3S2,4.6,2,6.5C2,8.4,3.6,10,5.5,10
		c0.6,0,1.2-0.2,1.7-0.5c0,0,0,0.1,0.1,0.1l2.1,2.1c0.4,0.4,1,0.4,1.4,0c0.4-0.4,0.4-1,0-1.4L8.7,8.3z M5.5,9C4.1,9,3,7.9,3,6.5
		S4.1,4,5.5,4C6.9,4,8,5.1,8,6.5S6.9,9,5.5,9z"/>
</g>
</svg>
