<?xml version="1.0" encoding="utf-8"?>
<!-- Generator: Adobe Illustrator 21.0.0, SVG Export Plug-In . SVG Version: 6.00 Build 0)  -->
<svg version="1.1" id="图层_1" xmlns="http://www.w3.org/2000/svg" xmlns:xlink="http://www.w3.org/1999/xlink" x="0px" y="0px"
	 viewBox="0 0 20 20" style="enable-background:new 0 0 20 20;" xml:space="preserve">
<path d="M18,12.8c0,1.4-1.4,1.4-1.4,1.4L5.8,14.1L6,15.4h10c1.1,0,1.1,2.2,0,2.2h-1.3c0.5,0.1,0.8,0.6,0.8,1.2
	c0,0.7-0.6,1.2-1.2,1.2c-0.7,0-1.2-0.6-1.2-1.2c0-0.5,0.2-0.9,0.7-1.2H7.6c0.6,0.2,0.9,0.7,0.9,1.2C8.6,19.5,8,20,7.4,20
	c-0.7,0-1.2-0.6-1.2-1.2s0.4-0.9,0.8-1.1H5.4c-0.4,0-1.3-1.1-1.3-1.9C4,15.5,2.7,3.7,2.7,3.7H0.4c0-2.2,1.9-2.3,1.9-2.3
	c2.3,0,2.5,2.1,2.5,2.1l0.2,0.2h10.7c2.5,0,2.3,2.5,2.3,2.5V12.8L18,12.8z M7.4,6C6.7,6,6.2,6.5,6.2,7.2s0.5,1.2,1.2,1.2
	s1.2-0.5,1.2-1.2S8.1,6,7.4,6L7.4,6z M7.4,9.6c-0.7,0-1.2,0.5-1.2,1.2c0,0.7,0.5,1.2,1.2,1.2s1.2-0.5,1.2-1.2
	C8.6,10,8.1,9.6,7.4,9.6L7.4,9.6z M10.9,6c-0.7,0-1.2,0.5-1.2,1.2s0.5,1.2,1.2,1.2s1.2-0.5,1.2-1.2S11.6,6,10.9,6L10.9,6z M10.9,9.6
	c-0.7,0-1.2,0.5-1.2,1.2c0,0.7,0.5,1.2,1.2,1.2s1.2-0.5,1.2-1.2C12.1,10,11.6,9.6,10.9,9.6L10.9,9.6z M14.5,6
	c-0.7,0-1.2,0.5-1.2,1.2s0.5,1.2,1.2,1.2s1.2-0.5,1.2-1.2S15.2,6,14.5,6L14.5,6z M14.5,9.6c-0.7,0-1.2,0.5-1.2,1.2
	c0,0.7,0.5,1.2,1.2,1.2s1.2-0.5,1.2-1.2C15.6,10,15.2,9.6,14.5,9.6L14.5,9.6z"/>
</svg>
