<?xml version="1.0" encoding="utf-8"?>
<!-- Generator: Adobe Illustrator 21.0.0, SVG Export Plug-In . SVG Version: 6.00 Build 0)  -->
<svg version="1.1" id="图层_1" xmlns="http://www.w3.org/2000/svg" xmlns:xlink="http://www.w3.org/1999/xlink" x="0px" y="0px"
	 viewBox="0 0 12.1 13.2" style="enable-background:new 0 0 12.1 13.2;" xml:space="preserve">
<style type="text/css">
	.st0{fill:#AAAAAA;}
</style>
<path class="st0" d="M6,13.1c-2.5,0-4.1-1.6-4.1-1.6l-1.1,1.4c0,0-0.7,0.7-0.7,0l0-4.4c0,0-0.1-0.5,0.4-0.4l4.3,0c0,0,0.8,0,0.1,0.7
	l-1.6,1.3c0.1-0.1,0.5,1,2.8,1c2.5,0,4-1.9,4-4.4c0-0.7,1-0.7,1-0.7c1,0,1,0.7,1,0.7C12,10.3,9.5,13.1,6,13.1L6,13.1z M11.6,5.1
	l-4.3,0c0,0-0.8,0-0.1-0.7l1.6-1.3c-0.1,0.1-0.5-1-2.8-1c-2.5,0-4,1.9-4,4.4c0,0.7-1,0.7-1,0.7c-1,0-1-0.7-1-0.7
	c0-3.5,2.5-6.3,6-6.3c2.5,0,4.1,1.6,4.1,1.6l1.1-1.4c0,0,0.7-0.7,0.7,0l0,4.4C12,4.7,12.2,5.2,11.6,5.1L11.6,5.1z"/>
</svg>
