<?xml version="1.0" encoding="utf-8"?>
<!-- Generated by IcoMoon.io -->
<!DOCTYPE svg PUBLIC "-//W3C//DTD SVG 1.1//EN" "http://www.w3.org/Graphics/SVG/1.1/DTD/svg11.dtd">
<svg version="1.1" xmlns="http://www.w3.org/2000/svg" xmlns:xlink="http://www.w3.org/1999/xlink" width="32" height="32" viewBox="0 0 32 32">
<path d="M28.625 25.625l-1.25 1.25c-1.063 1.063-2.688 1.563-4.25 1.563-3.938 0-7.125-3.188-7.125-7.125 0-1.563 0.563-3.188 1.625-4.25l1.25-1.25c1.063-1.063 2.625-1.563 4.25-1.563 3.875 0 7.125 3.188 7.125 7.063 0 1.625-0.563 3.25-1.625 4.313zM17.75 21.313c0 3.063 2.313 5.375 5.375 5.375 1.063 0 2.125-0.375 3-1.063l-7.438-7.5c-0.563 1.063-0.938 2.125-0.938 3.188zM23.125 16c-1.063 0-2.125 0.375-3.063 1.063l7.5 7.5c0.5-0.938 1.063-2 1.063-3.063-0.188-3.188-2.5-5.5-5.5-5.5zM19.938 12.25c-0.188 0.375-0.375 0.875-0.563 1.063-3 1.438-5.125 4.438-5.125 8 0 2 0.688 3.75 1.563 5.188h-14.063c0 0 0-3.375 0.75-4.125 0.688-0.688 1.563-2.125 5.688-2.625 4.063-0.75 4.25-2.875 4.25-2.875 0-0.688 0-1.938 0-1.938s-1.563-0.875-2.313-2.688c-1.25-0.5-1.063-0.875-1.25-1.563 0 0 0.188-2.875 1.063-2.688 0 0 0.75 0 0.563-0.688 0-1.063 0-1.25 0-2 0.188-0.688 0.375-2.625 1.938-3 1.438-0.375 0.375-0.188 0.875-0.188 0.375 0-0.313-0.375 0.563-0.375l1.438-0.313c0.875 0 1.563 1.25 1.938 1.438 0.5 0 0.188-0.188 1.25 0 1.438 0.313 1.063 2.25 1.063 3 0 0.688 0.188 0.875 0 1.563-0.188 0.75 1.063 0.563 1.063 0.563 1.063 0 0.5 2.688 0.5 2.688 0 0.875-0.313 0.875-1.188 1.563z"></path>
</svg>
