<?xml version="1.0" encoding="utf-8"?>
<!-- Generated by IcoMoon.io -->
<!DOCTYPE svg PUBLIC "-//W3C//DTD SVG 1.1//EN" "http://www.w3.org/Graphics/SVG/1.1/DTD/svg11.dtd">
<svg version="1.1" xmlns="http://www.w3.org/2000/svg" xmlns:xlink="http://www.w3.org/1999/xlink" width="32" height="32" viewBox="0 0 32 32">
<path d="M29.5 22.75h-3.938v-1.438h2.438c2.125 0 2.563-0.313 2.563-2.5v-5.688c0-2-0.688-2.375-2.563-2.438h-2.438v-1.438h3.938c1.375 0 2.5 1.125 2.5 2.5v8.5c0 1.375-1.125 2.5-2.5 2.5zM25.563 8.5h-0.688v15.688h2.125v1.438h-5.688v-1.438h2.125v-15.688h-0.688v0.063h-1.438v-1.438h5.688v1.438h-1.438zM2.125 18v-4c0-2.25 0.25-2.625 2.563-2.625h16.625v9.25h-16.625c-2.375 0-2.563-0.438-2.563-2.625zM22.75 10.688h-18.75c-2.125 0-2.5 0.438-2.563 2.438v5.688c0 2.188 0.25 2.5 2.563 2.5h18.75v1.438h-20.25c-1.375 0-2.5-1.125-2.5-2.5v-8.5c0-1.375 1.125-2.5 2.5-2.5h20.25z"></path>
</svg>
