<?xml version="1.0" encoding="utf-8"?>
<!-- Generated by IcoMoon.io -->
<!DOCTYPE svg PUBLIC "-//W3C//DTD SVG 1.1//EN" "http://www.w3.org/Graphics/SVG/1.1/DTD/svg11.dtd">
<svg version="1.1" xmlns="http://www.w3.org/2000/svg" xmlns:xlink="http://www.w3.org/1999/xlink" width="32" height="32" viewBox="0 0 32 32">
<path d="M23.813 0.438c-0.438 0-0.875 0.125-1.188 0.375-0.125 0.063-0.188 0.125-0.25 0.188l-16.875 13.375c-0.125 0.063-0.25 0.125-0.313 0.25-0.375 0.375-0.625 0.813-0.625 1.375s0.25 1 0.625 1.375c0.063 0.125 0.188 0.188 0.313 0.313l16.938 13.313 0.125 0.125c0.375 0.25 0.813 0.438 1.25 0.438 1.188 0 2.125-0.875 2.125-2v-27.125c0-1.125-0.938-2-2.125-2z"></path>
</svg>
