<?xml version="1.0" encoding="utf-8"?>
<!-- Generated by IcoMoon.io -->
<!DOCTYPE svg PUBLIC "-//W3C//DTD SVG 1.1//EN" "http://www.w3.org/Graphics/SVG/1.1/DTD/svg11.dtd">
<svg version="1.1" xmlns="http://www.w3.org/2000/svg" xmlns:xlink="http://www.w3.org/1999/xlink" width="32" height="32" viewBox="0 0 32 32">
<path d="M25.625 7.188c-1.25 0-2.438 0.438-3.438 1-1-2-2.813-3.375-5-3.375-1.563 0-2.813 0.563-4 1.813-1-1.625-2.813-2.625-4.563-2.625-3.438 0-6.25 3-6.25 6.625 0 0.563 0 1.188 0.25 1.75-1.625 1-2.625 2.813-2.625 4.625 0 3 2.813 5.625 6.188 5.625 0.188 0 0.188 0 0.438 0 0.75 2 2.75 3.563 5.375 3.563 2.375 0 4.625-1.563 5.375-3.813 0.813 0.438 1.438 0.625 2.438 0.625 1.813 0 3.563-1 4.375-2.625 0.625 0.25 1 0.25 1.625 0.25 3.375 0 6.375-3 6.375-6.625s-3-6.813-6.563-6.813z"></path>
</svg>
