<?xml version="1.0" encoding="utf-8"?>
<!-- Generated by IcoMoon.io -->
<!DOCTYPE svg PUBLIC "-//W3C//DTD SVG 1.1//EN" "http://www.w3.org/Graphics/SVG/1.1/DTD/svg11.dtd">
<svg version="1.1" xmlns="http://www.w3.org/2000/svg" xmlns:xlink="http://www.w3.org/1999/xlink" width="32" height="32" viewBox="0 0 32 32">
<path d="M5.188 12.813c-3.375-3.438-2-6.438 0-8.438s5-3.375 8.813 0.25c3.813 3.75 11.625 11.563 13.813 13.75 2.188 2.25 1.813 6.625-1.438 9.813-3.188 3.188-7.188 4-9.75 1.438-2.625-2.625-8.813-8.813-9.813-9.813-1.438-1 0-2.438 1.188-1.438 1 1 8 8 9.813 9.813s5 0.625 7-1.375c2-2 2.563-5.813 1.375-7s-12-12-14.188-14.188c-2-2-3.813-1.813-5.625 0-1.75 1.75-2 3.563 0 5.563s7.813 7.813 9.813 9.813c1 1 1.813 1 2.813 0s0.813-2.188 0-2.813c-2-2.188-4.188-4.188-5.375-5.375-1.25-1.188 0.188-2.625 1.375-1.438 1.188 1.25 1.813 1.813 5.625 5.625 2.188 2.188 2 3.813 0 5.625-1.813 2-3.813 1.75-5.625 0-4.188-4.25-6.375-6.438-9.813-9.813z"></path>
</svg>
