<?xml version="1.0" encoding="utf-8"?>
<!-- Generated by IcoMoon.io -->
<!DOCTYPE svg PUBLIC "-//W3C//DTD SVG 1.1//EN" "http://www.w3.org/Graphics/SVG/1.1/DTD/svg11.dtd">
<svg version="1.1" xmlns="http://www.w3.org/2000/svg" xmlns:xlink="http://www.w3.org/1999/xlink" width="32" height="32" viewBox="0 0 32 32">
<path d="M18 18.813l12-10.813c0-2-2-2-2-2h-26c-2 0-2 2-2 2l12 10.813c3.188 2.188 6 0 6 0zM24 16l4.188 10-6-8-3.813 3.188c-2.375 2-6.563 0-6.563 0l-4-3.188-5.813 7.625 4-9.625-6-6v16c0 1.813 2 2 2 2h25.813c2 0 2.188-1.813 2.188-1.813v-16.188z"></path>
</svg>
