<?xml version="1.0" encoding="utf-8"?>
<!-- Generated by IcoMoon.io -->
<!DOCTYPE svg PUBLIC "-//W3C//DTD SVG 1.1//EN" "http://www.w3.org/Graphics/SVG/1.1/DTD/svg11.dtd">
<svg version="1.1" xmlns="http://www.w3.org/2000/svg" xmlns:xlink="http://www.w3.org/1999/xlink" width="32" height="32" viewBox="0 0 32 32">
<path fill="#8e8e8e" d="M25.838 24.248c-0.199 0.398-0.398 0.795-0.596 1.193v0c0 0 1.193 1.59 0.596 2.186l-0.398 0.398c-0.596 0.596-1.988-0.596-2.186-0.596-0.398 0.199-0.795 0.398-1.193 0.596h0.199c0 0-0.199 1.789-1.193 1.789h-0.398c-0.795 0-1.193-1.789-1.193-1.988-0.398-0.199-0.994-0.398-1.391-0.596l0.199 0.199c0 0-1.391 1.193-2.186 0.596l-0.199-0.398c-0.596-0.596 0.596-2.385 0.596-2.385-0.199-0.398-0.398-0.596-0.398-0.994 0 0-1.789-0.398-1.789-1.193v-0.398c0-0.795 1.59-0.994 1.59-0.994 0.199-0.398 0.199-0.795 0.398-1.193v0c0 0-0.994-1.59-0.398-2.186l0.398-0.199c0.596-0.596 1.988 0.398 2.186 0.596 0.398-0.199 0.795-0.398 1.193-0.398 0-0.199 0.398-1.789 1.193-1.789h0.398c0.795 0 1.193 1.391 1.193 1.789 0.398 0.199 0.795 0.199 1.193 0.398 0.199-0.199 1.789-1.193 2.186-0.596l0.398 0.398c0.596 0.596-0.398 1.988-0.596 2.186 0.199 0.398 0.398 0.795 0.596 1.193v-0.199c0 0 1.988 0.199 1.988 1.193v0.398c-0.398 0.596-2.186 0.994-2.385 0.994v0zM21.068 19.876c-1.789 0-3.18 1.391-3.18 3.18 0 1.59 1.391 2.981 2.981 2.981s3.18-1.391 3.18-2.981c0-1.789-1.391-3.18-2.981-3.18v0zM15.702 10.932c-0.199 0.596-0.398 0.994-0.795 1.59v0c0 0 1.59 1.789 0.596 2.783l-0.398 0.398c-0.596 0.596-2.385-0.398-2.783-0.795-0.398 0.398-0.994 0.596-1.59 0.795h0.199c0 0-0.398 2.385-1.59 2.385h-0.596c-0.994 0-1.59-2.186-1.59-2.584-0.596 0-1.193-0.398-1.59-0.596l0.199 0.199c0 0-1.988 1.59-2.783 0.596l-0.596-0.398c-0.596-0.795 0.596-2.783 0.795-2.981-0.397-0.398-0.596-0.994-0.795-1.391-0.199-0.199-2.385-0.596-2.385-1.59v-0.596c0-1.193 1.988-1.59 2.385-1.59 0.199-0.596 0.397-0.994 0.596-1.59 0-0.199-1.391-2.186-0.795-2.981l0.397-0.397c0.795-0.795 2.584 0.397 2.783 0.596 0.397-0.199 0.994-0.596 1.59-0.596 0.397-0.199 0.994-2.186 1.789-2.186h0.398c1.193 0 1.59 1.988 1.59 2.385 0.596 0.199 1.193 0.397 1.59 0.596 0.398-0.199 2.186-1.391 2.783-0.596l0.398 0.397c0.795 0.795-0.398 2.385-0.596 2.783 0.199 0.397 0.596 0.994 0.596 1.59v0c0 0 2.385 0.397 2.385 1.59v0.398c0.199 0.994-1.789 1.59-2.186 1.789v0zM8.944 5.764c-1.789 0-3.18 1.391-3.18 3.18s1.391 3.379 3.18 3.379c1.789 0 3.379-1.59 3.379-3.379s-1.59-3.18-3.379-3.18v0z"></path>
</svg>
