<?xml version="1.0" encoding="utf-8"?>
<!-- Generator: Adobe Illustrator 21.1.0, SVG Export Plug-In . SVG Version: 6.00 Build 0)  -->
<svg version="1.1" id="图层_1" xmlns="http://www.w3.org/2000/svg" xmlns:xlink="http://www.w3.org/1999/xlink" x="0px" y="0px"
	 viewBox="0 0 175.8 175.8" style="enable-background:new 0 0 175.8 175.8;" xml:space="preserve">
<path d="M87.9,175.8c49.2,0,87.9-38.7,87.9-87.9S137.1,0,87.9,0S0,38.7,0,87.9S38.7,175.8,87.9,175.8z M87.9,15.8
	c38.7,0,72.1,31.6,72.1,72.1S126.6,160,87.9,160s-72.1-33.4-72.1-72.1S49.2,15.8,87.9,15.8z M44,54.5C44,49.2,49.3,44,54.5,44
	S65,49.3,65,54.5s-3.5,12.3-10.5,12.3S44,61.5,44,54.5z M109,54.5c0-5.3,5.3-10.5,10.5-10.5c5.2,0,10.5,5.3,10.5,10.5
	s-3.5,12.3-8.8,12.3C114.3,66.8,109,61.5,109,54.5z M121.3,107.2l14.1,8.8c-10.5,15.8-28.1,26.4-47.5,26.4S51,131.9,40.4,116
	l14.1-8.8c7,12.3,19.3,19.3,33.4,19.3S114.3,119.5,121.3,107.2z"/>
</svg>
