<?xml version="1.0" encoding="utf-8"?>
<!-- Generated by IcoMoon.io -->
<!DOCTYPE svg PUBLIC "-//W3C//DTD SVG 1.1//EN" "http://www.w3.org/Graphics/SVG/1.1/DTD/svg11.dtd">
<svg version="1.1" xmlns="http://www.w3.org/2000/svg" xmlns:xlink="http://www.w3.org/1999/xlink" width="32" height="32" viewBox="0 0 32 32">
<path d="M16 32c-8.813 0-16-7.188-16-16s7.188-16 16-16c8.813 0 16 7.188 16 16s-7.188 16-16 16zM16 3.813c-6.625 0-12.188 5.375-12.188 12.188s5.375 12.188 12.188 12.188c6.813 0 12.188-5.375 12.188-12.188s-5.375-12.188-12.188-12.188zM19.375 17.625l-4 4c-0.75 0.75-1.75 0.75-2.563 0l-4.188-4.625c-0.813-0.813-0.813-2 0-2.625 0.75-0.75 2-1 2.75-0.188l2.813 2.813 6.438-6.625c0.75-0.75 2-0.563 2.75 0.25 0.813 0.75 0.813 2 0 2.75z"></path>
</svg>
