<?xml version="1.0" encoding="utf-8"?>
<!-- Generated by IcoMoon.io -->
<!DOCTYPE svg PUBLIC "-//W3C//DTD SVG 1.1//EN" "http://www.w3.org/Graphics/SVG/1.1/DTD/svg11.dtd">
<svg version="1.1" xmlns="http://www.w3.org/2000/svg" xmlns:xlink="http://www.w3.org/1999/xlink" width="32" height="32" viewBox="0 0 32 32">
<path d="M16 0c-8.813 0-16 7.188-16 16s7.188 16 16 16c8.813 0 16-7.188 16-16s-7.188-16-16-16zM16 28.188c-6.813 0-12.188-5.375-12.188-12.188s5.563-12.188 12.188-12.188c6.813 0 12.188 5.375 12.188 12.188s-5.375 12.188-12.188 12.188zM22 14h-4v-6c0-1.188-0.813-2-2-2s-2 0.813-2 2v8c0 1.188 0.813 2 2 2h6c1.188 0 2-0.813 2-2s-0.813-2-2-2z"></path>
</svg>
