<?xml version="1.0" encoding="utf-8"?>
<!-- Generator: Adobe Illustrator 21.1.0, SVG Export Plug-In . SVG Version: 6.00 Build 0)  -->
<svg version="1.1" id="图层_1" xmlns="http://www.w3.org/2000/svg" xmlns:xlink="http://www.w3.org/1999/xlink" x="0px" y="0px"
	 viewBox="0 0 33 34" style="enable-background:new 0 0 33 34;" xml:space="preserve">
<style type="text/css">
	.st0{fill-rule:evenodd;clip-rule:evenodd;fill:#428E42;}
	.st1{fill:#FFFFFF;}
</style>
<path class="st0" d="M28.2,4.9c6.4,6.6,6.4,17.4-0.1,24c-6.5,6.7-16.9,6.7-23.4,0.1c-6.4-6.6-6.4-17.4,0.1-24
	C11.4-1.6,21.8-1.7,28.2,4.9L28.2,4.9z"/>
<path class="st1" d="M27.1,10.3c-0.5-0.6-1.4-0.6-2,0L13.3,22.4l-4.7-4.8c-0.5-0.6-1.4-0.6-2,0c-0.5,0.6-0.5,1.5,0,2l6.6,6.8
	l13.8-14.1C27.6,11.8,27.6,10.9,27.1,10.3z"/>
</svg>
