<?xml version="1.0" encoding="utf-8"?>
<!-- Generator: Adobe Illustrator 21.0.0, SVG Export Plug-In . SVG Version: 6.00 Build 0)  -->
<svg version="1.1" id="图层_1" xmlns="http://www.w3.org/2000/svg" xmlns:xlink="http://www.w3.org/1999/xlink" x="0px" y="0px"
	 viewBox="0 0 18 18" style="enable-background:new 0 0 18 18;" xml:space="preserve">
<style type="text/css">
	.st0{fill:#B6B6B6;}
</style>
<path class="st0" d="M14.2,13.9h-1c0.1-0.3,0.1-0.6-0.1-0.9l-2.7-4l2.7-4c0.2-0.2,0.2-0.6,0.1-0.9h1c0.7,0,1.2-0.6,1.2-1.2
	s-0.6-1.2-1.2-1.2H3.8c-0.7,0-1.2,0.6-1.2,1.2s0.6,1.2,1.2,1.2h1C4.7,4.4,4.7,4.7,4.9,5l2.6,4l-2.6,4c-0.2,0.2-0.2,0.6-0.1,0.9h-1
	c-0.7,0-1.2,0.6-1.2,1.2c0,0.7,0.6,1.2,1.2,1.2h10.4c0.7,0,1.2-0.6,1.2-1.2C15.5,14.5,14.9,13.9,14.2,13.9z M6.6,5.7L6,5
	C5.8,4.8,5.8,4.4,6,4.2H12c0.2,0.2,0.2,0.6,0,0.9l-0.6,0.7H6.6z"/>
</svg>
