<?xml version="1.0" standalone="no"?><!DOCTYPE svg PUBLIC "-//W3C//DTD SVG 1.1//EN" "http://www.w3.org/Graphics/SVG/1.1/DTD/svg11.dtd"><svg t="1512627070519" class="icon" style="" viewBox="0 0 1024 1024" version="1.1" xmlns="http://www.w3.org/2000/svg" p-id="7708" xmlns:xlink="http://www.w3.org/1999/xlink"><defs><style type="text/css"></style></defs><path d="M889.6 512c-6.4-25.6-32-44.8-57.6-51.2V192L620.8 0H134.4C96 0 64 25.6 64 64v768c0 38.4 32 64 70.4 64h236.8c19.2 12.8 70.4 38.4 140.8 70.4l12.8 6.4c51.2 25.6 108.8 51.2 179.2 51.2 32 0 64-6.4 96-19.2 51.2-19.2 89.6-44.8 115.2-83.2 25.6-38.4 38.4-83.2 38.4-121.6 12.8-70.4-64-275.2-64-288zM614.4 44.8l166.4 153.6s38.4 25.6-12.8 25.6H620.8s-32 0-32-32V64s-6.4-51.2 25.6-19.2z m249.6 838.4c-19.2 25.6-44.8 44.8-83.2 57.6-83.2 32-153.6 0-230.4-32l-12.8-6.4c-76.8-38.4-134.4-64-147.2-70.4-12.8-6.4-19.2-12.8-19.2-25.6-6.4-12.8-6.4-19.2 0-32 0 0 0-6.4 6.4-12.8 6.4-12.8 19.2-19.2 38.4-19.2 6.4 0 12.8 0 19.2 6.4l134.4 64-25.6-76.8c-25.6-70.4-51.2-121.6-70.4-153.6-38.4-44.8-64-57.6-83.2-70.4l-19.2-19.2c-6.4-6.4-6.4-19.2-6.4-25.6 0 0 0-6.4 6.4-12.8l12.8-12.8c19.2-6.4 51.2 12.8 89.6 51.2 12.8 12.8 25.6 25.6 38.4 51.2l32 44.8 25.6-51.2s0-6.4 6.4-6.4c0-12.8 12.8-19.2 19.2-19.2 12.8-6.4 25.6 0 32 6.4l25.6 32 25.6-32 6.4-6.4c6.4-6.4 6.4-12.8 12.8-12.8 19.2-6.4 32 0 38.4 12.8l19.2 38.4 32-25.6c6.4 0 6.4-6.4 6.4-6.4 12.8-6.4 25.6 0 32 12.8 25.6 64 70.4 211.2 70.4 256-6.4 44.8-12.8 70.4-32 96z" p-id="7709"></path></svg>