<?xml version="1.0" standalone="no"?><!DOCTYPE svg PUBLIC "-//W3C//DTD SVG 1.1//EN" "http://www.w3.org/Graphics/SVG/1.1/DTD/svg11.dtd"><svg t="1512627451888" class="icon" style="" viewBox="0 0 1024 1024" version="1.1" xmlns="http://www.w3.org/2000/svg" p-id="7924" xmlns:xlink="http://www.w3.org/1999/xlink"><defs><style type="text/css"></style></defs><path d="M915.68768 883.2l-108.8-6.4 6.4 147.2-204.8-185.6-224-32 115.2-128L768.48768 640c70.4 0 128 6.4 128-64V256h19.2c64 0 108.8 51.2 108.8 108.8v416c0 51.2-44.8 102.4-108.8 102.4z m-198.4-288L448.48768 633.6 230.88768 832l6.4-160-115.2 6.4c-64 0-121.6-51.2-121.6-115.2v-448C-5.91232 51.2 51.68768 0 115.68768 0l601.6 76.8c64 0 115.2 51.2 115.2 115.2v288c0 64-51.2 115.2-115.2 115.2z" p-id="7925"></path></svg>