<?xml version="1.0" standalone="no"?><!DOCTYPE svg PUBLIC "-//W3C//DTD SVG 1.1//EN" "http://www.w3.org/Graphics/SVG/1.1/DTD/svg11.dtd"><svg t="1512627024852" class="icon" style="" viewBox="0 0 1025 1024" version="1.1" xmlns="http://www.w3.org/2000/svg" p-id="7600" xmlns:xlink="http://www.w3.org/1999/xlink"><defs><style type="text/css"></style></defs><path d="M992 896H32c-44.8-44.8-32-102.4 0-166.4l396.8-633.6c44.8-44.8 121.6-44.8 166.4 0l390.4 633.6c44.8 64 57.6 121.6 6.4 166.4zM512 832c32 0 64-32 64-64 0-38.4-25.6-64-64-64-32 0-64 25.6-64 64s32 64 64 64z m64-512c0-38.4-25.6-64-64-64-32 0-64 25.6-64 64v262.4c0 32 25.6 57.6 57.6 57.6 38.4 0 70.4-25.6 70.4-57.6V320z" p-id="7601"></path></svg>