<?xml version="1.0" standalone="no"?><!DOCTYPE svg PUBLIC "-//W3C//DTD SVG 1.1//EN" "http://www.w3.org/Graphics/SVG/1.1/DTD/svg11.dtd"><svg t="1512627110901" class="icon" style="" viewBox="0 0 1024 1024" version="1.1" xmlns="http://www.w3.org/2000/svg" p-id="7816" xmlns:xlink="http://www.w3.org/1999/xlink"><defs><style type="text/css"></style></defs><path d="M89.246361 367.40177C-101.995841 195.283788 76.496881 67.788986 76.496881 67.788986 197.616943-46.956336 350.610705 10.416325 388.859146 48.664766l573.726608 548.227648c127.494802 140.244282 12.74948 274.113824-38.248441 325.111745-114.745322 108.370582-305.987524 114.745322-382.484405 57.37266l-433.482326-382.484405c-25.49896-12.74948-38.248441-50.997921-25.498961-70.122141 12.74948-19.12422 57.372661-19.12422 82.871621 6.37474l414.358106 376.109665c140.244282 114.745322 293.238044-31.8737 293.238045-31.8737 146.619022-121.120062 50.997921-203.991683 50.99792-203.991683L363.360185 137.911127C267.739084 48.664766 191.242203 93.287947 140.244282 137.911127c-50.997921 44.623181-63.747401 101.995841-12.74948 152.993762l356.985445 331.486485c50.997921 50.997921 108.370582 50.997921 133.869542 25.498961S618.349789 577.768194 573.726608 539.519753L344.235965 329.15333c-19.12422-19.12422-25.49896-50.997921-12.74948-63.747401 12.74948-12.74948 57.372661-6.37474 70.122141 6.37474l248.614863 229.490643c63.747401 63.747401 63.747401 146.619022 19.124221 191.242203-44.623181 50.997921-140.244282 70.122141-216.741163-6.37474l-363.360186-318.737005z" p-id="7817"></path></svg>