<?xml version="1.0" standalone="no"?><!DOCTYPE svg PUBLIC "-//W3C//DTD SVG 1.1//EN" "http://www.w3.org/Graphics/SVG/1.1/DTD/svg11.dtd"><svg t="1512627725629" class="icon" style="" viewBox="0 0 1024 1024" version="1.1" xmlns="http://www.w3.org/2000/svg" p-id="8680" xmlns:xlink="http://www.w3.org/1999/xlink"><defs><style type="text/css"></style></defs><path d="M160 320h-64c-19.2 0-32-12.8-32-32v-64c0-19.2 12.8-32 32-32h57.6c25.6 0 38.4 12.8 38.4 32v57.6c0 25.6-12.8 38.4-32 38.4z m748.8 0H377.6C345.6 320 320 294.4 320 256s25.6-64 57.6-64h531.2c25.6 0 51.2 25.6 51.2 64s-25.6 64-51.2 64zM160 576h-64c-19.2 0-32-12.8-32-32v-64c0-19.2 12.8-32 32-32h57.6c25.6 0 38.4 12.8 38.4 32v57.6c0 25.6-12.8 38.4-32 38.4z m748.8 0H377.6C345.6 576 320 550.4 320 512s25.6-64 57.6-64h531.2c25.6 0 51.2 25.6 51.2 64s-25.6 64-51.2 64zM160 832h-64c-19.2 0-32-12.8-32-32v-57.6c0-25.6 12.8-38.4 32-38.4h57.6c25.6 0 38.4 12.8 38.4 32v57.6c0 25.6-12.8 38.4-32 38.4z m748.8 0H377.6c-32 0-57.6-25.6-57.6-64s25.6-64 57.6-64h531.2c32 0 57.6 25.6 57.6 64-6.4 38.4-32 64-57.6 64z" p-id="8681"></path></svg>