<?xml version="1.0" standalone="no"?><!DOCTYPE svg PUBLIC "-//W3C//DTD SVG 1.1//EN" "http://www.w3.org/Graphics/SVG/1.1/DTD/svg11.dtd"><svg t="1512627561128" class="icon" style="" viewBox="0 0 1024 1024" version="1.1" xmlns="http://www.w3.org/2000/svg" p-id="8248" xmlns:xlink="http://www.w3.org/1999/xlink"><defs><style type="text/css"></style></defs><path d="M512 1024c-281.6 0-512-230.4-512-512s230.4-512 512-512 512 224 512 512c0 281.6-230.4 512-512 512z m192-115.2c76.8-38.4 140.8-102.4 185.6-172.8l-134.4-108.8c-25.6 51.2-70.4 96-121.6 128l70.4 153.6z m-396.8 0l96-153.6c-57.6-25.6-108.8-70.4-134.4-134.4l-147.2 108.8c44.8 76.8 108.8 140.8 185.6 179.2zM320 115.2c-89.6 38.4-166.4 115.2-211.2 198.4L256 416c25.6-70.4 76.8-121.6 140.8-153.6L320 115.2zM313.6 512c0 102.4 89.6 192 198.4 192 108.8 0 192-89.6 192-192 0-108.8-83.2-198.4-192-198.4S313.6 403.2 313.6 512z m384-396.8L620.8 262.4c64 32 115.2 83.2 140.8 153.6L896 313.6c-38.4-89.6-115.2-153.6-198.4-198.4z" p-id="8249"></path></svg>