<?xml version="1.0" standalone="no"?><!DOCTYPE svg PUBLIC "-//W3C//DTD SVG 1.1//EN" "http://www.w3.org/Graphics/SVG/1.1/DTD/svg11.dtd"><svg t="1512626874884" class="icon" style="" viewBox="0 0 1024 1024" version="1.1" xmlns="http://www.w3.org/2000/svg" p-id="7461" xmlns:xlink="http://www.w3.org/1999/xlink"><defs><style type="text/css"></style></defs><path d="M467.2 556.8c25.6 25.6 70.4 25.6 96 0l313.6-320c25.6-25.6 25.6-64 0-89.6s-64-25.6-89.6 0L518.4 422.4 243.2 147.2c-25.6-25.6-70.4-25.6-96 0s-25.6 70.4 0 96l320 313.6z" p-id="7462"></path><path d="M787.2 467.2l-262.4 275.2-281.6-275.2c-25.6-25.6-70.4-25.6-96 0s-25.6 70.4 0 96l320 313.6c25.6 25.6 70.4 25.6 96 0l313.6-320c25.6-25.6 25.6-64 0-89.6-25.6-25.6-64-25.6-89.6 0z" p-id="7463"></path></svg>