<?xml version="1.0" encoding="utf-8"?>
<!-- Generated by IcoMoon.io -->
<!DOCTYPE svg PUBLIC "-//W3C//DTD SVG 1.1//EN" "http://www.w3.org/Graphics/SVG/1.1/DTD/svg11.dtd">
<svg version="1.1" xmlns="http://www.w3.org/2000/svg" xmlns:xlink="http://www.w3.org/1999/xlink" width="32" height="32" viewBox="0 0 32 32">
<path d="M10 24h-2v2h-2v-2h2v-2h-2v-2h-2v2h-2v2h2v4h4v2h2v-2h2v-2h-2zM22 16.813c-0.188 0.375-0.188 1-0.375 1.375-0.25 0.438-0.25 0.813-0.438 1.438l-0.375 1.188h2.375l-0.375-1.188c-0.188-0.438-0.188-0.813-0.438-1.438-0.188-0.375-0.188-0.813-0.375-1.375zM28 12h-12c-1.188 0-2 0.813-2 2v12c0 1.188 0.813 2 2 2h12c1.188 0 2-0.813 2-2v-12c0-1.188-0.813-2-2-2zM24.188 24l-0.813-2.375h-2.75l-0.813 2.375h-1l2.563-8h1.25l2.563 7.813h-1zM12.188 7c0.813 0 1.188 0.188 1.625 0.625 0.375 0.375 0.375 1 0.375 1.75v0.625h5.813v-6c0-1.188-0.813-2-2-2h-12c-1.188 0-2 0.813-2 2v12c0 1.188 0.813 2 2 2h6v-5c-0.188 0-0.375 0-0.625 0-0.375 0-1-0.188-1.188-0.375-0.375-0.25-0.375-0.625-0.375-1.25 0-0.563 0.188-1.188 0.813-1.375 0.563-0.375 1.375-0.625 2.75-0.813 0-0.188 0-0.375 0-0.563 0-0.25-0.188-0.438-0.188-0.438-0.188-0.188-0.375-0.188-0.563-0.375-0.25 0-0.438-0.188-0.625-0.188-0.375 0-0.625 0-1 0.188s-0.375 0.375-0.625 0.563l-0.375-0.75c0.188-0.25 0.625-0.438 1-0.625 0.375 0 0.813 0 1.188 0zM11.188 10.375c-0.188 0.25-0.188 0.25-0.375 0.438 0 0.188-0.188 0.375-0.188 0.563 0 0.438 0 0.625 0.188 0.813s0.375 0.188 0.813 0.188c0.188 0 0.188 0 0.188 0v-0.375c0-0.813 0.563-1.625 1.375-1.813v-0.375c-0.375 0.188-0.813 0.188-1.188 0.188-0.188 0.188-0.625 0.188-0.813 0.375z"></path>
</svg>
