<?xml version="1.0" encoding="utf-8"?>
<!-- Generator: Adobe Illustrator 21.0.2, SVG Export Plug-In . SVG Version: 6.00 Build 0)  -->
<svg version="1.1" id="图层_1" xmlns="http://www.w3.org/2000/svg" xmlns:xlink="http://www.w3.org/1999/xlink" x="0px" y="0px"
	 viewBox="0 0 16 16" style="enable-background:new 0 0 16 16;" xml:space="preserve">
<style type="text/css">
	.st0{fill-rule:evenodd;clip-rule:evenodd;}
</style>
<path class="st0" d="M14,5h-1v8c0,1.9-2,2-2,2H4c-1.9,0-2-2-2-2V5H0.9C0,5,0,4.3,0,4c0-0.3-0.1-1,0.9-1H3l0-1c0-1,1-1,1-1L11,1
	c1,0,1,1,1,1v1h2c0.9,0,1,0.8,1,1C15,4.3,15,5,14,5L14,5z M7,12.5C7,12.8,7.3,13,7.5,13C7.8,13,8,12.8,8,12.5v-7C8,5.2,7.8,5,7.5,5
	C7.3,5,7,5.2,7,5.5V12.5L7,12.5z M4,12.5C4,12.8,4.3,13,4.5,13C4.8,13,5,12.8,5,12.5V5.5C5,5.2,4.8,5,4.5,5C4.3,5,4,5.2,4,5.5V12.5
	L4,12.5z M10.1,2l-5,0c0,0-1,0-1,1h7C11,2,10.1,2,10.1,2L10.1,2z M11.1,5.5c0-0.3-0.2-0.5-0.5-0.5c-0.3,0-0.5,0.2-0.5,0.5v7
	c0,0.3,0.2,0.5,0.5,0.5c0.3,0,0.5-0.2,0.5-0.5V5.5L11.1,5.5z"/>
</svg>
