<?xml version="1.0" encoding="utf-8"?>
<!-- Generator: Adobe Illustrator 21.1.0, SVG Export Plug-In . SVG Version: 6.00 Build 0)  -->
<svg version="1.1" id="图层_1" xmlns="http://www.w3.org/2000/svg" xmlns:xlink="http://www.w3.org/1999/xlink" x="0px" y="0px"
	 viewBox="0 0 187 187" style="enable-background:new 0 0 187 187;" xml:space="preserve">
<path d="M127,26.8h3c-1,3-1,3-3,5c3-1,7-3,11-2l2,2c-3,4-9,6-15,7v1c23,0,35,16,39,35c7,2,15,1,22-1c-3,7-10,12-19,13v1
	c6,1,13,3,20,1c-2,5-10,8-16,9h-6c0,0-11,24-13,26c-14,18-39,34-64,36c-34,3-58-10-74-23c-4-3-13-10-14-15c17,15,53,17,68-2
	c-7,0-9-2-13-6c0-6,2-7,6-10c-10,0-19-4-21-12c3-2,7-3,10-5c-10-3-18-10-19-20c4-1,7-1,11-2c-9-2-17-11-17-23h1c23,9,45,19,64,32
	c5-18,15-38,29-47h1c0,1-1,2-1,4C121,29.8,124,27.8,127,26.8L127,26.8z"/>
</svg>
