<?xml version="1.0" encoding="utf-8"?>
<!-- Generator: Adobe Illustrator 21.0.2, SVG Export Plug-In . SVG Version: 6.00 Build 0)  -->
<svg version="1.1" id="图层_1" xmlns="http://www.w3.org/2000/svg" xmlns:xlink="http://www.w3.org/1999/xlink" x="0px" y="0px"
	 viewBox="0 0 16 16" style="enable-background:new 0 0 16 16;" xml:space="preserve">
<path style="fill:#8B8B8B;" d="M14,14h-3c0,0-0.8,0.2-1.5-0.6c0,0,0,0,0,0c-0.4-0.5-4-6.7-4-6.7S5.3,6,4.8,6L3.9,5.9l0,1.9
	c0,0-0.2,0.5-0.6,0.1l-3-3.1c0,0-0.5-0.4-0.1-0.6l3.3-3.1c0,0,0.4-0.4,0.4,0.1V3l1.8,0c0,0,0.9,0.3,1.2,1l3.8,6.6
	c0,0-0.3,0.4,1.3,0.4h2c0,0,1,0.3,1,1v1C15,13,14.9,14,14,14L14,14z M15,5.1C15,5.7,14,6,14,6h-2c-0.4,0-1,0-1,0l-0.6,0.6l-1.5-2
	L9.8,4c1.1-1,1.6-1,1.6-1l2.8,0C14.8,3,15,4.1,15,4.1L15,5.1L15,5.1z M6.9,12.9C6.6,13.4,6,14,6,14H4v1c0,1.2-0.8,0.6-0.8,0.6
	l-3.1-2.7c-0.4-0.3,0.1-0.6,0.1-0.6l3.1-3C4.1,8.7,4,10,4,10v1h1c0.5,0,0.8-0.3,0.8-0.3L6,10.2l1.4,2L6.9,12.9L6.9,12.9z"/>
</svg>
