<?xml version="1.0" encoding="utf-8"?>
<!-- Generator: Adobe Illustrator 21.0.2, SVG Export Plug-In . SVG Version: 6.00 Build 0)  -->
<svg version="1.1" id="图层_1" xmlns="http://www.w3.org/2000/svg" xmlns:xlink="http://www.w3.org/1999/xlink" x="0px" y="0px"
	 viewBox="0 0 35 35" style="enable-background:new 0 0 35 35;" xml:space="preserve">
<style type="text/css">
	.st0{fill-rule:evenodd;clip-rule:evenodd;}
</style>
<path class="st0" d="M9.8,19.3c0,0-0.5-0.8-0.6-0.9c-0.2-0.4-0.1-0.3,0.1-0.5c0,0,3.8-1.9,7.2-1.9h1.6c0,0,4.9,0.3,7,2.1
	c0.2,0.2,0.2-0.1,0.1,0.3c-0.1,0.3-0.5,1.3-0.5,1.3l8.5,2.4l0.3-0.8c0,0,3.7-4.4,0-6.5l-2.7-1.5c-12-3.2-26.3,0.2-26.3,0.2l-2.6,0.9
	c-3.6,1.9-0.6,7-0.6,7L1.9,23L9.8,19.3L9.8,19.3z"/>
</svg>
