<?xml version="1.0" encoding="utf-8"?>
<!-- Generator: Adobe Illustrator 21.0.2, SVG Export Plug-In . SVG Version: 6.00 Build 0)  -->
<svg version="1.1" id="图层_1" xmlns="http://www.w3.org/2000/svg" xmlns:xlink="http://www.w3.org/1999/xlink" x="0px" y="0px"
	 viewBox="0 0 16 16" style="enable-background:new 0 0 16 16;" xml:space="preserve">
<style type="text/css">
	.st0{fill-rule:evenodd;clip-rule:evenodd;}
</style>
<path class="st0" d="M13,11h-1v1c0,0.8-1,1-1,1L1,13c-0.9,0-1-1-1-1s0-8.2,0-9c0-0.7,0.6-1,1-1c0.8,0,10,0,10,0c0.9,0,1,1,1,1v1h1
	l3-2v11L13,11L13,11z M5,5v5l4-2.5L5,5L5,5z"/>
</svg>
