<?xml version="1.0" encoding="utf-8"?>
<!-- Generator: Adobe Illustrator 21.0.2, SVG Export Plug-In . SVG Version: 6.00 Build 0)  -->
<svg version="1.1" id="图层_1" xmlns="http://www.w3.org/2000/svg" xmlns:xlink="http://www.w3.org/1999/xlink" x="0px" y="0px"
	 viewBox="0 0 35 35" style="enable-background:new 0 0 35 35;" xml:space="preserve">
<style type="text/css">
	.st0{fill-rule:evenodd;clip-rule:evenodd;}
</style>
<path class="st0" d="M23.9,21.7c0,0-0.2,1-0.2,1.1c-0.1,0.5-0.2,0.3-0.4,0.3c0,0-4-1.3-6.4-3.7l-1.2-1.2c0,0-3.2-3.7-3.4-6.5
	c0-0.3-0.3-0.1,0.2-0.2c0.3-0.1,1.3-0.5,1.3-0.5L9.5,3.2L8.7,3.5c0,0-5.8,0.6-4.7,4.7l0.9,3C11.1,22,23.7,29.7,23.7,29.7l2.5,1.2
	c3.9,1.2,5.5-4.6,5.5-4.6l0.5-1.6L23.9,21.7L23.9,21.7z"/>
</svg>
