<?xml version="1.0" encoding="utf-8"?>
<!-- Generated by IcoMoon.io -->
<!DOCTYPE svg PUBLIC "-//W3C//DTD SVG 1.1//EN" "http://www.w3.org/Graphics/SVG/1.1/DTD/svg11.dtd">
<svg version="1.1" xmlns="http://www.w3.org/2000/svg" xmlns:xlink="http://www.w3.org/1999/xlink" width="32" height="32" viewBox="0 0 32 32">
<path d="M24.875 13.5c0 5.375-2.125 8.563-7.25 9.438 0 0.5 0 3.563 0 3.563h4.063c1.75 0 1.75 1.75 0 1.75h-11.188c-1.813 0-2.125-1.75-0.188-1.75h3.938c0 0 0-3.188 0-3.563-5-0.875-7.313-4.625-7.313-9.938 0-0.938 0.875-0.938 0.875-0.938 1.438 0 1.063 0.938 1.063 0.938 0 4.438 2.688 8.313 7.125 8.313s7.125-3.375 7.125-7.813c0 0-0.375-1.25 1.063-1.25 1.25 0 0.688 1.25 0.688 1.25zM16 19.75c-3 0-5.313-2.313-5.313-5.375v-7.063c0-3.063 2.313-5.563 5.313-5.563s5.313 2.688 5.313 5.563v7.063c0 2.875-2.438 5.375-5.313 5.375z"></path>
</svg>
