<?xml version="1.0" encoding="utf-8"?>
<!-- Generator: Adobe Illustrator 21.0.0, SVG Export Plug-In . SVG Version: 6.00 Build 0)  -->
<svg version="1.1" id="图层_1" xmlns="http://www.w3.org/2000/svg" xmlns:xlink="http://www.w3.org/1999/xlink" x="0px" y="0px"
	 viewBox="0 0 18 18" style="enable-background:new 0 0 18 18;" xml:space="preserve">
<path d="M15,14.4c0,0-0.9,3.1-3.1,2.5l-1.6-0.8c0,0-6.1-3.1-9.6-9L0.1,5.7C-0.5,3.5,3,3,3,3l0.5-0.2l2.3,4.2c0,0-0.6,0.2-0.7,0.3
	c-0.1,0-0.1,0-0.1,0c0,0,0,0,0,0.1c0.2,1.3,1.4,3,1.8,3.5c1.4,1.1,3.6,1.7,3.6,1.7c0.1,0.1,0.1,0.2,0.2-0.1c0-0.1,0.1-0.6,0.1-0.6
	l4.7,1.7L15,14.4L15,14.4z"/>
<polygon points="4.3,2.4 5.1,2 7.4,6.3 6.7,6.6 4.3,2.4 "/>
<polygon points="9,9.5 9,6.5 13,6.5 13,9.5 9,9.5 "/>
<polygon points="13,12 13,4 17,8 13,12 "/>
</svg>
