<?xml version="1.0" encoding="utf-8"?>
<!-- Generated by IcoMoon.io -->
<!DOCTYPE svg PUBLIC "-//W3C//DTD SVG 1.1//EN" "http://www.w3.org/Graphics/SVG/1.1/DTD/svg11.dtd">
<svg version="1.1" xmlns="http://www.w3.org/2000/svg" xmlns:xlink="http://www.w3.org/1999/xlink" width="32" height="32" viewBox="0 0 32 32">
<path d="M27.5 5.25l-1.438-1.563c0 0-0.438-0.625-1.125-0.188l-1.438 1.438 2.75 2.563 1.25-1.125c0 0 0.688-0.438 0-1.125zM19.375 15.5l6.063-6.688-2.875-2.563-6.375 6.375-0.5 2.563 1.25 1.438zM14.25 17.438h1.938l-1.125-1.438zM24 12.188v11c0 0.5-0.5 0.813-0.938 0.813h-14.25c-0.5 0-0.813-0.313-0.813-0.813v-14.563c0-0.438 0.313-0.813 0.813-0.813h9.75c0 0 1.438-1.563 0-3.188h-11.375c-1.25 0-2.375 1.438-2.375 2.75v17.563c0 1.313 1.125 2.25 2.375 2.25h17.438c1.625 0 2.563-1.125 2.563-2.375v-12.625c-1.75-2.25-3.188 0-3.188 0z"></path>
</svg>
