<?xml version="1.0" standalone="no"?> 
<!DOCTYPE svg PUBLIC "-//W3C//DTD SVG 1.1//EN" "http://www.w3.org/Graphics/SVG/1.1/DTD/svg11.dtd" >
<svg xmlns="http://www.w3.org/2000/svg">
<defs>
  <font id="icons_1515570852072" horiz-adv-x="1026">
    <font-face font-family="icons_1515570852072"
      units-per-em="1024" ascent="1024"
      descent="0" />
    <missing-glyph horiz-adv-x="0" />
    <glyph glyph-name="add"
      unicode="&#xF101;"
      horiz-adv-x="1024" d=" M853.3333333333333 426.6666666666668H597.3333333333333V170.6666666666668C597.3333333333333 119.4666666666667 563.1999999999999 85.3333333333334 512 85.3333333333334C460.8 85.3333333333334 426.6666666666667 119.4666666666667 426.6666666666667 170.6666666666668V426.6666666666668H170.6666666666667C119.4666666666667 426.6666666666668 85.3333333333333 460.8000000000001 85.3333333333333 512C85.3333333333333 563.2 119.4666666666667 597.3333333333334 170.6666666666667 597.3333333333334H426.6666666666667V853.3333333333334C426.6666666666667 904.5333333333334 460.8 938.6666666666666 512 938.6666666666666C563.1999999999999 938.6666666666666 597.3333333333333 904.5333333333334 597.3333333333333 853.3333333333334V597.3333333333334H853.3333333333333C904.5333333333334 597.3333333333334 938.6666666666666 563.2 938.6666666666666 512C938.6666666666666 460.8000000000001 904.5333333333334 426.6666666666668 853.3333333333333 426.6666666666668L853.3333333333333 426.6666666666668z" />
    <glyph glyph-name="arrow-down"
      unicode="&#xF102;"
      horiz-adv-x="1024" d=" M768 658.7733333333333L512 365.2266666666667L256 658.7733333333333H768z" />
    <glyph glyph-name="arrow-left"
      unicode="&#xF103;"
      horiz-adv-x="1024" d=" M658.7733333333333 256L365.2266666666667 512L658.7733333333332 768L658.7733333333333 256z" />
    <glyph glyph-name="arrow-right"
      unicode="&#xF104;"
      horiz-adv-x="1024" d=" M365.2266666666667 768L658.7733333333332 512L365.2266666666666 256L365.2266666666667 768z" />
    <glyph glyph-name="arrow-up"
      unicode="&#xF105;"
      horiz-adv-x="1024" d=" M256 365.2266666666667L512 658.7733333333333L768 365.2266666666667C768 365.2266666666667 256 365.2266666666667 256 365.2266666666667z" />
    <glyph glyph-name="article_type"
      unicode="&#xF106;"
      horiz-adv-x="1024" d=" M512 1024C796.4444444444443 1024 1024 796.4444444444445 1024 512C1024 227.5555555555557 796.4444444444443 0 512 0C227.5555555555556 0 0 227.5555555555557 0 512C0 796.4444444444445 227.5555555555556 1024 512 1024L512 1024z" />
    <glyph glyph-name="attachticket"
      unicode="&#xF107;"
      horiz-adv-x="1024" d=" M940 684L684 940C660 966.016 620 966.016 601.984 940L473.984 812L820 468L948 596C966.016 620 966.016 660 940 684zM0 340H346.016V0L774.0160000000001 428L428.0000000000001 768z" />
    <glyph glyph-name="canned"
      unicode="&#xF108;"
      horiz-adv-x="1024" d=" M870.016 153.984C870.016 153.984 856 101.984 820 101.984H256C256 101.984 204 108 204 153.984H768C804 153.984 820 157.984 820 204V922.016C813.984 952.032 813.984 972.032 768 972.032H200C184 972.032 153.984 942.016 153.984 922.016V870.016H204C204 870.016 262.016 890.016 256 794.016C256 794.016 262.016 716 204 716H153.984V613.9839999999999H204C204 613.9839999999999 250.016 613.9839999999999 256 537.9839999999999C256 537.9839999999999 262.016 459.968 204 459.968H153.984V357.952H204C204 357.952 256 373.952 256 281.952C256 281.952 262.016 203.936 204 203.936H153.984V101.9200000000001C153.984 101.9200000000001 153.984 51.9040000000001 204 51.9040000000001H870.016C870.016 51.9040000000001 922.016 55.9040000000001 922.016 101.9200000000001V511.9360000000001H870.016zM128 512H180C194.016 512 204 522.0160000000001 204 538.0160000000001C204 552.032 193.984 564.032 180 564.032H128C112 564.032 101.984 552.032 101.984 538.0160000000001C101.984 522.0160000000001 112 512 128 512zM204 281.9840000000001C204 296 193.984 308 180 308H128C112 308 101.984 296 101.984 281.9840000000001C101.984 265.9840000000001 112 255.9680000000001 128 255.9680000000001H180C194.016 255.9680000000001 204 265.9840000000001 204 281.9840000000001zM128 768H180C194.016 768 204 778.016 204 794.016C204 808.0319999999999 193.984 820.0319999999999 180 820.0319999999999H128C112 820.0319999999999 101.984 808.0319999999999 101.984 794.016C101.984 778.016 112 768 128 768zM870.016 972V869.9839999999999C916.032 869.9839999999999 922.016 921.984 922.016 921.984V972zM870.016 716C916.032 722.0160000000001 922.016 768 922.016 768V820H870.016zM870.016 564C922.016 564 922.016 614.0160000000001 922.016 614.0160000000001V666.0160000000001H870.016z" />
    <glyph glyph-name="capture"
      unicode="&#xF109;"
      horiz-adv-x="1024" d=" M1024 699.7333333333333C1024 699.7333333333333 967.111111111111 722.4888888888889 944.3555555555556 699.7333333333333C870.4 625.7777777777778 716.8000000000001 472.1777777777778 620.088888888889 375.4666666666667C568.8888888888889 324.2666666666667 620.088888888889 216.1777777777779 620.088888888889 216.1777777777779C620.088888888889 216.1777777777779 546.1333333333334 290.1333333333335 460.8000000000001 375.4666666666668C455.1111111111111 386.8444444444446 68.2666666666667 45.5111111111112 56.8888888888889 56.8888888888889C39.8222222222222 73.9555555555556 398.2222222222222 443.7333333333335 381.1555555555556 460.8C295.8222222222222 546.1333333333333 216.1777777777778 620.088888888889 216.1777777777778 620.088888888889S335.6444444444445 574.5777777777778 375.4666666666667 620.088888888889C466.4888888888888 711.1111111111111 620.0888888888887 864.7111111111111 699.7333333333333 944.3555555555556C728.1777777777778 972.8 699.7333333333333 1024 699.7333333333333 1024L1024 699.7333333333333L1024 699.7333333333333zM563.2 477.8666666666667C551.8222222222223 466.4888888888889 551.8222222222223 449.4222222222224 563.2 438.0444444444446C574.5777777777777 426.6666666666669 591.6444444444444 426.6666666666669 603.0222222222221 438.0444444444446L841.9555555555555 682.6666666666667C853.3333333333333 694.0444444444445 853.3333333333333 711.1111111111111 841.9555555555555 722.4888888888889C830.5777777777778 733.8666666666668 813.5111111111111 733.8666666666668 802.1333333333333 722.4888888888889L563.2 477.8666666666667L563.2 477.8666666666667z" />
    <glyph glyph-name="chat-list-settings"
      unicode="&#xF10A;"
      horiz-adv-x="1024" d=" M880 409.9840000000001C873.984 375.9680000000001 860 347.9680000000001 840 319.9680000000001C840 319.9680000000001 922.016 217.9520000000001 866.016 163.9680000000001L840 135.9680000000001C797.984 95.9680000000001 709.984 157.984 689.984 169.984C661.984 157.984 627.9680000000001 143.9680000000001 593.984 129.984L613.984 136C613.984 136 593.984 0 525.984 0H497.984C443.968 0 409.9840000000001 130.016 409.9840000000001 136C375.968 144 341.9840000000001 164 313.9840000000001 178.016L320.0000000000001 170.016C320.0000000000001 170.016 217.984 82.016 164.0000000000001 136L144.0000000000001 158.016C101.9840000000001 198.016 170.0160000000001 314.016 178.0160000000001 320.032C164.0000000000001 348.032 150.0160000000001 376.032 144.0000000000001 410.0479999999999C129.9840000000001 410.0479999999999 1e-13 444.0639999999999 1e-13 498.0479999999999V526.0479999999999C1e-13 594.0479999999999 116.0000000000001 614.0479999999999 136.0000000000001 614.0479999999999C144.0000000000001 642.0479999999999 158.0160000000001 676.0639999999999 170.0160000000001 696.0639999999999C170.0160000000001 710.0799999999999 96 820.0639999999999 136.0000000000001 860.0639999999999L158.0160000000001 880.0639999999999C204.0320000000001 928.0639999999999 308.0320000000001 860.0639999999999 320.0320000000001 846.0479999999999C348.0320000000001 860.0639999999999 376.0320000000001 874.0479999999999 410.0480000000001 880.0639999999999C410.0480000000001 908.0639999999999 444.0640000000001 1024.0639999999999 498.0480000000001 1024.0639999999999H526.048C588.064 1024.0639999999999 608.064 914.0479999999998 614.048 880.0639999999999C648.064 874.0479999999999 676.064 860.0639999999999 704.064 846.0479999999999C724.064 860.0639999999999 826.0799999999999 922.0479999999998 866.0799999999999 880.0639999999999L888.0959999999999 860.0639999999999C936.0959999999998 812.0639999999999 874.0799999999999 738.0479999999999 860.0959999999999 716.0639999999999C874.1119999999999 690.0479999999999 880.0959999999999 648.0639999999999 888.0959999999999 614.0479999999999C888.0959999999999 614.0479999999999 1024.096 594.0479999999999 1024.096 526.0479999999999V498.0479999999999C1024.096 444.032 908.096 416.032 880.096 410.0479999999999zM512 681.9839999999999C416 681.9839999999999 333.9840000000001 607.968 333.9840000000001 511.968S409.9840000000001 333.952 505.984 333.952C600 333.952 681.984 415.968 681.984 511.968S607.9680000000001 681.9839999999999 511.9680000000001 681.9839999999999z" />
    <glyph glyph-name="chat"
      unicode="&#xF10B;"
      horiz-adv-x="1024" d=" M774.016 341.9840000000001H506.016L302.016 135.9680000000001L256 341.9840000000001H193.984C107.968 341.9840000000001 55.968 397.9840000000001 55.968 477.984V780C55.968 860 113.984 916 193.984 916H773.9839999999999C853.9839999999999 916 909.984 860 909.984 780V477.984C909.984 403.9680000000001 853.9839999999999 341.9840000000001 773.9839999999999 341.9840000000001zM284 681.9839999999999C249.984 681.9839999999999 228 659.968 228 625.9839999999999S250.016 567.968 284 567.968C318.016 567.968 342.016 591.968 342.016 625.9839999999999S318.016 681.9839999999999 284 681.9839999999999zM512 681.9839999999999C477.984 681.9839999999999 456 659.968 456 625.9839999999999S478.016 567.968 512 567.968C546.016 567.968 568 591.968 568 625.9839999999999S545.984 681.9839999999999 512 681.9839999999999zM740 681.9839999999999C705.984 681.9839999999999 681.984 659.968 681.984 625.9839999999999S705.984 567.968 740 567.968C774.016 567.968 796 591.968 796 625.9839999999999S773.984 681.9839999999999 740 681.9839999999999z" />
    <glyph glyph-name="checked"
      unicode="&#xF10C;"
      horiz-adv-x="1024" d=" M877.7142857142857 877.7142857142858C863.0857142857143 899.6571428571428 833.8285714285714 899.6571428571428 811.8857142857142 877.7142857142858L424.2285714285714 453.4857142857144L292.5714285714286 570.5142857142857C277.9428571428571 585.1428571428571 248.6857142857143 592.4571428571428 226.7428571428572 577.8285714285714C204.8 555.8857142857144 197.4857142857143 519.3142857142857 212.1142857142857 490.0571428571429L365.7142857142857 241.3714285714286C373.0285714285714 234.057142857143 380.3428571428572 226.7428571428573 387.6571428571429 219.4285714285715C424.2285714285714 190.1714285714286 475.4285714285714 197.4857142857143 504.6857142857143 241.3714285714286L885.0285714285715 819.2C899.6571428571428 833.8285714285714 892.342857142857 863.0857142857143 877.7142857142857 877.7142857142858L877.7142857142857 877.7142857142858z" />
    <glyph glyph-name="close"
      unicode="&#xF10D;"
      horiz-adv-x="1024" d=" M704 512L986.016 794.0160000000001C1036.0320000000002 844.032 1036.0320000000002 934.016 986.016 986.016C934.016 1036.032 844.0000000000001 1036.032 794.0160000000001 986.016L512 704L229.984 986.016C179.968 1036.032 89.984 1036.032 37.984 986.016C-12.032 934.016 -12.032 844 37.984 794.0160000000001L320 512L37.984 229.9839999999999C-12.032 179.968 -12.032 89.9839999999999 37.984 37.9839999999999C89.984 -12.0320000000002 180 -12.0320000000002 229.984 37.9839999999999L512 320L794.0160000000001 37.9839999999999C844.032 -12.0320000000002 934.016 -12.0320000000002 986.016 37.9839999999999C1036.0320000000002 89.9839999999999 1036.0320000000002 179.9999999999999 986.016 229.9839999999999z" />
    <glyph glyph-name="company"
      unicode="&#xF10E;"
      horiz-adv-x="1024" d=" M926.72 51.2H512C512 51.2 460.8 71.6800000000001 460.8 102.4000000000001V819.2C460.8 849.9200000000001 481.28 870.4000000000001 512 870.4000000000001H916.48C947.2 870.4000000000001 972.8 849.9200000000001 972.8 819.2V102.4000000000001C972.8 102.4000000000001 952.32 51.2 926.72 51.2V51.2zM614.4 819.2H512V716.8H614.4V819.1999999999999zM614.4 665.6H512V563.2H614.4V665.6zM614.4 512H512V409.6H614.4V512zM614.4 358.4H512V256H614.4V358.4zM614.4 204.8H512V102.4H614.4V204.8zM768 819.2H665.6V716.8H768V819.1999999999999zM768 665.6H665.6V563.2H768V665.6zM768 512H665.6V409.6H768V512zM768 358.4H665.6V256H768V358.4zM921.6 819.2H819.2V716.8H921.6V819.1999999999999zM921.6 665.6H819.2V563.2H921.6V665.6zM921.6 512H819.2V409.6H921.6V512zM921.6 358.4H819.2V256H921.6V358.4zM921.6 204.8H819.2V102.4H921.6V204.8zM358.4 51.2H102.4C71.68 51.2 51.2 71.6800000000001 51.2 102.4000000000001V512.0000000000001C51.2 542.7200000000001 71.68 563.2 102.4 563.2H358.4C389.12 563.2 409.6 542.72 409.6 512.0000000000001V102.4000000000001C409.6 71.6800000000001 389.12 51.2 358.4 51.2V51.2zM153.6 512H102.4V409.6H153.6V512zM153.6 358.4H102.4V256H153.6V358.4zM153.6 204.8H102.4V102.4H153.6V204.8zM256 512H204.8V409.6H256V512zM256 358.4H204.8V256H256V358.4zM358.4 512H307.2V409.6H358.4V512zM358.4 358.4H307.2V256H358.4V358.4zM358.4 204.8H307.2V102.4H358.4V204.8z" />
    <glyph glyph-name="control_panel"
      unicode="&#xF10F;"
      horiz-adv-x="1024" d=" M832 896V960C832 998.4 844.8 1024 864 1024S896 998.4 896 960V896H832zM864 64C844.8 64 832 89.6 832 128V448H896V128C896 89.6 883.2 64 864 64V64zM832 960C832 998.4 844.8 1024 864 1024S896 998.4 896 960V896H832V960zM896 512H832C793.6 512 768 537.6 768 576V768C768 806.4 793.6 832 832 832H896C934.4 832 960 806.4 960 768V576C960 537.6 934.4 512 896 512V512zM448 640V960C448 998.4 460.8 1024 480 1024S512 998.4 512 960V640H448zM480 64C460.8 64 448 89.6 448 128V192H512V128C512 89.6 499.2 64 480 64V64zM448 960C448 998.4 460.8 1024 480 1024S512 998.4 512 960V640H448V960zM512 256H448C409.6 256 384 281.6 384 320V512C384 550.4 409.6 576 448 576H512C550.4 576 576 550.4 576 512V320C576 281.6 550.4 256 512 256V256zM64 768V960C64 998.4 76.8 1024 96 1024S128 998.4 128 960V768H64zM96 64C76.8 64 64 89.6 64 128V320H128V128C128 89.6 115.2 64 96 64V64zM64 960C64 998.4 76.8 1024 96 1024S128 998.4 128 960V768H64V960zM128 384H64C25.6 384 0 409.6 0 448V640C0 678.4 25.6 704 64 704H128C166.4 704 192 678.4 192 640V448C192 409.6 166.4 384 128 384V384z" />
    <glyph glyph-name="conversation-external"
      unicode="&#xF110;"
      horiz-adv-x="1102.3058823529411" d=" M548.1411764705882 710.7764705882353V1024L0 512L548.1411764705882 0V313.2235294117648H1102.3058823529411V710.7764705882353H548.1411764705882z" />
    <glyph glyph-name="conversation-internal"
      unicode="&#xF111;"
      horiz-adv-x="1102.3058823529411" d=" M0 710.7764705882353V313.2235294117648H554.1647058823529V0L1102.3058823529411 512L554.1647058823529 1024V710.7764705882353H0z" />
    <glyph glyph-name="conversation-new"
      unicode="&#xF112;"
      horiz-adv-x="1024" d=" M696.32 1024H174.08C133.12 1024 102.4 993.28 102.4 952.32V71.68C102.4 30.72 133.12 0 174.08 0H839.6800000000001C890.88 0 921.6 30.72 921.6 71.68V808.96L696.32 1024zM849.9200000000001 768H696.32C696.32 768 665.6 768 665.6 798.72V952.32C665.6 952.32 655.36 1003.52 696.32 972.8L880.64 798.72C870.4 798.72 911.36 768 849.9200000000001 768z" />
    <glyph glyph-name="conversation-pause"
      unicode="&#xF113;"
      horiz-adv-x="1024" d=" M512 1024C227.0870588235294 1024 0 797.515294117647 0 512S226.484705882353 0 512 0S1024 226.484705882353 1024 512S796.9129411764707 1024 512 1024zM439.1152941176471 292.7435294117647H292.7435294117647V731.2564705882353H439.1152941176471C439.1152941176471 731.2564705882353 439.1152941176471 292.7435294117647 439.1152941176471 292.7435294117647zM731.2564705882353 292.7435294117647H584.8847058823529V731.2564705882353H731.2564705882353V292.7435294117647z" />
    <glyph glyph-name="conversation-priority"
      unicode="&#xF114;"
      horiz-adv-x="1024" d=" M512 1024C225.0879249706917 1024 0 791.7092614302462 0 512C0 225.0879249706917 232.2907385697539 0 512 0C798.9120750293083 0 1024 225.0879249706917 1024 512C1024 791.7092614302462 798.9120750293083 1024 512 1024zM436.9706916764361 744.2907385697538C436.9706916764361 785.1066822977725 477.7866354044548 812.7174677608441 519.2028135990621 812.7174677608441S594.232121922626 778.504103165299 594.232121922626 744.2907385697538V436.970691676436C594.232121922626 396.1547479484173 553.4161781946073 368.5439624853458 512 368.5439624853458S443.5732708089097 402.7573270808909 443.5732708089097 436.970691676436L436.9706916764361 744.2907385697538zM512 143.4560375146542C463.9812426729191 143.4560375146542 429.767878077374 177.6694021101993 429.767878077374 225.6881594372802S463.9812426729191 307.9202813599062 512 307.9202813599062S594.232121922626 273.7069167643611 594.232121922626 225.6881594372802C587.0293083235639 177.0691676436109 552.8159437280187 143.4560375146542 512 143.4560375146542L512 143.4560375146542z" />
    <glyph glyph-name="conversation-resolved"
      unicode="&#xF115;"
      horiz-adv-x="1016.847497089639" d=" M998.9662398137368 1001.9464493597206C969.7601862630964 1031.152502910361 933.997671711292 1031.152502910361 904.7916181606518 1001.9464493597206L326.6309662398137 365.373690337602L131.1292200232829 545.9743888242142C109.6717112922002 568.0279394644936 66.1606519208382 568.0279394644936 36.9545983701979 545.9743888242142C0.5960419091967 516.7683352735739 -13.708963911525 466.7008149010478 15.4970896391152 423.1897555296858L239.6088474970897 61.3923166472644C246.7613504074505 47.0873108265425 253.9138533178114 39.9348079161817 268.8149010477299 25.0337601862632C326.6309662398137 -18.4772991850989 398.7520372526194 -4.1722933643771 442.2630966239814 54.2398137369036L449.4155995343422 61.3923166472644L1006.1187427240978 900.6193247962748C1021.0197904540162 929.2293364377184 1021.0197904540162 972.7403958090804 998.9662398137368 1001.9464493597206z" />
    <glyph glyph-name="Dashboard01"
      unicode="&#xF116;"
      horiz-adv-x="1024" d=" M25395.2 -14336C24883.2 -14336 24268.8 -14336 23756.8 -14233.6C21708.8 -16896 18227.199999999997 -16384 18227.199999999997 -16384C20582.399999999998 -15257.6 20582.399999999998 -13312 20172.799999999996 -13107.2C18329.599999999995 -12083.2 17305.599999999995 -10547.2 17305.599999999995 -8806.400000000001C17305.599999999995 -5529.600000000001 20787.199999999993 -3072.000000000002 25292.799999999996 -3072.000000000002S32563.2 -5529.600000000002 32563.2 -8806.400000000001C32665.6 -11980.800000000001 29900.799999999992 -14336.000000000002 25395.199999999997 -14336.000000000002zM13312 -17100.8V-19456H11264V-17100.8C10649.6 -16793.6 10240 -16076.8 10240 -15360C10240 -14233.6 11161.6 -13312 12288 -13312S14336 -14233.6 14336 -15360C14336 -16076.8 13926.4 -16793.6 13312 -17100.8zM21504 -30720H3072C3072 -23756.8 6553.6 -20480 12288 -20480S21504 -23552 21504 -30720zM17408 -28672C18022.4 -28672 18432 -28262.4 18432 -27648S18022.4 -26624 17408 -26624S16384 -27033.6 16384 -27648S16896 -28672 17408 -28672zM7168 -26624C6553.6 -26624 6144 -27033.6 6144 -27648S6553.6 -28672 7168 -28672S8192 -28262.4 8192 -27648S7680 -26624 7168 -26624zM0 -28672C0 -27750.4 204.8 -26624 2048 -26624V-30720H0V-28672zM24576 -28672V-30720H22528V-26624C24576 -26624 24576 -27750.4 24576 -28672z" />
    <glyph glyph-name="Dashboard02"
      unicode="&#xF117;"
      horiz-adv-x="1024" d=" M16384 -30720C7884.8 -30720 1024 -23859.2 1024 -15360S7884.8 0 16384 0S31744 -6860.8 31744 -15360S24883.2 -30720 16384 -30720zM23142.4 -14438.4H17408V-6758.4C17408 -5939.2 16896 -4812.799999999999 16076.8 -4812.799999999999S14540.8 -5529.599999999999 14540.8 -6348.799999999999V-15769.6C14540.8 -16588.8 15257.6 -17305.6 16076.8 -17305.6H23552C24371.2 -17305.6 25088 -16588.8 25088 -15769.6S23961.6 -14438.399999999996 23142.4 -14438.399999999996z" />
    <glyph glyph-name="Dashboard03"
      unicode="&#xF118;"
      horiz-adv-x="1024" d=" M2048 -19456V-7168C2048 -4812.8 3788.8 -3072 6144 -3072H26624C28672 -3072 30720 -4710.4 30720 -7168V-19456C30720 -22016 28876.8 -23552 26624 -23552H21504L16384 -27648L11366.4 -23552H6144C3686.4 -23552 2048 -21811.2 2048 -19456z" />
    <glyph glyph-name="Dashboard04"
      unicode="&#xF119;"
      horiz-adv-x="1024" d=" M16384 -1024L21401.6 -10752L32768 -12390.4L24576 -19968L26521.6 -30720L16384 -25600L6246.4 -30720L8192 -19968L0 -12390.4L11264 -10752L16384 -1024z" />
    <glyph glyph-name="Dashboard05"
      unicode="&#xF11A;"
      horiz-adv-x="1024" d=" M16384 -29696C8499.2 -29696 2048 -23244.8 2048 -15360S8499.2 -1024 16384 -1024S30720 -7475.2 30720 -15360S24371.2 -29696 16384 -29696zM16384 -3993.5999999999985V-15462.399999999996S22323.2 -23756.799999999996 22937.6 -24576C25804.8 -22528 27648 -19148.8 27648 -15360C27750.4 -9113.6 22630.4 -3993.6 16384 -3993.6z" />
    <glyph glyph-name="Dashboard06"
      unicode="&#xF11B;"
      horiz-adv-x="1024" d=" M11161.6 -28672C10035.2 -28672 9113.6 -27750.4 9113.6 -26624S9932.800000000001 -24576 11161.6 -24576C12288 -24576 13209.6 -25395.2 13209.6 -26624C13312 -27750.4 12390.4 -28672 11161.6 -28672zM22528 -28672C21401.6 -28672 20480 -27750.4 20480 -26624S21401.6 -24576 22528 -24576S24576 -25497.6 24576 -26624S23654.4 -28672 22528 -28672zM27750.4 -18329.6L9216 -18432L9728 -20480H27648C28262.4 -20480 28672 -21401.6 28672 -22016S28262.4 -23552 27648 -23552H8294.4C7680 -23552 7270.4 -22118.4 7270.4 -21504C7270.4 -21094.4 4608 -6041.6 4608 -6041.6H2457.6C2457.6 -2969.6000000000004 5017.6 -2969.6000000000004 5017.6 -2969.6000000000004C7168 -2969.6000000000004 7577.6 -6041.6 7577.6 -6041.6L7987.2 -7065.6H27648C29491.2 -7065.6 29593.6 -9216 29593.6 -9216V-16281.6C29696 -18329.6 27750.399999999998 -18329.6 27750.399999999998 -18329.6z" />
    <glyph glyph-name="date"
      unicode="&#xF11C;"
      horiz-adv-x="1024" d=" M889.6 0H70.4C32 0 0 32 0 70.4V787.2C0 825.6 32 857.6 70.4 857.6H140.8V819.2C140.8 716.8 243.2 716.8 243.2 716.8C345.6 716.8 345.6 819.1999999999999 345.6 819.1999999999999V857.6H620.8L620.8 819.2C620.8 716.8 723.1999999999999 716.8 723.1999999999999 716.8C825.5999999999999 716.8 825.5999999999999 819.1999999999999 825.5999999999999 819.1999999999999V857.6H895.9999999999999C934.3999999999997 857.6 966.3999999999997 825.6 966.3999999999997 787.2V64C960 32 928 0 889.6 0L889.6 0zM889.6 614.4H70.4V64H896V614.4L889.6 614.4zM352 480H416V204.8H339.2V390.4C326.4 384 300.8 364.8 300.8 364.8S294.4000000000001 358.4 275.2 345.5999999999999V409.5999999999999C300.8 428.8 300.8 428.8 320 441.6C332.8 454.4 345.6 460.8 352 480L352 480zM684.8 416C665.6 396.8 640 384 627.2 364.8C614.4000000000001 339.2 608 326.4 601.6 294.4C595.2 268.8 588.8000000000001 236.8 588.8000000000001 204.8H512C518.4 249.5999999999999 524.8 294.4 537.6 320C550.4 352 569.6 377.6 595.2 409.6H480V480H691.2V416L684.8 416zM723.2 755.2C684.8000000000001 755.2 652.8000000000001 787.2 652.8000000000001 825.6V889.6C652.8000000000001 928 684.8000000000001 960 723.2 960C761.6 960 793.6 928 793.6 889.6V819.2C787.2 787.2 755.2 755.2 723.2 755.2L723.2 755.2zM243.2 755.2C204.8 755.2 172.8 787.2 172.8 825.6V889.6C172.8 928 204.8 960 243.2 960S313.6 928 313.6 889.6V819.2C307.2 787.2 275.2 755.2 243.2 755.2L243.2 755.2z" />
    <glyph glyph-name="ddl_arrowDown"
      unicode="&#xF11D;"
      horiz-adv-x="1024" d=" M768 658.7733333333333L512 365.2266666666667L256 658.7733333333333H768z" />
    <glyph glyph-name="delete"
      unicode="&#xF11E;"
      horiz-adv-x="1024" d=" M622.9333333333333 512L913.0666666666666 802.1333333333333C947.2 836.2666666666667 947.2 887.4666666666667 913.0666666666666 921.6C878.9333333333332 955.7333333333333 827.7333333333332 955.7333333333333 793.5999999999999 921.6L512 631.4666666666667L221.8666666666667 913.0666666666666C187.7333333333334 947.2 136.5333333333333 947.2 102.4 913.0666666666666C68.2666666666667 878.9333333333334 68.2666666666667 827.7333333333333 102.4 793.6L392.5333333333333 512L110.9333333333333 221.8666666666667C76.8 187.7333333333334 76.8 136.5333333333333 110.9333333333333 102.4C145.0666666666667 68.2666666666667 196.2666666666667 68.2666666666667 230.4 102.4L512 401.0666666666667L802.1333333333333 110.9333333333334C836.2666666666667 76.8000000000001 887.4666666666667 76.8000000000001 921.6 110.9333333333334C955.7333333333333 145.0666666666668 955.7333333333333 196.2666666666668 921.6 230.4000000000001L622.9333333333333 512z" />
    <glyph glyph-name="department"
      unicode="&#xF11F;"
      horiz-adv-x="1024" d=" M680.96 184.3200000000001H0C0 184.3200000000001 0 250.8800000000001 20.48 271.36S46.08 332.8 163.84 348.16C286.72 373.76 271.36 435.2 271.36 435.2C271.36 460.8 271.36 491.52 271.36 491.52S220.16 517.1199999999999 199.68 573.4399999999999C158.72 583.6800000000001 163.84 593.92 158.72 614.4C158.72 614.4 143.36 696.3199999999999 174.08 696.3199999999999C174.08 696.3199999999999 209.92 696.3199999999999 199.68 716.8C199.68 752.64 199.68 752.64 199.68 773.12C199.68 793.6 220.16 849.92 261.12 855.04C307.2000000000001 860.16 276.48 855.04 286.72 855.04C307.2000000000001 855.04 302.0800000000001 865.28 327.6800000000001 865.28L348.1600000000001 870.4C373.76 870.4 389.12 808.96 404.48 808.96C419.8400000000001 808.96 424.9600000000001 814.0799999999999 450.5600000000001 808.96C491.5200000000001 803.84 476.1600000000001 803.84 486.4 773.12C486.4 752.6399999999999 491.52 737.28 486.4 716.8S522.24 701.44 522.24 701.44C558.0799999999999 701.44 542.72 604.1600000000001 542.72 604.1600000000001C527.36 583.6800000000001 506.8800000000001 578.56 481.28 563.2C460.8 517.1199999999999 414.7200000000001 491.52 414.7200000000001 491.52S409.6 450.5599999999999 409.6 445.44C409.6 440.32 409.6 378.8799999999999 532.48 363.52C599.0400000000001 348.1599999999999 655.3600000000001 327.68 670.7200000000001 286.7199999999999C686.08 250.88 680.96 184.3200000000001 680.96 184.3200000000001L680.96 184.3200000000001zM798.72 184.3200000000001C798.72 184.3200000000001 798.72 220.16 773.12 286.7200000000001C752.64 312.3200000000001 732.16 332.8000000000001 691.2 363.52C691.2 384 691.2 409.6 691.2 409.6S650.24 430.0800000000001 634.8800000000001 471.0400000000001C609.2800000000001 486.4000000000001 609.2800000000001 491.5200000000001 609.2800000000001 506.88C609.2800000000001 506.88 604.1600000000001 568.3199999999999 624.6400000000001 568.3199999999999C624.6400000000001 568.3199999999999 640.0000000000001 568.3199999999999 640.0000000000001 583.6800000000001C640.0000000000001 609.28 640.0000000000001 650.24 640.0000000000001 670.72C640.0000000000001 686.0799999999999 645.1200000000001 732.1600000000001 680.9600000000002 737.28C706.5600000000002 737.28 696.3200000000002 732.1600000000001 706.5600000000002 732.1600000000001C721.9200000000002 732.1600000000001 711.6800000000002 737.28 732.1600000000002 737.28L768 742.4C788.48 742.4 803.84 716.8 814.08 716.8C829.44 716.8 819.2 721.92 839.68 716.8C880.64 706.56 870.4000000000001 660.48 870.4000000000001 645.1199999999999C870.4000000000001 629.76 870.4000000000001 583.6800000000001 870.4000000000001 568.3199999999999C870.4000000000001 552.9599999999999 875.5200000000001 552.9599999999999 875.5200000000001 552.9599999999999C896 552.9599999999999 896 491.52 896 491.52C890.88 476.16 880.64 471.04 860.1600000000001 455.6799999999999C844.8000000000001 414.7199999999999 803.8400000000001 389.1199999999999 803.8400000000001 389.1199999999999S803.8400000000001 363.52 798.7200000000001 348.1599999999999C798.7200000000001 348.1599999999999 778.2400000000001 302.08 875.5200000000001 286.7199999999999C962.56 271.3599999999999 983.0400000000002 245.7599999999999 998.4 225.28C1018.88 209.92 1018.88 168.96 1018.88 168.96S916.48 184.3200000000001 798.72 184.3200000000001L798.72 184.3200000000001z" />
    <glyph glyph-name="down"
      unicode="&#xF120;"
      horiz-adv-x="1024" d=" M529.0666666666667 142.2222222222223L238.9333333333334 489.2444444444444C216.1777777777778 529.0666666666667 233.2444444444444 568.8888888888889 278.7555555555556 568.8888888888889L409.6 568.8888888888889V796.4444444444445H728.1777777777778V568.8888888888889L859.0222222222222 568.8888888888889C904.5333333333334 568.8888888888889 921.6000000000003 529.0666666666667 898.8444444444444 489.2444444444444L608.7111111111111 142.2222222222223C585.9555555555555 102.4000000000001 551.8222222222222 102.4000000000001 529.0666666666667 142.2222222222223L529.0666666666667 142.2222222222223z" />
    <glyph glyph-name="down_last"
      unicode="&#xF121;"
      horiz-adv-x="1024" d=" M608.711111111111 238.9333333333333L898.8444444444443 563.1999999999999C921.6 603.0222222222221 904.5333333333332 637.1555555555556 859.0222222222221 637.1555555555556L728.1777777777778 637.1555555555556V853.3333333333334H409.6V642.8444444444444L278.7555555555556 642.8444444444444C233.2444444444445 642.8444444444444 216.1777777777778 603.0222222222222 238.9333333333334 568.8888888888889L529.0666666666667 244.6222222222223C534.7555555555556 238.9333333333334 540.4444444444445 227.5555555555557 546.1333333333334 227.5555555555557H250.3111111111112V113.7777777777778H887.4666666666666L887.4666666666666 221.8666666666668H591.6444444444443C597.3333333333333 221.8666666666668 603.0222222222221 233.2444444444444 608.711111111111 238.9333333333333z" />
    <glyph glyph-name="edit"
      unicode="&#xF122;"
      horiz-adv-x="1024" d=" M85.3333333333333 85.3333333333334V341.3333333333334L665.5999999999999 913.0666666666668L904.5333333333334 674.1333333333334L341.3333333333333 85.3333333333334H85.3333333333333L85.3333333333333 85.3333333333334zM170.6666666666667 341.3333333333334V170.6666666666668H341.3333333333333L170.6666666666667 341.3333333333334L170.6666666666667 341.3333333333334z" />
    <glyph glyph-name="embet"
      unicode="&#xF123;"
      horiz-adv-x="1024" d=" M597.3333333333333 512H853.3333333333333V426.6666666666668H426.6666666666667V853.3333333333334H512V597.3333333333334L853.3333333333333 938.6666666666666L938.6666666666666 853.3333333333334L597.3333333333333 512L597.3333333333333 512zM85.3333333333333 682.6666666666667V256C85.3333333333333 204.8000000000001 119.4666666666667 170.6666666666668 170.6666666666667 170.6666666666668H682.6666666666666C733.8666666666666 170.6666666666668 768 204.8000000000001 768 256V341.3333333333334H853.3333333333333V256C853.3333333333333 162.1333333333335 776.5333333333333 85.3333333333334 682.6666666666666 85.3333333333334H170.6666666666667C76.8 85.3333333333334 0 162.1333333333335 0 256V682.6666666666667C0 776.5333333333333 76.8 853.3333333333334 170.6666666666667 853.3333333333334H341.3333333333333V768H170.6666666666667C119.4666666666667 768 85.3333333333333 733.8666666666667 85.3333333333333 682.6666666666667L85.3333333333333 682.6666666666667z" />
    <glyph glyph-name="endchat"
      unicode="&#xF124;"
      horiz-adv-x="1024" d=" M656 493.984L924 760C960 796 960 856 924 894.0160000000001C885.984 930.016 825.984 930.016 789.984 894.0160000000001L523.9680000000001 628L257.9520000000001 894.0160000000001C219.9360000000001 930.016 161.9520000000001 930.016 123.9360000000001 894.0160000000001C87.9360000000001 856 87.9360000000001 796 123.9360000000001 760L389.9520000000001 493.9839999999999L123.9360000000001 227.9679999999999C87.9360000000001 191.9679999999999 87.9360000000001 131.9679999999999 123.9360000000001 93.9519999999999C161.9520000000001 57.9519999999999 219.9360000000001 57.9519999999999 257.9520000000001 93.9519999999999L523.9680000000001 359.9679999999999L789.9840000000002 93.9519999999998C825.9840000000002 57.9519999999998 885.9840000000002 57.9519999999998 924.0000000000002 93.9519999999998C960.0000000000002 131.9679999999997 960.0000000000002 191.9679999999997 924.0000000000002 227.9679999999998z" />
    <glyph glyph-name="error_message"
      unicode="&#xF125;"
      horiz-adv-x="993.8823529411765" d=" M849.3176470588235 876.4235294117647C1042.070588235294 677.6470588235294 1042.070588235294 352.3764705882354 846.3058823529411 153.6C650.5411764705882 -48.1882352941177 337.3176470588235 -48.1882352941177 141.5529411764706 150.5882352941177C-51.2 349.364705882353 -51.2 674.6352941176469 144.5647058823529 873.4117647058823C343.3411764705883 1072.1882352941177 656.564705882353 1075.2 849.3176470588235 876.4235294117647L849.3176470588235 876.4235294117647z M551.1529411764706 512L740.8941176470588 704.7529411764706C755.9529411764706 722.8235294117646 755.9529411764706 749.929411764706 740.8941176470588 764.9882352941177C725.8352941176471 783.0588235294117 698.729411764706 783.0588235294117 680.6588235294118 764.9882352941177L490.9176470588235 572.2352941176471L313.2235294117648 755.9529411764706C298.164705882353 774.0235294117647 271.0588235294118 774.0235294117647 252.9882352941177 755.9529411764706C237.9294117647059 737.8823529411765 237.9294117647059 710.7764705882353 252.9882352941177 695.7176470588236L430.6823529411765 512L252.9882352941177 328.2823529411765C237.9294117647059 310.2117647058823 237.9294117647059 283.1058823529412 252.9882352941177 268.0470588235294C268.0470588235295 249.9764705882352 295.1529411764706 249.9764705882352 313.2235294117648 268.0470588235294L490.9176470588235 451.7647058823529L680.6588235294118 259.0117647058825C695.7176470588236 240.9411764705883 722.8235294117646 240.9411764705883 740.8941176470588 259.0117647058825C755.9529411764706 277.0823529411766 755.9529411764706 304.1882352941177 740.8941176470588 319.2470588235294L551.1529411764706 512z" />
    <glyph glyph-name="exit"
      unicode="&#xF126;"
      horiz-adv-x="1024" d=" M691.2 691.2C665.6 716.8 627.2 716.8 601.6 691.2L512 601.6L422.4 691.2C396.8 716.8000000000001 358.4 716.8000000000001 332.8 691.2S307.2 627.2 332.8 601.6L422.4 512L332.8 422.4C307.2 396.8 307.2 358.4 332.8 332.8S396.8 307.2 422.4 332.8L512 422.4L601.6 332.8C627.2 307.2 665.6 307.2 691.2 332.8S716.8000000000001 396.8 691.2 422.4L601.6 512L691.2 601.6C716.8000000000001 627.2 716.8000000000001 665.6 691.2 691.2z M512 1024C230.4 1024 0 793.6 0 512S230.4 0 512 0S1024 230.4 1024 512S793.6 1024 512 1024zM512 121.6C294.4 121.6 121.6 294.4000000000001 121.6 512S300.8 902.4 512 902.4C729.6 902.4 902.4 729.5999999999999 902.4 512S729.5999999999999 121.6 512 121.6z" />
    <glyph glyph-name="facebook"
      unicode="&#xF127;"
      horiz-adv-x="1024" d=" M888.289156626506 1024H129.5421686746988C61.6867469879518 1024 0 968.4819277108434 0 894.4578313253012V129.5421686746987C0 61.6867469879518 55.5180722891566 0 129.5421686746988 0H462.6506024096386V413.3012048192772H382.4578313253013V549.0120481927711H462.6506024096386V573.6867469879518C462.6506024096386 623.0361445783133 468.8192771084338 653.8795180722891 481.1566265060241 678.5542168674699C499.6626506024097 703.2289156626506 518.1686746987953 727.9036144578313 555.1807228915663 746.4096385542168S623.0361445783133 771.0843373493976 678.5542168674699 771.0843373493976S771.0843373493976 752.5783132530121 826.6024096385543 740.2409638554217L789.5903614457832 623.0361445783133C758.7469879518072 635.3734939759036 734.0722891566265 653.8795180722891 703.2289156626506 653.8795180722891S653.8795180722892 647.710843373494 641.5421686746988 635.3734939759036C616.8674698795181 616.867469879518 629.2048192771084 561.3493975903614 629.2048192771084 561.3493975903614H795.7590361445783L764.9156626506025 425.6385542168674H641.5421686746988V6.1686746987951H894.4578313253013C962.3132530120482 6.1686746987951 1024 61.6867469879518 1024 135.710843373494V894.4578313253012C1017.8313253012049 968.4819277108434 962.3132530120482 1024 888.289156626506 1024zM462.6506024096386 6.1686746987951H641.5421686746988H462.6506024096386z" />
    <glyph glyph-name="filters"
      unicode="&#xF128;"
      horiz-adv-x="1024" d=" M576 512V192L448 64V512L0 1024H1024L576 512zM672 768L832 960H192L352 768H672z" />
    <glyph glyph-name="folder-open"
      unicode="&#xF129;"
      horiz-adv-x="1024" d=" M832 64L1024 576H192L0 64zM128 640L0 64V896H288L416 768H832V640z" />
    <glyph glyph-name="folder"
      unicode="&#xF12A;"
      horiz-adv-x="1024" d=" M448 896L576 768H1024V64H0V896z" />
    <glyph glyph-name="folder_close"
      unicode="&#xF12B;"
      horiz-adv-x="1024" d=" M64 64C64 64 0 76.8 0 128C0 128 0 844.8 0 832C0 876.8 64 896 64 896H384C428.8 896 441.6 844.8 441.6 844.8C441.6 774.4 505.6 774.4 505.6 774.4L960 768C1017.6 768 1024 704 1024 704V128C1017.6 83.2000000000001 960 64 960 64H64L64 64z" />
    <glyph glyph-name="folder_open"
      unicode="&#xF12C;"
      horiz-adv-x="1081.6" d=" M256 64L896 64C896 64 940.8 64 953.6 108.8L1088 499.1999999999999C1088 499.1999999999999 1107.2 569.5999999999999 1030.4 569.5999999999999C1030.4 569.5999999999999 409.6000000000002 569.5999999999999 249.6000000000002 569.5999999999999C224 576 192 512 192 512L192 121.6C192 121.6 230.4 64 256 64L256 64zM128 70.4C128 70.4 89.6 76.8 89.6 115.1999999999999L0 780.8C0 780.8 0 748.8 0 793.6C0 832 32 825.6 32 825.6H345.6C390.4000000000001 825.6 384 774.4 384 774.4C377.6 710.4 448 704 448 704L921.6 704C960 704 953.6 672 953.6 672C953.6 640 921.6 640 921.6 640H198.4C115.2 640 128 563.2 128 563.2L128 70.4L128 70.4z" />
    <glyph glyph-name="font"
      unicode="&#xF12D;"
      horiz-adv-x="1024" d=" M640 832H0V704H256V128H384V704H640zM960 576H448V448H640V128H768V448H960z" />
    <glyph glyph-name="gotomeeting"
      unicode="&#xF12E;"
      horiz-adv-x="1024" d=" M512 960C538.016 960 564 948 582.016 933.984C602.016 915.968 614.016 889.984 614.016 863.9680000000001S602.016 811.9680000000001 582.016 793.952C576 787.936 570.016 787.936 570.016 779.936C570.016 779.936 570.016 779.936 564 773.9200000000001C532 747.904 517.984 709.9200000000001 532 671.904C544 645.8879999999999 576 627.904 608 627.904C608 627.904 614.016 627.904 614.016 627.904C660.0319999999999 633.9200000000001 684.0319999999999 665.9200000000001 692.0319999999999 703.904C698.0479999999999 735.904 710.0479999999999 761.9200000000001 730.0479999999999 779.904C748.0639999999999 793.92 768.0639999999999 799.904 788.0639999999999 799.904C812.0639999999999 799.904 838.0799999999998 793.888 858.0799999999998 773.888C890.0799999999998 741.888 896.0959999999998 697.888 876.0959999999998 651.8720000000001C858.0799999999998 619.8720000000001 826.0799999999998 607.8720000000001 794.0799999999998 607.8720000000001C780.0639999999999 607.8720000000001 768.0639999999999 607.8720000000001 762.0799999999998 613.888C756.0639999999999 613.888 756.0639999999999 613.888 748.0639999999999 619.904C742.0479999999999 619.904 736.0639999999999 627.904 730.0479999999999 627.904S716.0319999999999 627.904 704.0319999999999 627.904C678.016 627.904 652.0319999999999 613.888 634.016 587.904C614.016 563.904 614.016 523.904 634.016 499.904C652.0319999999999 473.888 678.016 459.904 704.0319999999999 459.904C710.0479999999999 459.904 716.0319999999999 459.904 724.0319999999999 459.904C730.0479999999999 459.904 736.0319999999999 467.904 742.0479999999999 467.904C742.0479999999999 467.904 748.0639999999999 467.904 748.0639999999999 467.904C762.0799999999998 473.92 774.0799999999998 473.92 788.0639999999999 473.92C832.0639999999999 473.92 870.0799999999998 447.904 884.0639999999999 403.904C890.0799999999998 377.8880000000001 890.0799999999998 351.904 870.0479999999999 325.8880000000001C858.0479999999999 299.8720000000001 832.0319999999999 287.8720000000001 806.0479999999999 281.8880000000001C800.0319999999999 281.8880000000001 794.0479999999999 281.8880000000001 788.0319999999999 281.8880000000001C736.0319999999999 281.8880000000001 692.0319999999999 319.904 684.0319999999999 371.904C678.016 421.92 646.016 453.92 602.016 453.92C596 453.92 588 453.92 582.016 453.92C564 447.904 538.016 427.904 532 403.904C524 377.8880000000001 532 345.8880000000001 550.016 319.904C556.0319999999999 313.8880000000001 564.0319999999999 307.904 570.016 299.904H576.0319999999999C608.0319999999999 275.904 620.0319999999999 229.8880000000001 608.0319999999999 191.904S556.0319999999999 127.904 512.0319999999999 127.904C468.0319999999999 127.904 428.032 153.92 416.032 191.904S416.032 275.904 454.0479999999999 299.904C474.0479999999999 319.904 500.064 345.92 500.064 383.904C492.064 427.904 460.064 459.904 422.048 459.904C422.048 459.904 416.032 459.904 416.032 459.904C378.0159999999999 459.904 340.032 435.904 332.032 389.8880000000001C332.032 383.8720000000001 332.032 377.8880000000001 332.032 377.8880000000001C332.032 371.8720000000001 332.032 371.8720000000001 332.032 363.8720000000001C320.032 319.8720000000001 276.032 287.8720000000001 230.0159999999999 287.8720000000001C223.9999999999999 287.8720000000001 218.0159999999999 287.8720000000001 203.9999999999999 287.8720000000001C179.9999999999999 293.8880000000001 153.9839999999999 313.8880000000001 139.9999999999999 331.8720000000001C127.9999999999999 357.8880000000001 127.9999999999999 383.8720000000001 133.9839999999999 409.8880000000001C147.9999999999999 447.904 185.9839999999999 479.904 229.9839999999999 479.904C243.9999999999999 479.904 255.9999999999999 479.904 261.9839999999999 473.888C281.9839999999999 467.8720000000001 300 459.8720000000001 320 459.8720000000001C320 459.8720000000001 326.016 459.8720000000001 326.016 459.8720000000001C346.016 459.8720000000001 364.032 473.888 384.032 491.8720000000001C396.032 511.8720000000001 404.032 531.8720000000001 404.032 555.8720000000001C390.016 595.8720000000001 358.016 627.8720000000001 314.016 627.8720000000001C308 627.8720000000001 300 627.8720000000001 294.016 627.8720000000001C282.016 627.8720000000001 276 619.8720000000001 262.016 619.8720000000001C256 607.8720000000001 244 607.8720000000001 230.016 607.8720000000001C186.016 607.8720000000001 148 633.8880000000001 134.016 677.8880000000001C128 697.8880000000001 128 729.8880000000001 140.032 747.9040000000001C154.048 773.9200000000001 180.032 787.9040000000001 204.032 793.9200000000001C212.032 793.9200000000001 224.032 793.9200000000001 230.048 793.9200000000001C282.048 799.9360000000001 320.064 767.9040000000001 326.048 715.9040000000001C332.064 683.9040000000001 346.048 639.9040000000001 396.064 627.9040000000001C404.064 627.9040000000001 410.08 627.9040000000001 416.064 627.9040000000001C448.064 627.9040000000001 474.08 639.9040000000001 486.08 665.9200000000001C506.08 697.9200000000001 506.08 735.9360000000001 480.064 761.9200000000001C474.0479999999999 773.9200000000001 460.064 779.9360000000001 454.0479999999999 787.9360000000001C428.032 805.9520000000001 416.032 825.9520000000001 416.032 857.9520000000001C416.032 883.9680000000001 422.048 907.968 442.048 927.968C454.0479999999999 947.968 486.0479999999999 959.968 512.064 959.968" />
    <glyph glyph-name="great-than"
      unicode="&#xF12F;"
      horiz-adv-x="1024" d=" M785.0666666666666 435.2000000000001L375.4666666666666 25.6000000000001C341.3333333333333 -8.5333333333333 290.1333333333333 -8.5333333333333 256 25.6000000000001S221.8666666666666 110.9333333333334 256 145.0666666666668L605.8666666666666 503.4666666666668L238.9333333333333 870.4C204.8 904.5333333333334 204.8 964.2666666666667 238.9333333333333 998.4S332.8 1032.5333333333333 366.9333333333333 998.4L785.0666666666666 571.7333333333333C819.1999999999999 537.6 819.1999999999999 469.3333333333334 785.0666666666666 435.2000000000001z" />
    <glyph glyph-name="helpdesk"
      unicode="&#xF130;"
      horiz-adv-x="1024" d=" M512 0C230.4 0 0 230.4 0 512S230.4 1024 512 1024S1024 800 1024 512C1024 230.4 793.6 0 512 0zM704 115.2000000000001C780.8 153.6 844.8 217.6 889.6 288L755.2 396.8C729.6 345.5999999999999 684.8000000000001 300.8 633.6 268.8L704 115.1999999999999zM307.2 115.2000000000001L403.2 268.8000000000001C345.6 294.4000000000001 294.4 339.2000000000001 268.8 403.2000000000001L121.6 294.4000000000001C166.4 217.6000000000001 230.4 153.6000000000001 307.2 115.2000000000001zM320 908.8C230.4 870.4 153.6 793.6 108.8 710.4L256 608C281.6 678.4 332.8 729.6 396.8 761.6L320 908.8zM313.6 512C313.6 409.6 403.2000000000001 320 512 320C620.8 320 704 409.6 704 512C704 620.8 620.8 710.4 512 710.4S313.6 620.8 313.6 512zM697.6 908.8L620.8 761.6C684.8 729.6 736 678.4000000000001 761.5999999999999 608L896 710.4C857.6 800 780.8 864 697.6 908.8z" />
    <glyph glyph-name="history"
      unicode="&#xF131;"
      horiz-adv-x="1024" d=" M512 1024C227.5328 1024 0 796.4672 0 512S227.5328 0 512 0S1024 227.5328000000001 1024 512S796.4671999999999 1024 512 1024zM512 102.4C284.4672 102.4 102.4 284.4672 102.4 512S284.4672 921.6 512 921.6S921.6 739.5328 921.6 512S739.5328000000001 102.4 512 102.4z M756.5312 563.2H563.2V830.6687999999999C563.2 859.136 540.4671999999999 881.8688 512 881.8688S460.8 859.136 460.8 830.6687999999999V586.1376V512C460.8 483.5328000000001 483.5328 460.8 512 460.8H756.5312C784.9984 460.8 807.7312 483.5328000000001 807.7312 512S784.9984000000001 563.2 756.5312 563.2z" />
    <glyph glyph-name="icon"
      unicode="&#xF132;"
      horiz-adv-x="1024" d=" M446.016 568H726.0160000000001V922.016C726.0160000000001 956.032 702.0160000000001 978.016 668.0000000000001 978.016H245.9840000000001L-0.0319999999999 734.0160000000001V108C-0.0319999999999 73.984 27.9680000000001 45.984 61.9840000000001 45.984H668.0000000000001C702.0160000000001 45.984 726.0160000000001 68 726.0160000000001 101.984V308H446.0160000000001zM70.016 725.9839999999999L274.016 912C304.0320000000001 942.016 298.016 889.9839999999999 298.016 889.9839999999999V771.968C298.016 699.968 214.016 699.968 214.016 699.968H84C29.984 697.952 69.984 725.9839999999999 69.984 725.9839999999999zM1024 440L781.984 606.016V530.016H483.968V344H781.984V269.9840000000001z" />
    <glyph glyph-name="info"
      unicode="&#xF133;"
      horiz-adv-x="1024" d=" M512 972C256 972 52 768 52 512S256 52 512 52C768 52 972 256 972 512S768 972 512 972zM588 256C564 245.9840000000001 552 249.9840000000001 537.984 245.9840000000001C521.984 239.9680000000001 505.984 235.9680000000001 485.984 235.9680000000001C455.968 235.9680000000001 429.9840000000001 239.9680000000001 413.9840000000001 255.9680000000001C399.968 271.9680000000001 383.968 291.9680000000001 383.968 311.9680000000001C383.968 321.9840000000001 383.968 331.9680000000001 383.968 337.9840000000001C383.968 348 389.9840000000001 373.9840000000001 389.9840000000001 384L436.0000000000001 486.016C440.0000000000001 496.0319999999999 440.0000000000001 506.016 440.0000000000001 518.016C440.0000000000001 528.0319999999999 446.0160000000001 528.0319999999999 446.0160000000001 538.016C446.0160000000001 552.0319999999999 436.0000000000001 564.0319999999999 430.0160000000001 568.0319999999999C420.0000000000001 578.048 394.0160000000001 584.0319999999999 374.0160000000001 584.0319999999999C364.0000000000001 584.0319999999999 358.0160000000001 584.0319999999999 348.0000000000001 578.016C344.0000000000001 574.016 332.0000000000001 574.016 328.0000000000001 568V610.016C354.0160000000001 620.0319999999999 394.0160000000001 634.016 410.0160000000001 640.0319999999999C430.0160000000001 646.048 446.0160000000001 650.048 466.0160000000001 650.048C496.0320000000001 650.048 522.0160000000001 646.048 538.0160000000001 630.048C552.032 614.048 574.0160000000001 588.0319999999999 574.0160000000001 568.0319999999999C574.0160000000001 564.0319999999999 574.0160000000001 552.0319999999999 574.0160000000001 542.016S568.0000000000001 518.016 568.0000000000001 506.016L521.9840000000002 404C517.9840000000002 393.9840000000001 517.9840000000002 384 517.9840000000002 373.9840000000001S511.9680000000001 337.9840000000001 511.9680000000001 331.9680000000001C511.9680000000001 317.9520000000001 517.9840000000002 307.9680000000001 521.9840000000002 301.9520000000001C528.0000000000001 295.9360000000002 537.9840000000002 285.9520000000001 552.0000000000001 285.9520000000001C574.0160000000001 285.9520000000001 574.0160000000001 281.9520000000001 594.0160000000001 291.9680000000001zM604 721.9839999999999C588 705.9839999999999 573.984 695.968 552 695.968C532 695.968 512 705.9839999999999 496 721.9839999999999C481.984 737.9839999999999 476 752 476 773.9839999999999C476 793.9839999999999 482.016 808 496 824C512 840 528 844 552 844C574.016 844 594.016 840 604 824C620 808 624 788 624 773.9839999999999C630.016 751.968 620 737.9839999999999 604 721.9839999999999z" />
    <glyph glyph-name="insite"
      unicode="&#xF134;"
      horiz-adv-x="1024" d=" M450.016 897.984C420 897.984 444 887.968 432 887.968C416 887.968 456 887.968 404 881.952C352 869.952 341.984 813.952 341.984 789.952C341.984 767.9359999999999 341.984 761.952 341.984 727.9359999999999C341.984 705.92 317.984 705.92 317.984 705.92C289.984 705.92 283.968 619.904 283.968 619.904C289.984 597.8879999999999 283.968 585.8879999999999 329.984 567.904C348 511.904 397.984 483.904 397.984 483.904S397.984 449.8880000000001 404 419.904C397.984 419.904 397.984 351.904 261.9840000000001 335.904C129.984 317.8880000000001 101.984 273.8880000000001 79.9680000000001 249.8880000000001C55.968 221.888 55.968 113.888 55.968 113.888H909.984C909.984 113.888 903.968 221.888 881.984 243.904C859.9680000000001 267.904 829.984 311.904 699.9680000000001 329.92C567.9680000000001 347.9359999999999 573.9520000000001 415.9359999999999 573.9520000000001 419.9359999999999C573.9520000000001 431.9359999999999 579.9680000000001 471.9359999999999 579.9680000000001 471.9359999999999S619.9680000000001 511.9359999999999 637.984 567.9359999999999C672 591.9359999999999 681.984 591.9359999999999 688 613.952C688 613.952 706.016 699.968 665.984 699.968C665.984 699.968 625.984 699.968 631.9680000000001 715.968C637.984 739.968 637.984 745.9839999999999 631.9680000000001 767.968C631.9680000000001 789.9839999999999 641.984 853.9839999999999 597.9520000000001 863.968C563.9360000000001 869.9839999999999 573.9520000000001 859.968 557.9520000000001 863.968C539.9360000000001 869.9839999999999 523.9360000000001 909.984 493.9520000000001 909.984z" />
    <glyph glyph-name="inv-waiting"
      unicode="&#xF135;"
      horiz-adv-x="1024" d=" M968 228H796V56H681.984V228H511.9680000000001V342.016H681.984V512.0319999999999H796V342.016H968zM638.016 568C614.016 512 574.016 477.984 574.016 477.984S568 431.9680000000001 568 419.9680000000001C568 419.9680000000001 568 409.9520000000001 574.016 397.9520000000001H455.9999999999999V169.9520000000001H626.016V113.9520000000001H56C56 113.9520000000001 56 221.9520000000001 80 243.9680000000001C102.016 267.9680000000001 130.016 311.9680000000001 262.016 329.9840000000001C398.016 352 398.016 420 404.032 420C404.032 444 398.0159999999999 484 398.0159999999999 484S347.9999999999999 512 330.0159999999999 568C283.9999999999999 586.0160000000001 290.0159999999999 598.0160000000001 283.9999999999999 620C283.9999999999999 620 290.0159999999999 712 318.0159999999999 706.0160000000001C318.0159999999999 706.0160000000001 342.0159999999999 706.0160000000001 336.032 728.032C336.032 762.048 336.032 768.032 336.032 790.048C342.048 814.048 352.032 870.048 398.048 882.048S410.048 888.0640000000001 426.048 888.0640000000001C444.064 888.0640000000001 416.032 898.08 444.064 898.08L494.08 910.08C524.096 910.08 546.0799999999999 870.08 558.0799999999999 864.0640000000001C574.0799999999999 864.0640000000001 564.0959999999999 870.08 598.0799999999999 864.0640000000001C642.0799999999999 854.048 632.0959999999999 790.048 632.0959999999999 768.0640000000001S638.1119999999999 740.0640000000001 632.0959999999999 716.0640000000001C626.0799999999999 694.048 666.1119999999999 700.0640000000001 666.1119999999999 700.0640000000001C700.1279999999998 700.0640000000001 688.1279999999998 614.048 688.1279999999998 614.048C682.1119999999999 592.0319999999999 672.1279999999998 592.0319999999999 638.1119999999999 568.0319999999999z" />
    <glyph glyph-name="joinme"
      unicode="&#xF136;"
      horiz-adv-x="1024" d=" M486.016 340C384 313.9840000000001 148 300 148 300C57.984 300 0 378.016 0 468V660C0 756 58.016 832 154.016 832C154.016 832 410.016 812 486.016 793.984C588.0319999999999 767.9680000000001 652.0319999999999 709.984 652.0319999999999 613.984V517.984C652.0319999999999 421.9840000000001 582.016 357.9840000000001 486.016 339.9680000000001zM896 192C896 192 684 198.016 596 224C512 244 473.984 300 473.984 340V486.016C473.984 550.016 524 596.0319999999999 613.9839999999999 620.0319999999999C671.9999999999999 634.048 896 640.0319999999999 896 640.0319999999999C972 640.0319999999999 1024 576.0319999999999 1024 492.0319999999999V326.016C1024 262.016 972 192 896 192z" />
    <glyph glyph-name="junk"
      unicode="&#xF137;"
      horiz-adv-x="1024" d=" M512 0C230.4 0 0 230.4 0 512S230.4 1024 512 1024S1024 793.6 1024 512S793.6 0 512 0zM896 512C896 582.4 876.8 646.4 844.8 697.6L262.4 224C326.4 166.4 416 128 512 128C723.2 128 896 300.8 896 512zM128 512C128 441.6 147.2 377.6 179.2 326.4L761.5999999999999 800C697.6 857.6 608 896 512 896C300.8 896 128 723.2 128 512z" />
    <glyph glyph-name="less-than"
      unicode="&#xF138;"
      horiz-adv-x="1024" d=" M238.9333333333333 571.7333333333333L657.0666666666666 998.4C691.1999999999999 1032.5333333333333 750.9333333333334 1032.5333333333333 785.0666666666666 998.4S819.1999999999999 904.5333333333334 785.0666666666666 870.4000000000001L418.1333333333334 503.4666666666667L768 145.0666666666666C802.1333333333333 110.9333333333333 802.1333333333333 59.7333333333334 768 25.5999999999999S682.6666666666666 -8.5333333333333 648.5333333333333 25.5999999999999L238.9333333333333 435.2000000000001C204.8 469.3333333333334 204.8 537.6 238.9333333333333 571.7333333333333z" />
    <glyph glyph-name="link"
      unicode="&#xF139;"
      horiz-adv-x="1024" d=" M921.6 601.6L774.4000000000001 454.4000000000001C723.2 403.2000000000001 633.6000000000001 403.2000000000001 576.0000000000001 454.4000000000001L652.8000000000001 531.2C678.4000000000001 524.8000000000002 704.0000000000001 537.6000000000001 723.2 550.4000000000001L819.2 646.4000000000001C844.8000000000001 672.0000000000001 844.8000000000001 716.8000000000001 819.2 742.4000000000001L748.8000000000001 812.8000000000001C723.2 838.4000000000001 678.4000000000001 838.4000000000001 652.8000000000001 812.8000000000001L550.4 723.2C531.2 704 524.8 678.4 531.2 652.8L454.4 576C403.2 627.2 403.2 716.8 454.4 774.4L601.5999999999999 921.6C652.8 972.8 742.3999999999999 972.8 799.9999999999999 921.6L921.6 800C972.8 742.4 972.8 659.2 921.6 601.6L921.6 601.6zM320 320C300.8 339.2000000000001 300.8 371.2000000000001 320 390.4L563.2 640C582.4 659.2 620.8 659.2 640 640C659.2 620.8 659.2 588.8 640 569.6L396.8 320C371.2 300.8 339.2 300.8 320 320L320 320zM236.8 409.6L140.8 313.6C115.2 288 115.2 243.2000000000001 140.8 217.6L211.2 147.2000000000001C236.8 121.6 281.6 121.6 307.2000000000001 147.2000000000001L403.2000000000001 243.2000000000001C422.4000000000001 262.4000000000001 428.8000000000001 288 422.4000000000001 313.6L505.6 384C556.8000000000001 332.8 556.8000000000001 243.2000000000001 505.6 185.6L358.4000000000001 38.4000000000001C307.2000000000001 -12.8 217.6 -12.8 160 38.4000000000001L38.4 160.0000000000001C-12.8 211.2000000000002 -12.8 300.8000000000002 38.4 358.4000000000001L185.6 505.6000000000001C236.8 556.8000000000002 326.4000000000001 556.8000000000002 384 505.6000000000001L307.2 428.8C281.6 435.2000000000001 256 428.8 236.8 409.6L236.8 409.6z" />
    <glyph glyph-name="location"
      unicode="&#xF13A;"
      horiz-adv-x="1024" d=" M505.6 0C505.6 0 128 428.8 128 608C128 800 307.2 960 512 960C716.8 960 896 800 896 608C896 422.4 505.6 0 505.6 0L505.6 0zM512 851.2C448 851.2 396.8 800 396.8 742.4C396.8 678.4 448 627.2 512 627.2C576 627.2 627.2 678.4 627.2 736C627.2 800 576 851.2 512 851.2L512 851.2z" />
    <glyph glyph-name="login-help"
      unicode="&#xF13B;"
      horiz-adv-x="1024" d=" M512 1024C229.984 1024 0 793.984 0 512S230.016 0 512 0C794.0160000000001 0 1024 230.016 1024 512S793.984 1024 512 1024zM582.016 244H442.016V308H582.016zM582.016 389.9840000000001V377.9840000000001H442.016V480C442.016 500 460.032 512 480.032 512S512.0319999999999 512 512.0319999999999 512C550.0479999999999 512 582.0479999999999 544 582.0479999999999 582.0160000000001S550.0479999999999 652.032 512.0319999999999 652.032C474.0159999999999 652.032 442.0159999999999 614.0160000000001 442.0159999999999 582.0160000000001H314.0159999999999C314.0159999999999 692.032 404.032 780.032 512.0319999999999 780.032S710.0479999999999 692.032 710.0479999999999 582.0160000000001C710.0479999999999 492 660.0319999999999 416 582.0479999999999 390.0160000000001z" />
    <glyph glyph-name="login-password"
      unicode="&#xF13C;"
      horiz-adv-x="1024" d=" M768 669.9839999999999H264C204 669.9839999999999 153.984 617.9839999999999 153.984 557.9839999999999V203.968C153.984 145.952 204 93.952 264 93.952H768C828 93.952 878.016 145.952 878.016 203.968V557.9839999999999C878.016 621.9839999999999 832 669.9839999999999 768 669.9839999999999zM564 376V293.9840000000001C564 267.9680000000001 541.984 243.9680000000001 512 243.9680000000001C485.984 243.9680000000001 460 263.9680000000001 460 293.9840000000001V376C448 388 440 406.016 440 426.016C440 466.016 470.016 494.016 508 494.016S576 466.016 576 426.016C584 406.016 576 388 564 376zM524 877.984C610.016 877.984 678.016 813.984 686.016 733.984H786.016C776 869.984 662.016 981.984 524 981.984C384 981.984 273.9840000000001 869.984 260 733.984H362.016C376.0320000000001 813.984 444.0320000000001 877.984 524.032 877.984z" />
    <glyph glyph-name="login-user"
      unicode="&#xF13D;"
      horiz-adv-x="1024" d=" M478.016 968C444 968 448 960 430.016 956C414.016 952 436.0320000000001 960 380 948C328 937.984 312 869.9839999999999 308 844C301.984 820 301.984 745.9839999999999 308 708C312 685.9839999999999 293.984 685.9839999999999 293.984 685.9839999999999C263.968 685.9839999999999 277.984 587.968 277.984 587.968C281.984 563.968 277.984 549.952 324 533.952C346.016 469.952 406.016 435.9359999999999 406.016 435.9359999999999S410.016 391.9359999999999 410.016 365.92C406.016 371.9359999999999 426.016 289.92 278.016 267.904C132 247.904 102.016 199.904 76 173.888C52 149.888 52 25.888 52 25.888H994.016C994.016 25.888 990.016 149.888 960 173.888C933.984 199.904 900 247.904 756 267.904C609.984 289.92 636 365.92 632 371.904C632 383.904 636 429.92 636 429.92S682.016 469.92 704 533.92C738.016 553.92 750.016 557.92 760 583.9359999999999C760 583.9359999999999 772 681.952 733.984 681.952C733.984 681.952 715.9680000000001 677.952 721.984 703.9680000000001C725.984 725.984 725.984 797.984 721.984 823.9680000000001C715.9680000000001 849.984 725.984 921.984 673.984 929.984C635.9680000000001 937.984 631.9680000000001 925.984 613.984 929.984C597.984 933.984 579.9680000000001 981.984 545.984 981.984z" />
    <glyph glyph-name="logout"
      unicode="&#xF13E;"
      horiz-adv-x="1024" d=" M704 985.6V851.2C825.6 787.2 902.4 659.2 902.4 512C902.4 294.4 729.5999999999999 121.6 512 121.6S121.6 294.4000000000001 121.6 512C121.6 659.2 204.8 780.8 320 851.2V985.6C134.4 908.8 0 723.2 0 512C0 230.4 230.4 0 512 0S1024 230.4 1024 512C1024 723.2 889.6 908.8 704 985.6z M512 512C550.4 512 576 537.6 576 576V960C576 998.4 550.4 1024 512 1024S448 998.4 448 960V576C448 537.6 473.6 512 512 512z" />
    <glyph glyph-name="menu_advanced"
      unicode="&#xF13F;"
      horiz-adv-x="1024" d=" M972.8 213.3333333333334V298.6666666666668C1041.0666666666666 298.6666666666668 1015.4666666666666 384 972.8 384H896C964.2666666666667 384 981.3333333333331 469.3333333333334 896 469.3333333333334V554.6666666666667C938.6666666666666 554.6666666666667 972.8 588.8000000000001 972.8 640L810.6666666666666 810.6666666666667C776.5333333333333 844.8 742.3999999999999 896 648.5333333333333 896H409.6C315.7333333333333 896 281.6 844.8 247.4666666666667 810.6666666666667C247.4666666666667 810.6666666666667 34.1333333333333 597.3333333333334 8.5333333333333 554.6666666666667C8.5333333333333 520.5333333333333 8.5333333333333 486.4000000000001 8.5333333333333 469.3333333333334C8.5333333333333 418.1333333333335 42.6666666666667 384 85.3333333333333 384C85.3333333333333 384 153.6 384 247.4666666666667 384C247.4666666666667 384 85.3333333333333 375.4666666666667 85.3333333333333 256S247.4666666666667 128 247.4666666666667 128S699.7333333333332 128 896 128H972.8C1041.0666666666666 128 1041.0666666666666 213.3333333333334 972.8 213.3333333333334zM162.1333333333333 469.3333333333334C59.7333333333333 469.3333333333334 59.7333333333333 554.6666666666667 162.1333333333333 554.6666666666667H810.6666666666666V469.3333333333334C640 469.3333333333334 247.4666666666667 469.3333333333334 162.1333333333333 469.3333333333334zM247.4666666666667 213.3333333333334C145.0666666666667 213.3333333333334 136.5333333333333 298.6666666666668 247.4666666666667 298.6666666666668H896V213.3333333333334C716.8 213.3333333333334 324.2666666666667 213.3333333333334 247.4666666666667 213.3333333333334z" />
    <glyph glyph-name="menu_articles"
      unicode="&#xF140;"
      horiz-adv-x="1024" d=" M853.3333333333333 42.6666666666667H170.6666666666667C119.4666666666667 42.6666666666667 85.3333333333333 76.8000000000001 85.3333333333333 128V896C85.3333333333333 947.2 119.4666666666667 981.3333333333334 170.6666666666667 981.3333333333334H674.1333333333333L938.6666666666666 725.3333333333334V128C938.6666666666666 76.8000000000001 904.5333333333334 42.6666666666667 853.3333333333333 42.6666666666667L853.3333333333333 42.6666666666667zM298.6666666666667 298.6666666666668H725.3333333333333C750.9333333333334 298.6666666666668 768 315.7333333333334 768 341.3333333333334C768 366.9333333333334 750.9333333333334 384 725.3333333333333 384H298.6666666666667C273.0666666666667 384 256 366.9333333333334 256 341.3333333333334C256 315.7333333333334 273.0666666666667 298.6666666666668 298.6666666666667 298.6666666666668L298.6666666666667 298.6666666666668zM298.6666666666667 469.3333333333334H725.3333333333333C750.9333333333334 469.3333333333334 768 486.4000000000001 768 512C768 537.6 750.9333333333334 554.6666666666667 725.3333333333333 554.6666666666667H298.6666666666667C273.0666666666667 554.6666666666667 256 537.6 256 512C256 486.4000000000001 273.0666666666667 469.3333333333334 298.6666666666667 469.3333333333334L298.6666666666667 469.3333333333334zM384 725.3333333333334H298.6666666666667C273.0666666666667 725.3333333333334 256 708.2666666666667 256 682.6666666666667C256 657.0666666666667 273.0666666666667 640 298.6666666666667 640H384C409.6 640 426.6666666666667 657.0666666666667 426.6666666666667 682.6666666666667C426.6666666666667 708.2666666666667 409.6 725.3333333333334 384 725.3333333333334L384 725.3333333333334zM861.8666666666666 665.6L622.9333333333333 896C588.8 938.6666666666666 588.8 870.4 588.8 870.4V725.3333333333334C588.8 640 691.1999999999999 640 691.1999999999999 640H844.8C904.5333333333334 631.4666666666667 861.8666666666666 665.6 861.8666666666666 665.6L861.8666666666666 665.6z" />
    <glyph glyph-name="menu_design"
      unicode="&#xF141;"
      horiz-adv-x="1024" d=" M426.6666666666667 93.8666666666667H85.3333333333333C34.1333333333333 93.8666666666667 0 128 0 179.2000000000001V844.8C0 896 34.1333333333333 930.1333333333334 85.3333333333333 930.1333333333334H426.6666666666667C477.8666666666666 930.1333333333334 512 896 512 844.8V179.2000000000001C512 128 469.3333333333333 93.8666666666667 426.6666666666667 93.8666666666667L426.6666666666667 93.8666666666667zM938.6666666666666 597.3333333333334H682.6666666666666C640 597.3333333333334 597.3333333333333 631.4666666666667 597.3333333333333 682.6666666666667V844.8C597.3333333333333 896 631.4666666666667 930.1333333333334 682.6666666666666 930.1333333333334H938.6666666666666C989.8666666666666 930.1333333333334 1024 896 1024 844.8V682.6666666666667C1024 631.4666666666667 981.3333333333331 597.3333333333334 938.6666666666666 597.3333333333334L938.6666666666666 597.3333333333334zM938.6666666666666 93.8666666666667H682.6666666666666C631.4666666666667 93.8666666666667 597.3333333333333 128 597.3333333333333 179.2000000000001V469.3333333333334C597.3333333333333 520.5333333333333 631.4666666666667 520.5333333333333 682.6666666666666 520.5333333333333H938.6666666666666C989.8666666666666 520.5333333333333 1024 486.4 1024 435.2000000000001V179.2000000000001C1024 128 981.3333333333331 93.8666666666667 938.6666666666666 93.8666666666667L938.6666666666666 93.8666666666667z" />
    <glyph glyph-name="menu_images"
      unicode="&#xF142;"
      horiz-adv-x="1024" d=" M938.6666666666666 85.3333333333334H85.3333333333333C59.7333333333333 85.3333333333334 0 145.0666666666666 0 170.6666666666668V853.3333333333334C0 878.9333333333334 59.7333333333333 938.6666666666666 85.3333333333333 938.6666666666666H938.6666666666666C964.2666666666667 938.6666666666666 1024 878.9333333333334 1024 853.3333333333334V170.6666666666668C1024 145.0666666666666 964.2666666666667 85.3333333333334 938.6666666666666 85.3333333333334L938.6666666666666 85.3333333333334zM938.6666666666666 853.3333333333334H85.3333333333333V170.6666666666668H938.6666666666666V853.3333333333334L938.6666666666666 853.3333333333334zM597.3333333333333 443.7333333333334L682.6666666666666 776.5333333333333L853.3333333333333 256H170.6666666666667L426.6666666666667 512L597.3333333333333 443.7333333333334L597.3333333333333 443.7333333333334zM341.3333333333333 597.3333333333334C298.6666666666667 597.3333333333334 256 631.4666666666667 256 682.6666666666667C256 733.8666666666667 298.6666666666667 768 341.3333333333333 768C392.5333333333333 768 426.6666666666667 725.3333333333334 426.6666666666667 682.6666666666667C435.2 631.4666666666667 392.5333333333333 597.3333333333334 341.3333333333333 597.3333333333334L341.3333333333333 597.3333333333334z" />
    <glyph glyph-name="menu_settings"
      unicode="&#xF143;"
      horiz-adv-x="1024" d=" M887.4666666666667 409.6C878.9333333333334 375.4666666666667 861.8666666666666 341.3333333333334 844.8 315.7333333333334L844.8 315.7333333333334C844.8 315.7333333333334 930.1333333333334 213.3333333333334 878.9333333333334 162.1333333333332L853.3333333333333 136.5333333333333C810.6666666666666 93.8666666666667 716.8 162.1333333333335 699.7333333333332 170.6666666666668C674.1333333333332 153.6000000000001 639.9999999999999 145.0666666666666 605.8666666666666 136.5333333333333L614.3999999999999 136.5333333333333C614.3999999999999 136.5333333333333 597.3333333333333 0 520.5333333333333 0H494.9333333333333C435.2 0 409.6 128 401.0666666666666 136.5333333333333C375.4666666666667 145.0666666666666 341.3333333333333 162.1333333333335 307.2 179.2000000000001L315.7333333333334 170.6666666666668C315.7333333333334 170.6666666666668 213.3333333333333 85.3333333333334 162.1333333333333 136.5333333333333L136.5333333333333 153.5999999999999C102.4 196.2666666666668 170.6666666666667 315.7333333333334 179.2 324.2666666666668C162.1333333333333 349.8666666666668 153.6 375.4666666666667 145.0666666666667 409.6000000000002C128 409.6 0 443.7333333333334 0 494.9333333333334V520.5333333333333C0 588.8 119.4666666666667 605.8666666666667 136.5333333333333 614.4C145.0666666666667 648.5333333333333 153.6 674.1333333333333 170.6666666666667 699.7333333333333C170.6666666666667 699.7333333333333 93.8666666666667 819.2 136.5333333333333 861.8666666666667L162.1333333333333 878.9333333333334C204.8 930.1333333333334 307.2 853.3333333333334 324.2666666666667 844.8C349.8666666666666 861.8666666666667 375.4666666666666 870.4 409.6 878.9333333333334C409.6 904.5333333333334 443.7333333333334 1024 494.9333333333333 1024H520.5333333333333C580.2666666666667 1024 605.8666666666666 913.0666666666666 614.3999999999999 878.9333333333334C648.5333333333333 870.4 674.1333333333332 853.3333333333334 699.7333333333332 844.8C716.8 853.3333333333334 827.7333333333332 921.6 861.8666666666666 878.9333333333334L887.4666666666667 853.3333333333334C930.1333333333334 810.6666666666667 861.8666666666666 716.8 853.3333333333333 699.7333333333333C870.3999999999999 674.1333333333334 878.9333333333334 640 887.4666666666667 614.4000000000001V614.4000000000001C887.4666666666667 614.4000000000001 1024 597.3333333333334 1024 520.5333333333333V494.9333333333334C1024 443.7333333333334 913.0666666666666 409.6 887.4666666666667 409.6L887.4666666666667 409.6zM512 682.6666666666667C418.1333333333334 682.6666666666667 341.3333333333333 605.8666666666667 341.3333333333333 512C341.3333333333333 418.1333333333335 418.1333333333334 332.8000000000001 512 332.8000000000001C605.8666666666666 332.8000000000001 691.1999999999999 409.6000000000002 691.1999999999999 512C691.1999999999999 605.8666666666667 605.8666666666666 682.6666666666667 512 682.6666666666667L512 682.6666666666667z" />
    <glyph glyph-name="monitor"
      unicode="&#xF144;"
      horiz-adv-x="1024" d=" M796 512L728 614.0160000000001C721.984 620.032 716 626.0160000000001 705.984 626.0160000000001C693.984 626.0160000000001 687.9680000000001 620 681.984 614.0160000000001L619.9680000000001 484L551.9680000000001 722.016C545.9520000000001 728.0319999999999 539.9680000000001 740.0319999999999 529.9520000000001 740.0319999999999C517.9520000000001 740.0319999999999 505.9520000000001 734.016 499.9360000000001 722.016L403.9360000000001 438.016L335.9360000000001 608.0319999999999C329.9200000000001 620.0319999999999 323.9360000000001 626.048 311.9360000000001 626.048C301.9200000000001 626.048 295.9360000000001 620.0319999999999 289.9200000000001 614.048L233.9200000000001 512.0319999999999H55.9040000000001V796.0319999999999C55.9040000000001 860.0319999999999 107.9040000000001 910.0479999999998 169.9200000000001 910.0479999999998H853.9200000000001C915.936 910.0479999999998 967.936 860.0319999999999 967.936 796.0319999999999V512.0319999999999zM234.016 456C244.032 456 262.016 456 268.032 466.016L312.032 546.016L386.048 358.016C386.048 348 398.048 342.016 410.048 342.016C420.064 342.016 432.064 348.032 432.064 358.016L524.0640000000001 626.016L586.08 410.016C586.08 398.016 598.08 392 608.096 392C620.096 392 632.096 398.016 632.096 404L700.096 546.016L740.096 466.016C746.112 456 786.112 456 796.096 456H968.096V284C968.096 221.984 916.096 169.984 854.08 169.984H170.0800000000001C108.0640000000001 169.984 56.064 221.984 56.064 284V456z" />
    <glyph glyph-name="more"
      unicode="&#xF145;"
      horiz-adv-x="1024" d=" M128 358.4C56.32 358.4 0 414.7199999999999 0 486.4C0 558.0799999999999 56.32 614.4 128 614.4C199.68 614.4 256 558.0799999999999 256 486.4C256 414.7199999999999 199.68 358.4 128 358.4L128 358.4zM486.4 358.4C414.7200000000001 358.4 358.4000000000001 414.7199999999999 358.4000000000001 486.4C358.4000000000001 558.0799999999999 414.7200000000001 614.4 486.4 614.4C558.08 614.4 614.4000000000001 558.0799999999999 614.4000000000001 486.4C614.4000000000001 414.7199999999999 558.08 358.4 486.4 358.4L486.4 358.4zM844.8000000000001 358.4C773.12 358.4 716.8000000000001 414.7199999999999 716.8000000000001 486.4C716.8000000000001 558.0799999999999 773.12 614.4 844.8000000000001 614.4S972.8 558.0799999999999 972.8 486.4C972.8 414.7199999999999 916.48 358.4 844.8000000000001 358.4L844.8000000000001 358.4z" />
    <glyph glyph-name="navigation"
      unicode="&#xF146;"
      horiz-adv-x="1024" d=" M230.016 768C194.016 761.9839999999999 10.016 696 164 337.9839999999999C174.016 317.9839999999999 180 337.9839999999999 216 343.9999999999999C262.016 354.0159999999999 308 358.0159999999999 348 358.0159999999999C364 358.0159999999999 384 358.0159999999999 390.016 368.0319999999998C384 456.0319999999998 404.0320000000001 486.0479999999998 410.016 528.0319999999998C420.0320000000001 630.0479999999998 378.016 692.0319999999998 328 738.0479999999998C292 774.0479999999998 265.984 768.0639999999997 229.984 768.0639999999997zM204 236C220 153.984 240 88 256 76C312 25.984 394.016 65.984 410.016 108C420.032 144 404 200 400 256C364 240 256 225.9840000000001 204 236zM742.016 972C706.016 978.016 680 978.016 646.016 948C594.016 901.984 552 840 564 737.984C568 695.9680000000001 588 665.984 584 573.984C588 563.9680000000001 610.016 563.9680000000001 624 563.9680000000001C666.016 563.9680000000001 712 563.9680000000001 758.016 547.9680000000001C788.0319999999999 541.952 798.016 521.952 808.0319999999999 541.952C968.032 901.952 778.016 967.968 742.016 971.968zM578.016 460C574.016 404 558.016 348 568 312C584 272 660 229.9840000000001 722.016 281.9840000000001C732.0319999999999 292 758.016 353.9840000000001 774.016 440C716 429.9840000000001 610.016 446.016 578.016 460z" />
    <glyph glyph-name="next"
      unicode="&#xF147;"
      horiz-adv-x="1024" d=" M224 64L537.6 512L224 960L486.4 960L800 512L486.4 64L224 64z" />
    <glyph glyph-name="offline"
      unicode="&#xF148;"
      horiz-adv-x="1024" d=" M568 489.984C568 489.984 493.984 425.9840000000001 397.9840000000001 489.984L55.968 796C55.968 796 55.968 854.0160000000001 113.984 854.0160000000001H853.984C853.984 854.0160000000001 909.984 854.0160000000001 909.984 796zM848 228H113.984C113.984 228 55.968 234.016 55.968 284V740L227.9680000000001 568L113.9520000000001 296L277.9520000000001 512L385.9520000000001 425.9840000000001C385.9520000000001 425.9840000000001 511.9680000000001 369.9840000000001 573.952 425.9840000000001L681.952 512L853.952 284L739.936 568L909.952 740V277.9839999999999C909.952 277.9839999999999 903.936 227.968 847.936 227.968z" />
    <glyph glyph-name="order"
      unicode="&#xF149;"
      horiz-adv-x="438.85714285714283" d=" M0 877.7142857142858V1024H146.2857142857143V877.7142857142858H0L0 877.7142857142858zM292.5714285714286 877.7142857142858V1024H438.8571428571429V877.7142857142858H292.5714285714286L292.5714285714286 877.7142857142858zM0 585.1428571428571V731.4285714285714H146.2857142857143V585.1428571428571H0L0 585.1428571428571zM292.5714285714286 585.1428571428571V731.4285714285714H438.8571428571429V585.1428571428571H292.5714285714286L292.5714285714286 585.1428571428571zM0 292.5714285714287V438.8571428571429H146.2857142857143V292.5714285714287H0L0 292.5714285714287zM292.5714285714286 292.5714285714287V438.8571428571429H438.8571428571429V292.5714285714287H292.5714285714286L292.5714285714286 292.5714285714287zM0 0V146.2857142857143H146.2857142857143V0H0L0 0zM292.5714285714286 0V146.2857142857143H438.8571428571429V0H292.5714285714286L292.5714285714286 0z" />
    <glyph glyph-name="paging_firstPage"
      unicode="&#xF14A;"
      horiz-adv-x="1024" d=" M699.7333333333333 614.4000000000001L699.7333333333333 745.2444444444444C699.7333333333333 790.7555555555555 659.9111111111112 807.8222222222222 625.7777777777777 785.0666666666666L295.8222222222222 494.9333333333333C284.4444444444445 489.2444444444444 278.7555555555556 483.5555555555555 278.7555555555556 477.8666666666667V773.6888888888889H170.6666666666667V136.5333333333334L278.7555555555556 136.5333333333334V432.3555555555557C284.4444444444445 426.6666666666669 290.1333333333334 420.977777777778 295.8222222222222 415.288888888889L620.0888888888888 125.1555555555557C659.911111111111 102.4000000000001 694.0444444444445 119.4666666666668 694.0444444444445 164.9777777777779L694.0444444444445 295.8222222222222H910.2222222222222V614.4000000000001H699.7333333333333z" />
    <glyph glyph-name="paging_lastPage"
      unicode="&#xF14B;"
      horiz-adv-x="1024" d=" M802.1333333333332 773.6888888888889V477.8666666666666C796.4444444444443 483.5555555555554 790.7555555555556 489.2444444444443 785.0666666666666 494.9333333333333L460.8 785.0666666666666C420.9777777777778 807.8222222222223 381.1555555555556 790.7555555555556 381.1555555555556 745.2444444444444L381.1555555555556 614.4000000000001H170.6666666666667V295.8222222222222H381.1555555555556L381.1555555555556 164.9777777777778C381.1555555555556 119.4666666666666 420.9777777777778 102.3999999999999 455.1111111111111 125.1555555555556L779.3777777777777 415.2888888888889C790.7555555555555 420.9777777777778 796.4444444444443 426.6666666666667 796.4444444444443 432.3555555555556V136.5333333333333L904.5333333333334 136.5333333333333V773.6888888888889H802.1333333333332z" />
    <glyph glyph-name="paging_nextPage"
      unicode="&#xF14C;"
      horiz-adv-x="1024" d=" M876.0888888888888 489.2444444444444L540.4444444444445 785.0666666666666C500.6222222222223 813.5111111111112 460.8 790.7555555555556 460.8 745.2444444444444L460.8 608.7111111111111H244.6222222222222V278.7555555555555H460.8L460.8 147.9111111111111C460.8 102.3999999999999 500.6222222222221 79.6444444444444 540.4444444444445 108.0888888888889L876.0888888888888 403.9111111111111C910.2222222222222 426.6666666666668 915.9111111111112 466.4888888888888 876.0888888888888 489.2444444444444L876.0888888888888 489.2444444444444z" />
    <glyph glyph-name="paging_prevPage"
      unicode="&#xF14D;"
      horiz-adv-x="1024" d=" M261.6888888888889 534.7555555555556L597.3333333333333 824.8888888888889C637.1555555555555 847.6444444444444 676.9777777777778 830.5777777777778 676.9777777777778 785.0666666666666L676.9777777777778 654.2222222222222H893.1555555555555V329.9555555555557H676.9777777777776L676.9777777777776 199.1111111111112C676.9777777777776 153.6 637.1555555555555 136.5333333333334 597.3333333333331 159.288888888889L261.6888888888888 449.4222222222224C221.8666666666667 472.1777777777778 221.8666666666667 512 261.6888888888889 534.7555555555556L261.6888888888889 534.7555555555556z" />
    <glyph glyph-name="pin"
      unicode="&#xF14E;"
      horiz-adv-x="1024" d=" M794.016 588C760 622.0160000000001 708 632 658.016 614.0160000000001L478.016 794.0160000000001C512.0319999999999 828.032 512.0319999999999 878.0160000000001 478.016 914.016C444 948.032 392 948.032 366.016 914.016L196 734.0160000000001C161.984 700 161.984 648 196 614.0160000000001S282.016 580 308 614.0160000000001L486.016 426.0160000000001C470.016 384.0000000000001 470.016 332.0000000000001 512.0319999999999 290.0160000000001C564.0319999999999 238.0160000000001 640.0319999999999 238.0160000000001 682.0479999999999 290.0160000000001L794.0479999999999 410.0160000000001C844.0639999999999 460.032 844.0639999999999 538.0160000000001 794.0479999999999 588.032zM768 384L708 324L938.016 85.984V204z" />
    <glyph glyph-name="popup"
      unicode="&#xF14F;"
      horiz-adv-x="1024" d=" M853.3333333333333 512V768L512 426.6666666666668L426.6666666666667 512L768 853.3333333333334H512V938.6666666666666H938.6666666666666V512H853.3333333333333L853.3333333333333 512zM85.3333333333333 682.6666666666667V256C85.3333333333333 204.8000000000001 119.4666666666667 170.6666666666668 170.6666666666667 170.6666666666668H682.6666666666666C733.8666666666666 170.6666666666668 768 204.8000000000001 768 256V426.6666666666668H853.3333333333333V256C853.3333333333333 162.1333333333335 776.5333333333333 85.3333333333334 682.6666666666666 85.3333333333334H170.6666666666667C76.8 85.3333333333334 0 162.1333333333335 0 256V682.6666666666667C0 776.5333333333333 76.8 853.3333333333334 170.6666666666667 853.3333333333334H426.6666666666667V768H170.6666666666667C119.4666666666667 768 85.3333333333333 733.8666666666667 85.3333333333333 682.6666666666667L85.3333333333333 682.6666666666667z" />
    <glyph glyph-name="prechat"
      unicode="&#xF150;"
      horiz-adv-x="1024" d=" M586.016 425.9840000000001L386.016 385.9840000000001L426.016 585.984L790.016 949.984L950.016 789.984zM450.016 557.9839999999999L420 425.9839999999999L558.016 449.9839999999999zM114.016 796V284C114.016 249.9840000000001 136.032 228 170.016 228H740.0319999999999C774.0479999999999 228 796.0319999999999 250.016 796.0319999999999 284V512H854.0479999999999V228C854.0479999999999 193.984 830.0479999999999 169.984 796.0319999999999 169.984H114.016C80 169.984 56 193.984 56 228V854.016C56 888.0319999999999 80 910.016 114.016 910.016H568.0319999999999V854.016H170.0159999999999C135.9999999999999 854.016 114.0159999999999 830.016 114.0159999999999 796z" />
    <glyph glyph-name="prev"
      unicode="&#xF151;"
      horiz-adv-x="1024" d=" M800 64L486.4 512L800 960L537.6 960L224 512L537.6 64L800 64z" />
    <glyph glyph-name="preview"
      unicode="&#xF152;"
      horiz-adv-x="1024" d=" M853.3333333333333 938.6666666666666H85.3333333333333C34.1333333333333 938.6666666666666 0 904.5333333333334 0 853.3333333333334V85.3333333333334C0 34.1333333333334 34.1333333333333 0 85.3333333333333 0H597.3333333333333V85.3333333333334H170.6666666666667C119.4666666666667 85.3333333333334 85.3333333333333 119.4666666666667 85.3333333333333 170.6666666666668V768C85.3333333333333 819.2 119.4666666666667 853.3333333333334 170.6666666666667 853.3333333333334H768C819.1999999999999 853.3333333333334 853.3333333333333 819.2 853.3333333333333 768V426.6666666666668H938.6666666666666V853.3333333333334C938.6666666666666 904.5333333333334 904.5333333333334 938.6666666666666 853.3333333333333 938.6666666666666z M742.3999999999999 315.7333333333334C742.3999999999999 315.7333333333334 733.8666666666666 324.2666666666667 733.8666666666666 324.2666666666667C750.9333333333334 366.9333333333334 768 418.1333333333335 768 469.3333333333334C768 631.4666666666667 631.4666666666667 768 469.3333333333333 768S170.6666666666667 631.4666666666667 170.6666666666667 469.3333333333334C170.6666666666667 307.2000000000001 307.2 170.6666666666668 469.3333333333333 170.6666666666668C520.5333333333333 170.6666666666668 571.7333333333333 187.7333333333334 614.4 213.3333333333334C614.4 213.3333333333334 614.4 204.8000000000001 622.9333333333333 204.8000000000001L802.1333333333333 25.6000000000001C836.2666666666667 -8.5333333333333 887.4666666666667 -8.5333333333333 921.6 25.6000000000001C955.7333333333333 59.7333333333335 955.7333333333333 110.9333333333334 921.6 145.0666666666668L742.3999999999999 315.7333333333334zM469.3333333333333 256C349.8666666666666 256 256 349.8666666666667 256 469.3333333333334S349.8666666666666 682.6666666666667 469.3333333333333 682.6666666666667C588.8 682.6666666666667 682.6666666666666 588.8000000000001 682.6666666666666 469.3333333333334S588.8 256 469.3333333333333 256z" />
    <glyph glyph-name="productservice"
      unicode="&#xF153;"
      horiz-adv-x="1024" d=" M921.6 368.6399999999999C921.6 296.9599999999999 849.9200000000001 296.9599999999999 849.9200000000001 296.9599999999999L296.96 302.08L307.2000000000001 235.52H819.2C875.5200000000001 235.52 875.5200000000001 122.8799999999999 819.2 122.8799999999999H752.64C778.24 117.7599999999998 793.6 92.1599999999999 793.6 61.4399999999999C793.6 25.5999999999999 762.8800000000001 0 732.1600000000001 0C696.3200000000002 0 670.7200000000001 30.72 670.7200000000001 61.4399999999999C670.7200000000001 87.04 680.96 107.5199999999999 706.5600000000001 122.8799999999999H389.12C419.84 112.6399999999999 435.2000000000001 87.04 435.2000000000001 61.4399999999999C440.32 25.5999999999999 409.6 0 378.8800000000001 0C343.04 0 317.4400000000001 30.72 317.4400000000001 61.4399999999999S337.9200000000001 107.5199999999999 358.4000000000001 117.76H276.48C256 117.76 209.9200000000001 174.0800000000001 209.9200000000001 215.04C204.8 230.4 138.24 834.56 138.24 834.56H20.48C20.48 947.2 117.76 952.32 117.76 952.32C235.52 952.32 245.76 844.8 245.76 844.8L256 834.56H803.84C931.84 834.56 921.6 706.56 921.6 706.56V368.6399999999999L921.6 368.6399999999999zM378.8800000000001 716.8C343.04 716.8 317.4400000000001 691.2 317.4400000000001 655.3599999999999S343.04 593.92 378.8800000000001 593.92S440.32 619.52 440.32 655.3599999999999S414.7200000000001 716.8 378.8800000000001 716.8L378.8800000000001 716.8zM378.8800000000001 532.48C343.04 532.48 317.4400000000001 506.88 317.4400000000001 471.0400000000001C317.4400000000001 435.2000000000001 343.04 409.6 378.8800000000001 409.6S440.32 435.2000000000001 440.32 471.0400000000001C440.32 512 414.7200000000001 532.48 378.8800000000001 532.48L378.8800000000001 532.48zM558.08 716.8C522.2400000000001 716.8 496.6400000000001 691.2 496.6400000000001 655.3599999999999S522.2400000000001 593.92 558.08 593.92S619.52 619.52 619.52 655.3599999999999S593.92 716.8 558.08 716.8L558.08 716.8zM558.08 532.48C522.2400000000001 532.48 496.6400000000001 506.88 496.6400000000001 471.0400000000001C496.6400000000001 435.2000000000001 522.2400000000001 409.6 558.08 409.6S619.52 435.2000000000001 619.52 471.0400000000001C619.52 512 593.92 532.48 558.08 532.48L558.08 532.48zM742.4000000000001 716.8C706.5600000000001 716.8 680.96 691.2 680.96 655.3599999999999S706.5600000000001 593.92 742.4000000000001 593.92S803.84 619.52 803.84 655.3599999999999S778.24 716.8 742.4000000000001 716.8L742.4000000000001 716.8zM742.4000000000001 532.48C706.5600000000001 532.48 680.96 506.88 680.96 471.0400000000001C680.96 435.2000000000001 706.5600000000001 409.6 742.4000000000001 409.6S803.84 435.2000000000001 803.84 471.0400000000001C798.72 512 778.24 532.48 742.4000000000001 532.48L742.4000000000001 532.48z" />
    <glyph glyph-name="promote"
      unicode="&#xF154;"
      horiz-adv-x="1024" d=" M512 960L678.4 659.2L1024 595.2L787.2 339.2000000000001L825.6 0L512 147.2000000000001L198.4 0L236.8 339.2000000000001L0 595.2L345.6 659.2L512 960" />
    <glyph glyph-name="rating-full"
      unicode="&#xF155;"
      horiz-adv-x="1024" d=" M512 1024L669.0133333333333 686.0799999999999L1024 631.4666666666667L768 372.0533333333333L829.44 0L512 174.0800000000001L194.56 0L256 372.0533333333333L0 631.4666666666667L354.9866666666667 686.0799999999999L512 1024z" />
    <glyph glyph-name="rating-half"
      unicode="&#xF156;"
      horiz-adv-x="512" d=" M354.9866666666667 686.0799999999999L0 631.4666666666667L256 372.0533333333333L194.56 0L512 174.0800000000001L512 1024z" />
    <glyph glyph-name="ratting"
      unicode="&#xF157;"
      horiz-adv-x="1024" d=" M512 1024L680 701.9839999999999L1024 631.968L784 363.968L828 -0.0320000000002L512 155.9679999999999L196 -0.0320000000002L238.016 363.9679999999999L0 631.9679999999998L344 701.9839999999999L512 1023.9999999999998" />
    <glyph glyph-name="refresh"
      unicode="&#xF158;"
      horiz-adv-x="938.6666666666666" d=" M465.4545454545455 7.7575757575758C271.5151515151515 7.7575757575758 147.3939393939394 131.8787878787879 147.3939393939394 131.8787878787879L62.0606060606061 23.2727272727273C62.0606060606061 23.2727272727273 7.7575757575758 -31.030303030303 7.7575757575758 23.2727272727273L7.7575757575758 364.6060606060606C7.7575757575758 364.6060606060606 0 403.3939393939394 38.7878787878788 395.6363636363637L372.3636363636364 395.6363636363637C372.3636363636364 395.6363636363637 434.4242424242425 395.6363636363637 380.1212121212121 341.3333333333334L256 240.4848484848485C263.7575757575758 248.2424242424243 294.7878787878788 162.9090909090909 473.2121212121212 162.9090909090909C667.1515151515151 162.9090909090909 783.5151515151515 310.3030303030304 783.5151515151515 504.2424242424242C783.5151515151515 558.5454545454546 861.0909090909091 558.5454545454546 861.0909090909091 558.5454545454546C938.6666666666666 558.5454545454546 938.6666666666666 504.2424242424242 938.6666666666666 504.2424242424242C930.909090909091 224.9696969696969 736.969696969697 7.7575757575758 465.4545454545455 7.7575757575758L465.4545454545455 7.7575757575758zM899.8787878787879 628.3636363636364L566.3030303030303 628.3636363636364C566.3030303030303 628.3636363636364 504.2424242424242 628.3636363636364 558.5454545454546 682.6666666666667L682.6666666666667 783.5151515151515C674.909090909091 775.7575757575758 643.878787878788 861.0909090909091 465.4545454545456 861.0909090909091C271.5151515151516 861.0909090909091 155.1515151515152 713.6969696969697 155.1515151515152 519.7575757575758C155.1515151515152 465.4545454545454 77.5757575757577 465.4545454545454 77.5757575757577 465.4545454545454C1e-13 465.4545454545454 1e-13 519.7575757575758 1e-13 519.7575757575758C1e-13 791.2727272727273 193.939393939394 1008.4848484848484 465.4545454545456 1008.4848484848484C659.3939393939394 1008.4848484848484 783.5151515151516 884.3636363636364 783.5151515151516 884.3636363636364L868.848484848485 992.969696969697C868.848484848485 992.969696969697 923.1515151515152 1047.2727272727273 923.1515151515152 992.969696969697L923.1515151515152 651.6363636363635C930.909090909091 659.3939393939394 946.4242424242424 620.6060606060605 899.8787878787879 628.3636363636364L899.8787878787879 628.3636363636364z" />
    <glyph glyph-name="refused"
      unicode="&#xF159;"
      horiz-adv-x="1024" d=" M916 204L876 164C841.984 129.984 789.984 113.984 740 113.984C613.984 113.984 512 216 512 341.9840000000001C512 392 530.016 444 564 477.984L604 517.984C638.016 552 688 568 740 568C864 568 968 465.984 968 341.9840000000001C968 289.9840000000001 949.984 237.9840000000001 916 203.9680000000001zM568 341.9840000000001C568 243.9680000000001 642.016 169.984 740 169.984C774.016 169.984 808 181.984 836 204L597.984 444C579.9680000000001 409.9840000000001 567.9680000000001 376 567.9680000000001 341.9840000000001zM740 512C705.984 512 672 500 641.984 477.984L881.984 237.9840000000001C897.984 268 916 301.9840000000001 916 336C909.984 438.016 836 512 740 512zM638.016 632C632 620 626.016 604 620 597.9839999999999C524 551.968 456 455.968 456 341.9839999999999C456 277.9839999999999 478.016 221.9839999999999 506.016 175.968H56C56 175.968 56 283.968 80 307.968C102.016 329.9839999999999 130.016 375.968 262.016 391.968C392.032 415.968 398.016 483.968 398.016 483.968C398.016 505.9839999999999 398.016 545.9839999999999 398.016 545.9839999999999S348 573.9839999999999 324 632C284 648 289.9839999999999 660 284 682.0160000000001C284 682.0160000000001 290.016 774.0160000000001 318.016 768.032C318.016 768.032 342.016 768.032 336.032 790.048C336.032 824.0640000000001 336.032 830.048 336.032 854.048C342.048 876.0640000000001 348.032 938.048 398.048 950.048C444.064 962.048 410.048 956.064 426.048 956.064C438.048 956.064 416.032 968.064 444.064 968.064L490.08 978.08C518.08 978.08 540.096 938.08 552.096 932.064C568.096 932.064 558.112 938.08 592.096 932.064C638.112 922.048 626.112 860.0640000000001 626.112 836.0640000000001C626.112 814.048 632.1279999999999 808.0640000000001 626.112 786.048C620.096 762.048 660.1279999999999 768.032 660.1279999999999 768.032C694.1439999999999 768.032 676.1279999999999 682.0160000000001 676.1279999999999 682.0160000000001C676.1279999999999 654.0160000000001 666.112 654.0160000000001 638.112 632z" />
    <glyph glyph-name="rename"
      unicode="&#xF15A;"
      horiz-adv-x="1024" d=" M944 296H817.984V342.016H896C964 342.016 978.016 352.032 978.016 422.016V604.0319999999999C978.016 668.0319999999999 956 680.0319999999999 896 682.048H817.984V728.064H944C988 728.064 1024 692.064 1024 648.064V376.064C1024 332.064 988 296.064 944 296.064zM818.016 752H796V249.9839999999999H864V203.968H681.984V249.9839999999999H749.984V752H727.9680000000001V749.9839999999999H681.9520000000001V795.9999999999999H863.9680000000001V749.9839999999999H817.9520000000001zM68 448V576C68 648 76 660 150.016 660H682.0160000000001V364H150.0160000000001C74.0160000000001 364 68.0000000000001 378.016 68.0000000000001 448zM728 681.9839999999999H128C60 681.9839999999999 48 667.968 45.984 603.968V421.952C45.984 351.9360000000001 53.984 341.952 128 341.952H728V295.9360000000001H80C36 295.9360000000001 0 331.9360000000001 0 375.9360000000001V647.936C0 691.936 36 727.936 80 727.936H728z" />
    <glyph glyph-name="return"
      unicode="&#xF15B;"
      horiz-adv-x="1024" d=" M762.016 1009.984C748 1009.984 734.016 1005.984 724 997.984C720 995.968 717.984 993.984 716 991.968L176 563.9680000000001C172 561.952 168 559.9680000000001 165.984 555.9680000000001C153.984 543.9680000000001 145.984 529.952 145.984 511.9680000000001S153.984 479.9680000000001 165.984 467.9680000000001C168 463.9680000000001 172 461.9520000000001 176 457.9520000000001L718.016 31.9360000000002L722.016 27.9360000000002C734.016 19.9360000000002 748.0319999999999 13.9200000000002 762.016 13.9200000000002C800.0319999999999 13.9200000000002 830.016 41.9200000000002 830.016 77.9200000000002V945.9200000000002C830.016 981.9200000000002 800 1009.9200000000002 762.016 1009.9200000000002z" />
    <glyph glyph-name="salesforce"
      unicode="&#xF15C;"
      horiz-adv-x="1024" d=" M820 793.984C780 793.984 741.984 779.9680000000001 709.984 761.984C677.984 825.984 619.9680000000001 869.984 549.984 869.984C499.968 869.984 459.968 851.9680000000001 421.9840000000001 811.9680000000001C389.9840000000001 863.9680000000001 331.968 895.9680000000001 275.9680000000001 895.9680000000001C165.9520000000001 895.9680000000001 75.9680000000001 799.9680000000001 75.9680000000001 683.9680000000001C75.9680000000001 665.952 75.9680000000001 645.952 83.9680000000001 627.9680000000001C31.9680000000001 595.9680000000001 -0.0319999999999 537.952 -0.0319999999999 479.9680000000001C-0.0319999999999 383.9680000000001 89.9840000000001 299.9680000000001 197.9840000000001 299.9680000000001C204.0000000000001 299.9680000000001 204.0000000000001 299.9680000000001 212.0000000000001 299.9680000000001C236.0000000000001 235.9680000000001 300.0000000000001 185.9520000000001 384.0000000000001 185.9520000000001C460.0000000000001 185.9520000000001 532 235.9680000000001 556 307.9680000000001C582.016 293.9520000000001 602.016 287.9680000000001 634.016 287.9680000000001C692.0319999999999 287.9680000000001 748.0319999999999 319.9680000000001 774.016 371.9680000000001C794.016 363.9680000000001 806.016 363.9680000000001 826.016 363.9680000000001C934.016 363.9680000000001 1030.016 459.9680000000001 1030.016 575.9680000000001S934.016 793.984 820.0000000000001 793.984z" />
    <glyph glyph-name="search"
      unicode="&#xF15D;"
      horiz-adv-x="1024" d=" M1011.2 76.8L947.2 12.8C928 -6.4000000000001 902.4 -6.4000000000001 883.2 12.8L576 313.5999999999999C524.8 288 448 256 384 256C166.4 256 0 448 0 659.2C0 870.4 166.4 1024 384 1024C601.6 1024 800 870.4 800 659.2C800 569.6 748.8 480 704 416L1011.2 140.8C1030.4 121.6 1030.4 96 1011.2 76.8L1011.2 76.8zM403.2 902.4C256 902.4 134.4 787.2 134.4 640S256 384 403.2000000000001 384C550.4000000000001 384 672 499.2 672 640S550.4 902.4 403.2 902.4L403.2 902.4z" />
    <glyph glyph-name="secureform"
      unicode="&#xF15E;"
      horiz-adv-x="1024" d=" M832 960H128C57.984 960 0 901.984 0 832V192C0 121.984 58.016 128 128 128H832C902.016 128 960 121.984 960 192V832C960 902.016 901.984 960 832 960zM896 192H64V768H896zM128 704H832V640H128zM128 512H832V448H128zM128 320H832V256H128z" />
    <glyph glyph-name="select"
      unicode="&#xF15F;"
      horiz-adv-x="1024" d=" M876.0888888888888 489.2444444444444L540.4444444444445 785.0666666666666C500.6222222222223 813.5111111111112 460.8 790.7555555555556 460.8 745.2444444444444L460.8 608.7111111111111H244.6222222222222V278.7555555555555H460.8L460.8 147.9111111111111C460.8 102.3999999999999 500.6222222222221 79.6444444444444 540.4444444444445 108.0888888888889L876.0888888888888 403.9111111111111C910.2222222222222 426.6666666666668 915.9111111111112 466.4888888888888 876.0888888888888 489.2444444444444L876.0888888888888 489.2444444444444z" />
    <glyph glyph-name="select_all"
      unicode="&#xF160;"
      horiz-adv-x="1024" d=" M802.1333333333332 773.6888888888889V477.8666666666666C796.4444444444443 483.5555555555554 790.7555555555556 489.2444444444443 785.0666666666666 494.9333333333333L460.8 785.0666666666666C420.9777777777778 807.8222222222223 381.1555555555556 790.7555555555556 381.1555555555556 745.2444444444444L381.1555555555556 614.4000000000001H170.6666666666667V295.8222222222222H381.1555555555556L381.1555555555556 164.9777777777778C381.1555555555556 119.4666666666666 420.9777777777778 102.3999999999999 455.1111111111111 125.1555555555556L779.3777777777777 415.2888888888889C790.7555555555555 420.9777777777778 796.4444444444443 426.6666666666667 796.4444444444443 432.3555555555556V136.5333333333333L904.5333333333334 136.5333333333333V773.6888888888889H802.1333333333332z" />
    <glyph glyph-name="send"
      unicode="&#xF161;"
      horiz-adv-x="1024" d=" M46.016 921.984L974.016 517.9839999999999L754.016 399.968L334.016 681.9839999999999L686.016 329.9839999999999V153.9839999999999L542.016 233.9839999999999L330.016 121.9839999999999z" />
    <glyph glyph-name="sendemail"
      unicode="&#xF162;"
      horiz-adv-x="1024" d=" M576 421.9840000000001L960 768C960 832 896 832 896 832H64C0 832 0 768 0 768L384 421.9840000000001C486.016 351.9680000000001 576 421.9840000000001 576 421.9840000000001zM768 512L902.016 192L710.016 448L588 345.9840000000001C512 281.9840000000001 377.9840000000001 345.9840000000001 377.9840000000001 345.9840000000001L249.9840000000001 448L63.9680000000001 204L191.9680000000001 512L-0.032 704V192C-0.032 133.984 63.9680000000001 128 63.9680000000001 128H889.984C953.984 128 960 186.016 960 186.016V704.0319999999999z" />
    <glyph glyph-name="sendfile"
      unicode="&#xF163;"
      horiz-adv-x="1024" d=" M166.016 613.9839999999999C58.016 724 102.016 820 166.016 884S326.016 992 448.0320000000001 876C570.048 756 820.032 505.9839999999999 890.048 436C960.064 364 948.064 224 844.032 121.9839999999999C742.0160000000001 19.968 614.0160000000001 -6.0160000000001 532.032 75.968C448.0320000000001 159.968 250.016 357.9839999999999 218.016 389.9839999999999C172 421.9839999999999 218.016 467.9999999999999 256.0320000000001 435.9999999999999C288.0320000000001 403.9999999999999 512.032 179.9999999999999 570.048 121.9839999999999S730.048 101.9839999999999 794.048 165.9839999999999C858.048 229.9839999999999 876.064 351.9999999999999 838.048 389.9839999999999S454.048 773.9839999999999 384.032 844C320.032 908 262.016 902.016 204.032 844C148.032 788 140.032 729.9839999999999 204.032 665.9839999999999S454.048 415.968 518.048 351.9679999999999C550.048 319.9679999999999 576.064 319.9679999999999 608.064 351.9679999999999S634.0799999999999 421.9839999999998 608.064 441.9839999999998C544.064 511.9999999999998 474.048 575.9999999999998 436.064 613.9839999999998C396.064 651.9999999999998 442.08 697.9839999999998 480.064 659.9999999999998C518.0799999999999 619.9999999999998 538.0799999999999 601.9839999999998 660.064 479.9999999999998C730.0799999999999 409.9839999999998 724.064 357.9839999999998 660.064 299.9999999999998C602.048 235.9999999999998 538.048 243.9999999999998 480.064 299.9999999999998C346.048 435.9999999999998 276.064 506.0159999999997 166.048 614.0159999999998z" />
    </font>
</defs>
</svg>
